<mxfile host="65bd71144e">
    <diagram id="Ejduv7HiquY45KepjpCB" name="第 1 页">
        <mxGraphModel dx="1118" dy="790" grid="1" gridSize="10" guides="1" tooltips="1" connect="1" arrows="1" fold="1" page="1" pageScale="1" pageWidth="827" pageHeight="1169" math="0" shadow="0">
            <root>
                <mxCell id="0"/>
                <mxCell id="1" parent="0"/>
                <mxCell id="2" value="环境" style="rounded=1;whiteSpace=wrap;html=1;arcSize=7;fillColor=#0050ef;strokeColor=#001DBC;fontColor=#ffffff;fontSize=20;" vertex="1" parent="1">
                    <mxGeometry x="340" y="100" width="120" height="40" as="geometry"/>
                </mxCell>
                <mxCell id="3" value="智能体" style="rounded=1;whiteSpace=wrap;html=1;arcSize=7;fillColor=#0050ef;strokeColor=#001DBC;fontColor=#ffffff;fontSize=20;" vertex="1" parent="1">
                    <mxGeometry x="350" y="280" width="100" height="40" as="geometry"/>
                </mxCell>
                <mxCell id="6" value="" style="shape=image;imageAspect=0;aspect=fixed;verticalLabelPosition=bottom;verticalAlign=top;fontSize=20;image=data:image/png,iVBORw0KGgoAAAANSUhEUgAAAhkAAAJJCAIAAACI9rIrAAAABnRSTlMA9wD3APcH4Ik2AAAgAElEQVR42ux9Z3wU5fr2zO7sbE0PgRSyoYrhQAwCAgooTQQFERBUQIpH5ChHQI+IgkfkGAEBpclBpYggRUFpUZAiHQNSJZAYIJtCQkjd3uf9cL15/nM2ySZZAmnP9YHfstmdnZ195r6eu103a7FYGAoKivoPt9vtdrutVqvL5bLb7U6nUxAEjuN4npdKpTzPy2QyiURCLxTFvQBHLwEFRT2F0+nMyspKSko6ffp0cnJycXFxcnIyy7Jut9vpdJKXsSwrkUjcbnd0dDTLsuHh4d26dXvyyScfeughf39/lmXplaS4e7DUL6GgqEfQ6/WnTp06dOjQwYMHHQ7HX3/9JQhCOZtEjpNKpeAbl8uFJyUSiVQqdbvd5BmtVtu2bdv+/fv36dOndevWcrmcXmEKyiUUFA0WZrP5zJkz69atO336tE6nU6lUDodDKIVEImFZFh6Gy+Uiz8Mpwb9ut5v4KIh0ISaG4wuCEBcXN3DgwGeffbZ9+/YymYxecwrKJRQUDQdr1649fvz4yZMndTqdTCZTqVR2u11824IYCHlIJBLyWPwalmWJO8IwjFQqJZTDcZw4JtalS5fIyMhPPvkkJiaGXn8KyiUUFPUYRqNxx44dCQkJ4eHh586dczgcxLcAE5BoFaENPGm324n/AefDw0HB8+I3yuVyQRBcLhfLsoRUtFpt586dJ0+e3L17d46jiVUKyiUUFPUKFotl06ZNS5cuTUtLk8vlNpsNzyPu5HA4QBtwMuBwEMIo/yZnWTguHs8j2OV0OpGZJx/hdDoJVzkcjvj4+EWLFvXo0YP+NBSUSygo6gH0ev3XX3/9zTffpKamwleAk1ErAMEgG9+sWbPg4OAFCxY89thjtO6LgnIJBUXdxY4dO/bs2bN582aGYYg7QvyP2uIShmEUCoXD4XC5XBzHPfXUU8uXL2/atCn9vSgol1BQ1C0UFxe/9NJL+fn5ly5dYkpTGrVFIQQeNMayLKJkWq120qRJb731Fm17pKBcQkFRh9yRjz76KCUlhWEY9KWTBAky3uIKq/vvmpDqL4lEgtODxXj00Uc3b97cpEkT+gtSUC6hoKhNuFyut95665dfftHpdMHBwUVFRdj48zwvCAJy7OLc+32GTCbDOXhALpfL5XKr1RoeHj537txRo0bRn5KCcgkFRe0gOzt74MCBaWlparWaZVmj0ahUKp1OJ6n69V6adR8gbjpB7gSiXrAYPM/b7fbY2NjevXsvWLCA9jZSUC6hoLjfuHjx4rhx41JTU1F3KwiCWq02mUwcx5FedKVSKZFITCZT7Z4q+MPpdBIfheM4hUJhNBpJQuX5559fsWKFn58f/WUpl1BQUNwnfPXVVytXrkxJSSHxK5VKZTabGZHAiVgyq7agUCicTidxTWQyWdmzCggIKCkpYRimVatWhw4dCgsLo78v5RIKCop7juXLl3/xxRc6na7snyqKaIljTaS3g/TAIz0uCIK4Jd4jPkZ6ElmWlclkgiBAjh4HJw3wYq+IVG1VHVqtdtOmTQ8//DD9lSmXUFBQ3EPMnDnzt99+u3z5crl/9WK7EWiy2+1it4D0f4ifEZddgXgIr3jk0stSDl4DGRWPI1cFUqk0Kipq165dbdu2pb815RIKCop7gg8//PDHH39MTU2tqG+8Ii7x0GqUy+VE3UQsBgxPAprBYjeF/BWeBzpXxMkP4uWIpek5jqtuyz1kV5o3b75169b27dvTX5xyCQUFRQ1j9erVn332mcFgKCoqqug1FXEJSXGDCcqaeIwqgThjFbMsPM+zLOtwOLxExnwAMkBarXbfvn1arZb+7pRLKCgoagybNm1auHBhTk6OwWDwImbl3Y579C3CO8EsXo/UiNvtVigUfn5+KpWKZVmbzWY2m61Wq8PhwHQsl8tFkiIymUypVIpF7DmOAy359mU5juM4rmnTpmfOnKGVXZRLKCgoagapqalDhgzR6XRKpdJiscjl8opiRxVxCSw+yWGIOxlBKs2aNWvdunVcXNxDDz0UHR0dHh4ul8vVarVCoZBIJA6Hw2Kx2O3227dv3759OzU19fLly1evXk1PTy8oKKioqd5jokkVfR2clSAIcrk8Jibm1KlTSqWSrgHKJRQUFHeFwsLCHj16ZGRkqNVqo9EYGBhYXFxc3XwJcTjgc7jdbsiZREVFderUadCgQb17927RogWOYLfbeZ4nJORxEJRvoa/w6tWr27Zt27dv3+XLly0WiyAICoWCYRhUJ/sGjUZjNBrBQ/7+/v3799+4cSNdBpRLKCgofIfb7R43btz27dthW0l8qbpcQtpQ4NkwDDN48OAxY8b069dPo9GAAJCKl0qlqOslyXZyZHFOnoxfhDijTqfbtGnT+vXr//rrL4ZhcJ441er6JXa73c/PD6E8QRC0Wu177703btw4uhgol1BQUPiIOXPmrF+/Pj8/nxHV43rRkIfbQYJLhIFAP/AnHn/88Xfeeadfv342m82L/1EViKnL4XAYjcadO3d++umnV69eJaRFTqYsn1URWq1269atcXFxdD00eFDVaAqKmsfZs2ePHz8OIoHhrtTiu93upk2bwnar1Wqn0ymXyyUSSVBQkCAIHTp02LFjx/79+/v162c2mzGiqkbgcrl4npfJZC+++GJycnJCQoLL5ZLL5dAHk8vlCoXCZrPBAaru1lOn002bNs2HbhUK6pdQUDR2OJ3Obt26XblyhfgN4lHtFUGlUtlsNuK1EJ9AqVR+8sknU6dOlUgkBoOB53kQCXEsPFjKSw6/3JfBYYKXU1hYGBwcnJGRMWfOnA0bNogdFJfLFRAQUFxc7MMFmT59ekJCAl0Y1C+hoKCoBjZu3HjlyhV0/KHEltTgenmX2Wx2uVwqlSo0NFQulzudTo7jHnnkkVOnTk2ePBlzTdRqNf5kNpvZUvi4iywFz/M8z1utVqPRGBwczDBM06ZN165d+/nnnzdr1gzuCIrHiouLffCH1Gr1jh07UlNT6cKgfgkFBUVVodPpnnzyydzcXJvNJla1gqiJ937AyMjI7OxsprRzcOrUqQsXLiTm22w2K5XKGh+3DtJiGMblcokLBFiWvXr16tixY5OTk61WK5Lqvn2EWq3u3LlzYmIiHcVI/RIKCorKIQjC/PnzdTodjKYHkRAVxYoAImEYxt/ff968eYsXL5bL5SaTyWq1Op1O9B7a7fZyO1SEKsPjjZBLsdvtYiJBIUBsbOz+/fvj4+MDAwMNBoNGo/HhmkilUpPJdOTIkd27d9MVQv0SCgqKynHixIl+/fqh6gm6JrDLkOat9O3IT8hksoULF06bNs1sNqtUKvJXJDbQHWIymdRqtQeX4EFFdWKk2LesZ0NKA6xWq1QqlclkVqtVoVCQT3n22WcTExPJOVSXS+DxREVFJScnU9ekoUI6e/ZsehUoKGoEkyZNysjIgPUUuwIk8Y4pIOW+V6PRmM3mkJCQr7766pVXXkF5FUy/2WxG7wjDMHa7neM4UhBcru2WlIf/2z+W4RK4O4Ig8DwPCgRjIUYnkUiee+65vLy833//Hf0r1fXVeJ53u90Wi8XpdPbu3ZuuE+qXUFBQVIgLFy6MHz8+JSWF8Tr/g2jFe8xyh9+wfPnyiRMnkq5DcIDZbBbzB57Hv8R1gLCKTqe7cuVKfn5+Tk5OcXGxy+VSKpUhISHBwcGRkZEdOnSIiIgQW3lQBTwSuVwOmiFuChwjcCHLskOGDNm7dy85fzQnonWmouHwYtdEqVSGhYX9+eefIEUKyiUUFBSecLvdEyZM2LZtm1qtttvt3mNBmHoLi4zRhJjRO3/+/Ndff12hUBDPwGazEXUTGHSn0ymTySwWi1KphBF3Op0//vjjd999d+nSpfT0dEh+kQ5HfCLHcTKZjOf58PDwfv36vfjii4888gjUupxOJ9wRvNJisYj/C1EW9NUzDDNo0KBDhw6RzApTNeUuhUJhtVpBsRs3bnzuuefogqFcQkFBUQ6uXbsWHx/PeO1sF0Pc1g4iGT9+/LJly/z8/OBwgCeINXc6nXa7HV6CwWDw9/c3GAwGg2HXrl2fffZZamoqz/NizXlUJIsHW4n9pCZNmnTu3HncuHGjR49mGMZkMiGvY7PZAgIC4KaAwBiGwZngmdOnT0+YMOHatWtiXrTb7WUHc5XLJTzPt27d+syZMzRr0vBAf1EKihrAl19+iaEgsOZkX1+uYSVWGPbdarW2bt36008/9fPzMxqNJOhEWMdms3Ecp1KpHA4Hy7JqtVqv1//www9du3adMmXK9evXNRoNydKTcSYOh8Nut8ObESfeJRLJnTt3fv7558mTJ8fHx587d06tVqtUKoVCASIpKioS52NAEgqFQqfTdevW7V//+hdehk9ENMzL95XL5fguKBhLTk4+deoUXTCUSygoKDxhsVgSExPBDVKpVC6Xe3FNYFidTifmiAQHB7tcrvnz54eGhjqdTiQ/UAGMF0skEp7nET8wm80mk0mn0/Xr12/ixInZ2dn4LKvVWlJSAu0THNkj848wFHrmEexiGEav11+7du3hhx9+5ZVX8vPzoRCs1+uh2kLOVi6XG41GhmGio6MdDseECRMmT57MlMa4kPLxEuYilwKcpNFoFi5cSNcM5RIKCgpPfP/99zqdDiQhlUrFGXUvrglSGoWFhVOnTh0+fLjFYkGHoNPplEgkUqmUdBHa7XalUllUVKRWqw8dOtS+ffszZ87AFRAEAcJZMplMo9Hgo/F2uCBwU0jLiNVqtdlsiJuxLGu1WlUq1Zo1a0aMGOFyuWw2m7+/f0FBAQ7udDpxqnCV8HqWZadMmdKiRQubzYY+Srlc7qVvBjSD7kvwbkpKis9tjxSUSygoGiyWLl0Ksy6TydBI6KVUCRPXScQpJCRk5syZDMNgbBR8CNhul8uFai5Y9qCgoMWLFw8ZMgST1SUSCfL8cFnsdrvRaCQEA9eEeCRouUegDI2TKAKWSqUoEjty5EiTJk2OHz/ucDhCQkLMZjOp5nI4HCqVCsf38/OzWq1arXb69Ol+fn74spVO9sUnku+u0+l+++03umwol1BQUPwfioqKTCaTUql0uVwYIgKXoqLXE7ZAfdTMmTNJPzmy7gqFAnkOBKzgWxiNxjlz5vz73/9GWAmfZTKZEDUCdSkUCrAUy7IYDo9MCRnKi3m9ICdxLRaoy2az/eMf/zhw4ACIDd/FYrHgrzzPazQaFJWVlJRMnTq1Y8eOgiCAZrxcH7TUOJ1O8Bkoc/369XTlUC6hoKD4P/z66685OTkopWVE09QrNa8OhyM+Pn7atGlkkC3pIuR5Hlt4JN4Zhlm5cmVCQgKpyBLXQRmNRlAXSdfDdkP7S5y5IQ4Ecip4jBpi9K+kpqYOHz48LS2NqEYqlUqIoIjfHhgYaLVaZ8yYwZQKDHsBKY8mhQYsy6akpOh0Orp4KJdQUFD8f5w4cUK8Ma+0EU8ikcB2C4IwePBgmUyGQBZiUDgUCUAZDAa5XL5jx465c+fiNVWkq6oDRWJk5pXVah0zZkxWVpZMJisoKGBKO06Y0jQ7/lUoFD179nz00Uf1ej3jtY6rXNy8efPq1at08VAuoaCgYBiGMRgM+/btY0QteyQ34IVLYLVDQ0PR3sGI+uTJAF08UKlUN27cSEhIQFIEk6kYhvH396/Bb4EzdzqdyL3//vvvH3/8McMwQUFB+FB0uoAwUDkmCEKTJk0mTZqEFv3qDvRlGGbnzp10/VAuoaCgYBiGuXr1qk6nA3lU0WnAX91u95AhQ9q3b4/Oc0I/JOIkCILJZJJKpR9++OEff/yBySKYccL4pLFYEcTSLCAzjuP++9//btu2TSKRoN8FLhEYhWEYq9WK0xgyZEjTpk19azw8efJkpUl7CsolFBSNAmfPnmVKNVHgXlTaq8iU1g2PGTMGrAAiIXRCOEmtVp84ceLbb7/leb6wsBAdgk6ns7pD173DbreTESkajUav18PEz58/PycnB24QpFyY0nowhUKBuFxISEi3bt3sdjtpwKw6UlNTER+joFxCQdHYcfnyZTJ/l2VZsnP3EvNB/CooKKh79+4MwyiVSvIuUIvYLmO0LTb+DocDnRwOh6NmNUjQG8+Uiqm4XC5/f//z589///33HMeZTCYodJG0kFQqRROlIAhjxoxhWbbSlppy/SEyxpiCcgkFReOFIAgpKSniEbygEDE3VPTGxx57DBqOJD4m9k7QS3jw4MHExETkw9VqNQlwQY2xpr6FVCp1OBwkW6NQKGQymV6vl0gkW7duNRqNcrkcbhbpEWFK8zput7t///4PPvigD9Eqt9v9yy+/0FVEuYSCorHD5XJBWgq1W6QA1/tQdLS79+rVCzkPor0IcByHqlmGYb777juGYTDm3WQyQRIYfR6k/LdGnBISkfP397dYLKTp5OTJk/v37+c4DkkdmUyGPxmNRqVSiQFfKpUqNjbWh8nBTqfz2LFjdBVRLqGgaOzIy8uTyWQk+EMyClCvAsRGFp2DUD0ZNWoU6SBBvwgyLugQlMlkJpNp37598D/Q3gHuQf95zXpXJCKHBAa4DQTz1VdfEZIjTolGo0GaB3pfTzzxBBwsAu8fRzw5g8HgQwEYBeUSCooGBYvF4kM9FcdxUVFRgYGBkMliSpMrJDIGI/77778XFBTUYL1WdYGPzszMvHPnDql4JrXLOHPI2oeFhfn2ESkpKZRLKJdQUDR2oJWvumBZtnXr1tADxjafxLjIfHi3252YmFiDgSwfgLPS6XR//fUXy7Ie7etiZ6Vly5akdb/qgNKMD0l7CsolFBQNCrdu3fJtvx8dHc0wjN1u96gGRioFdvzkyZNMFbro7ymgA4apwx4Dtcg5C4LQvHlzMj2lWlzCMAwVDKZcQkHR2JGZmenbGzF0nYR3CGGQnnmLxXLjxg0kV2rxC8J5SktLY/63fIv5326YwMBAPz8/3z6CtphQLqGgaOzIyMjw4V1SqbRJkybEOuMZD+mU4uLioqIi73rD9wHwRbKyshhR96VHZTBmpQQGBvp2cJQVUFAuoaBovCDqKdUCdNqZ0mQ72ALVTcRZ0ev1kJ2v3S+I7vri4mJCIR7fF20xLpcLEi/VglgFmYJyCQVF40VhYaFvPXrirT1RhCTdf0ypFi/pZKwVYHoKOUNwhsf3JfxHRrBUi1PFY8EoKJdQUDQo3Lp1a/jw4RcvXqz0lWazubpa64ROGIZxOBw2mw2KKUTwkXSY17qdJSpbmLbClIa5wB9gOzxDpkn6QCe17ntRUC6hoKhhFBQUvPfeexMmTEhMTKxKY0eTJk188BswrJApVeQlW3vwB5wVlUolNty1AkEQ7Ha7TCZD/I30VIpfQxwsH9onkSWqVG+Gor6Ao5eAgqKoqOjDDz/ct2+fXq8vKiqSSCRVsXGtWrU6ePCgDzYUCWe0wTMM43Q6iX+DkbpBQUGYkotek9q6LDjDgIAA0lOJ5kTmf+uYpVJpUVFRtU0Px/kmMExBuYSCos6hsLDwyy+/XL9+fWZmplwut1gsCoVCKpXevn270ve2bNkSlrRan+hwOAoLC5n/ra8l+RI8HxQUFBISotfreZ6vrY5FqVTK87zFYmnTpo1HTyUjKkKD+4L8vA+ujw+JFgrKJRQUdQhGo3HdunUrV67U6XRKpdLtdoNIYLtRCOsdWq3WNwMKooI2ItGFRHJbKpVCW6VVq1Y3b96sxRiX2+0GYcTFxTFlom3iguY7d+74UNoLZvK5MYWiroHmSygaoy+SkJDQuXPn9957r6CgAO4I4lpWqxVyIFXpHUHLoQ+4deuWIAgYRsKI+kvcbjdIxe129+jRgylNcdcKBEEArbZr1w4pE1IXQBInOFudTufDbC6XyyWRSKhfQrmEgqL+oaSkJCEhoUePHvPmzbt165bT6TQajaSGyuFwEBHD/fv3V3q0kJAQH85BKpWmpaUhzCXuUoSZJhoqgwcP9u34NQX4SZ06dQoPD4ePUrbQAOVbaWlpPnAehv76IORFUTdBY1wUjQI2m+2///3vqlWrMjMzsRcmURqQB0mDMwyjVCqrkkwm1VbV3Y9fv349Nzc3JCTE7Xa7XC4y70RcJdW1a9dmzZr5Jh9ZI1AoFBaLJS4uTqPRkGFfHi0vGPVYldxSuWjfvn3NDoikoH4JBcW9QkFBwerVq+Pi4t599938/HxBEPR6vVwuJ1tpUpUr7udIT0+vtCw4NDQ0KioKe3bxoENxDZg4zYBJIXK53OVy7d69G5EicUEUCRzBPRoyZAjDMBzHEYNL2KtmTTBOXqlUElZTq9U489deew2EJ3abEPsSBEGtVjudzl9//RUVwwTe3R3UGrAsGxISQrmEcgkFRV2H3W7/4osvBgwYMGPGDJ1OhyJUGC8vMRmWZaHgazabK7l5JJKoqChYT7vdLpVKUY7lvccQpvbo0aPIi8COky5FfLTdbrfb7c8995y4y4TneYzp9ff3r8FCYYlEYrfblUqlxWKx2Ww8z8vlcpPJZLVan3vuubZt22I2l3jel1KpBPWyLJufn5+SkuKDbhjLsgMGDKCrlHIJBUXdhdlsnj9/flxc3Ny5c5OTkzmOgyKIw+Fwu92VCrkjklOV0E18fDzZ17Msi329d0OPiYRHjx4tKCggITKyPcd7UQjQuXPn559/HsNxWZaFvQ4MDNTr9TWrRY/pv0xpzwfpxn/55Zch2khG2bvdbhISxIPdu3enp6f7MH/e7XYPHDiQrlXKJRQUdREOh2PDhg39+vWbO3dueno6wlmwjyRe5H0TjRCT2+2+ceNGpR/XoUMHplQ03ul0wuCSgYkVHZ/neZPJdOTIEcyYwpbf5XI5HA6FQoESAATK5syZo1KpUN8F3wXVtzUorwJyRUCPhKfsdvuwYcP69u1LxlWBJsUaYnjx5s2bCZtWC1qt1reiagrKJRQU9xBut3v16tUdOnSYPHnyn3/+iRohlmVJOAv2DlbY+74eTHD69OlKP7Rz586MKGIGi0wG2VYEp9PJ8/zGjRtJDwcYCPxBeCg3N/fBBx+cNWuW0+lEagF8w9R0vgQVvf7+/kSlUS6Xv/3222q12uVy4awkEgk8KvgubrdbqVRmZmZeunSJ53kfNFQUCgUVUKFcQkFRh2A2mzds2BAbGzt9+vS8vDxYPYfDAV1buVyuVCp5nrfb7eKSrQpvCYkEtv7IkSOVfnTLli3bt28vppBKVU8QL+I4LjEx8Y8//pBKpSA2kBycEhwwICBAEIRp06Y9/fTTBQUFmBQCvfoajHGBlqRSKUYcwkl6//33u3XrxpT25MMLIcUIcrkc33H79u1FRUW+iRkPGjSILl3KJRQUdQIOh2Pz5s19+vSZPHlyTk6ORCKxWCxutzskJEShUMAs2mw2i8WCxxKJBA0NlYa5BEHIycmpNP2uUCiGDh1KHAv8W5XEOMJu33zzDYkXkUAWU1oJplQqoa64cuVKuVwOUROz2SyTyWq2hxHcIAiCQqFgWXbYsGGzZs1C/A1EgjQ7HDuoh3Ecd/PmzbVr16LKywc6QZUaBeUSCorahNvt3rBhQ4cOHSZOnHj9+nU8g4pbpVJZUFBgtVph+ziOIwkMCKXALfByZKlU6nA4bt26denSpUrPpFevXjzPi2fWMqXZhYqIiuRsdu7cWVhYiNgREuxowofJtlqtcrlcJpNFR0cnJibi5FUqFTHxNXUlbTYbsjhWq7VVq1Zr1qyBdyWTyVCdjJAdHCbEuARBOHjw4OXLl3F5q6v10qJFi7Zt29JlTLmEgqLWYLfbf/nll549e06ePDkrK4tlWaPRSMqc4IWQVzKlKXEPY+fFL0GIDJ7Btm3bKj2frl27RkREkG27y+VSKpXe/QbYX4Zh8vPz33//fY7j0LGBMBc8J5KHZ1nWYrH06dNnw4YNEonEbDYHBAR4uD4eiQdkNSSlEPsf5AUymQzVYnAyeJ7nOK5Tp07bt28PCgqy2Wwkz49DkZpgsI7BYPj888+rUgMN2sZHy2QyKMd07drVh1GMFJRLKChqAE6nc/369U888cSwYcPOnTsnl8vJ/I8anD8IK4+My5UrVyp9vVKpjIyMhFcEw22xWLzUNaFXAxbcarV+++23Fy9eRA2uy+VCWttsNiuVyjt37sBZUSqVJpNp9OjRx48fDwgIKCkp4XkeuWs0tZCEDc4fcTYAJIfj2Gw2iUSiUqkQv4JsDMp8nU5ndHT00aNH27VrR6bnkinCSCDB1bNarW63e968eRkZGYiMVaXQwGazIVEE4nnttdfoeqZcQkFxv2Gz2fbs2TN8+PApU6acO3cOsSBSrlqzXCI+lE6nQ0baO958802cpLjl0IttxaeQcbz//ve/URnM8zwiYCqVymw2N2nSBNSCDnOz2dylS5fLly/Hxsba7Xar1Ypgl3j2CcdxLpfL6XQSxwWlXw6HA2UIICqNRgP2CgoKwsGnTp169epVl8tlsVgQEpTL5SzLFhQUwGshbZVKpfLkyZNr1qxBMqkqV540zeC7aLVa9OVQUC6hoLhPcLvd+/fvf/rpp0eOHLl//355KcgOF3vzGuy3IFl6juN0Ot25c+cqfctTTz0VFxdHyrG8z3cCW4B4GIYJDQ3ds2fPZ599xvN8cXExKZFCUMhDQMXhcISGhp49e3bChAkBAQHwn5RKJQJWYqIiYERdI2hrVygUer3earVKJJKioqLIyMgvvvji/fffZxhGoVAgwobglUwmI5+CcJkgCDabbenSpUVFRTjDsvFDDygUCrRb4jeSSCSdO3em1cCUSygo7hMEQdi9ezciWsePH1epVIGBgTabzWazWa1WkvDAjtu3uesV3hUSCWnw3rJlS6Wv5zhuyJAhTqcThhjFV15eLHYj8vPz1Wr1+++/f+3aNdTdSiQSk8mEUb7ibIfNZoNkFsuya9euPXTo0ODBgxmG0ev1KABDNAmZcA9pLIlEolAoUNvmdDoxNSQoKG24teQAACAASURBVOi11167evXqqFGjmjRp4nA4eJ4vKCgQBMFoNIJTOY6zWCxojC8pKWFZdsGCBT/88AMjyjl5r1tDKghfRCKRtGjRYtasWXR5NzywPgweoKC4p3A6nceOHVuzZs327duZUoUPYhZVKpXNZvNwRGrWNeF5nlBUVFTU6dOnISXiBZmZmf3798/MzESZU6Xc43Q6ib6kTCZzOBz9+vX75ptvIiIi0MBIBpkg7+10OlUqVUFBAYToMUTLZDKdPXt2zZo1u3fvtlqtHMeRnkH4VWK/Af3tSJVHRUW9+uqr48aNa968OVPaUoMDqtVqcp4Oh4MQpMViUSqVu3btGjVqFCJvVb/yarXaZDKh/2bQoEH4WSkaGKSzZ8+mV4Gi7iApKemNN9746KOPrl69qlAoEMuSyWQwXsj9khJVdF1UGmapFkBdsOaYZN62bVvMFvSCgICAmzdvJiUlqdXqSps/SNMGwzBhYWEGgyE8PPzSpUtWq7Vv375GoxEd+w6HA7JXSJ4LgqBSqUpKShA1givWqlWrYcOGvfDCC02bNgWdmEwmuCm4dPBOWJbVaDTR0dEDBgxISEhYsWJFz549pVIpPkiv14MweJ6Hahm5wghtGY1GtVqdkZExatSo/Pz8gIAAeBvkd/EOyNhAmWb58uUxMTF0nVO/hILinsDtdh88eHDBggVZWVlZWVmwOwj4kJ0+tGxh42BqydaYqTmJKgS4yAB2iUTSsWPHkydPVvrG9PT0gQMHZmdnIz1QkWQ9nBLxC/AYHeavvvrqF198wTAMXAQoECM/hMIqvBhGHP4EyYojMKjT6QoKCnJzc0tKSuBVBAcHBwUFRUVFNWnShBRT4S1I+GM2MHFKyORgs9msUqkMBoOfn19OTs5jjz128+ZNtVpNvB8QORL+FdE5+aY8z4eHhycnJ1Od+QYJOguLovZx9uzZWbNmHT9+HLtgsAIRpiUhI7Lv8egOqcHoFlOqlYv4EsJQRUVFOp2uUiHCmJiYjh076nQ6FOkSMRVxJzxmvDOlyl0klMSUTjfZsGFDZGTku+++C/+G53kiSo8cDHlAtE9IggRHq0gzkWRQSBad9MRA5R7qLLgCICqQtJ+fX0pKyrRp027cuCGXy8XSW7jy3kUE8O1UKpXVal26dCklEuqXUFDUvC9y5MiRhISE3NzctLQ0DHrCiI5aPzeFQmG1WtH053A4pkyZsmTJkkrflZqaOmTIkMLCQlQSo6AL4SCmdCJvRUEhjUZDzPSUKVOWL19ODLrRaBTPRYcz4cET5N+KinTFf/VSyIuyXalUarVaFQqFzWYrLCwcPHjw+fPn0dtYXfkW8DHLsvHx8SdOnKDLvqGC7hEoagdJSUkvvfTS0KFDjx8/npaWBhYxGAwQd6rZuqxqgfQqMqX681KpNDExsSqNJm3bth09erTBYICxhr5kFf0nQiTR0dGrVq0aMmQIGgzz8vI0Gg0uDl6AqNT/bAlFwwor3DaWvsDjNXCVwHCkkIwQYWpq6sMPP4yeTbGPWK0dA4783//+ly57yiUUFDWG5OTkPn369O7d+8CBA1AKETdkIN9bi64JTC1SCExp/ZJOp/vuu++q8vYZM2ZotVpSQ4X8uVqt9mj1qIjDeJ7PyMhgGObgwYNdunTJyMgICwuDDBcy2EypumJFJ+8FFfkruOZmsxnVZSzLlpSUFBcXb9u2rXfv3oWFhXa73d/f3wfdLRCqn5/fpEmTMOuFoqGCxrgo7h8uXLgwY8aMW7duFRYWut1uk8mEUBLDMAjmIGdQg0VZvoHU7CL1DRut1WrPnz/vvQ8R+OGHH8aOHYuuQ48MvPcKWlwNiUQSGBhYWFgokUhCQ0Pnzp376quvEpUwxIvEPYx3CfGceTwDTbMPP/xw+fLl4gvi88WMjIw8efIkFeCifgkFxV3B7XanpaWNGTOme/fup06dMhgMZrMZDQdWq1WtVqPgFbpPsGi12xeNjm6o5xI7m56evnHjxqq8ffjw4c8//7zNZkP3H/EYUOJc0bsgyovLVVhYCCucl5c3ZcqUl19+WafTyWQys9ksl8t5nidlZncJZOBR3AUak0gkiYmJI0eOXL58uYf191CKrCJQSkCJhPolFBR3hcuXLy9YsIB0HbpcLnHyGZ3Y4sY3dFRUpWvhXm2vJBLxHF9xcqJ58+ZJSUloGveOGzduTJ48+fjx44woja9QKLzcbuIhWiqVyul0IscukUiQBp85c+Y777yDkb2o1mWqkEuviELEjkhJSUlgYCDLsmfOnPnoo4/27NnDlFZg4xfBmdjtduJHVh3PP//8N998Q28EyiUUFL6zyOeff37ixAmdTge5QPQAwlKLG0c8xG6JzG2tnDbp/0AtE3ke4am1a9e+8MILVTlOYmLiggUL0L0I8XbSTl/RW9Rqtd1uJ2ExmG+cEkSFo6KiXnvttTFjxmi1WnJ9CJFUhVHIp4vlVRiGSUpKWrVq1c6dO4uKiqDkSBo2ySt9iHRptdrjx4+HhobS24FyCQVFtXH9+vXZs2efP38+MzOTjKT1OeBedyCRSNq1a7dr167IyMiqvH7KlCnr168nhpiIwHu38mUBUkE7iM1mCw0NHTdu3OTJk6OiouRyOaqzBEEwmUwajUY85VCc8EeLIplcwpSO20pMTNy6devu3bsx58rnfBW0jeFdIYHftGnTDRs2dO3ald4RlEsoKKqHmzdvzpw5Mysr68KFC4jPNKQFBps+adKkFStWVOX1brd72LBhBw8eRJQMno0PXEKUuzQaDQggODi4sLCwQ4cO3bt379OnT9++fUNDQ6GhUm7hL8MwZMAXwzDXrl07ePBgYmLi+fPnDQYDypHBMfgg3/TNEBbz9/fX6/UMwyxcuHDq1Kn0pqBcQkFRDeTk5CxfvnzHjh06nQ47YnEUBVNvG8DXlMlkERER33//fRUrXPPy8vr27ZuWlqZWqzFwxQcuQc8g6VQn3YLw9jiOa9myZatWrVq3bt22bdvIyEiVShUQEKBWq8Hler3eYrHcunUrNzf32rVrKSkpGRkZxcXF5BeBm0KCZuJBilUHVMKI9/nGG28sWLCAdrlTLqGgqCp0Ot2rr74KGSij0YicMKRtmTLaWfX4VmFZjKeVyWTh4eGnT58WS+p6QWpq6vDhwzMzMzH4tqI8kPfIEgmRwfRjLDzy8OKkDpH2QmdiWT9J/OmoLSZeC/G97qb2ISgoqKioqGvXrocOHarFhlOK+w+6a6DwHRkZGX//+9+ffPLJpKSkvLw8o9HI87zZbIYOCra30J1tAF+W7NYlEklaWtqqVauq+Ma2bduuW7euWbNmUqnUy+xeL5/LMAzKAeDTuN1ui8XCsqzZbAaRKJVKlUpF3BS8xikCSq4xxUSlUikUCnA8fh2iLIlNgM9Eolari4qKHn300f3791MiaWygmvMUvsBisUyfPn3+/PnHjh1zOp1omcamGC1+EJ4SlwDVYplvjYCIB9vtdqVSmZ2d/eCDD1Yq+AhERES0a9fu+vXr6enp1a3fFU/bZUrr3DD0kHgzoAS8ksx453me8AopAsYr4XngSYx/93CMELCqnimRSt1ud8uWLX/++Wexeph3IMdDb6gGABrjoqge0tPTly9fvnfv3oyMDGJ9UNTrdDoRCBJTCPpF6oJcY42A6N5DQf3cuXNEXrdSrF+/fu3atWfPni33r15iXKANsUY9+S+RjmdK81JgHY9YFpGVJJ+CJz3yIjzPQzPYt1IurVZ78eJFdHpWBdeuXRsxYsSff/5Jbyvql1A0Ity6dWv58uVz5sz55ZdfSkpKMEID3drY56KilFAIovMNhkXQ5IEhIvheer2+uLh44MCBVTzCQw89FBMTc+LEiZKSkmp9NKRl0O1IpBjFkjMk8yF2OIjUoweLkPZ1UiWMijsyPsu3pvoBAwb89NNP/v7+VfdIHn/8cX9//4iIiDZt2tD7i/olFA0fhYWFy5Yt27Jli06nw0bYe89d44FWq33vvffGjRtX9bdcuXJl3LhxycnJ4GBxzybzv93vzP+Ww9UKyEQZom1DRrCQSmWe59u1a3fq1KlqVW1NnDhx8+bNCoWiadOmV65cofmV+g6ae6fwBoPBMHPmzPHjxy9YsACSUEgYUCIBdDpdQkLC6dOnq/6W9u3b7969e8CAAbDIKpUK+XzkGODqKZVKD73FWmERpjSHT56Eir5Go4HKpEQiiYmJmTVr1smTJ6tFJB9++OGlS5cwcbmgoODrr7+ma4n6JRQNlkW++OKLdevWoV/EA2RPSiGVSqOiopKSkqoe3mEYxuVyDRs2LDU1NTc3F0aZBAzJLell0O99/oIo+oKEPnlepVLFxMS88847o0aNqtYBf/rpp3fffRcDKPGtIyIijh49GhYWRpcT5RKKhgOj0fjRRx/t2rUrLy+PlAYh3kJ2qb71RTdIIBvfunXr48ePBwQEVOu9hw8fnjJlik6ng7SJOIVe6yxCJpJ5FHRB2tJgMMTGxm7fvj0mJqZah01KSho3blxhYaHFYnE6nUR5Zdy4cVUvs6agXEJR132Rr7/+evXq1RkZGcS0ecQ96ntp771AQEBASUlJt27dDhw4UN24f2Zm5rBhw6xW6/Xr10khA9Her0V4/NZgOLhNWq12+PDhH3zwQdVLtoCbN28+9dRTeXl5UCDGdkQmkzmdzujo6C1btjz00EN0OVEuoajHEARh4cKFiGj5+/tbLBZ0ijCl3QkeLdPULxGDXLFBgwZ9//33PgiHLFq06Mcffzx//rwHhdSF64xCYRLS1Gq1Gzdu7Ny5c3WPc/v27d69excVFUGti3g/HMdBVrJPnz7bt2+n7SaUSyjqJcxm85YtWxYuXKjT6ZRKpcvlKleIqU7NPayDgNGXSqUjRoxYt25ddRsSGYbJyclZvXo1NKxCQ0Pv3LkjCEIt5qWQrRFPc+nfv//jjz/+z3/+0wdzn56ePm7cuDNnzuBCETV78gURKtyyZcvQoUPpcqJcQlGfYLVat2/fPm/ePJ1Op9FoMGGJxBzQtSAIQtlxVUic0GAX2VmDXDmOA9c+88wzW7Zs8cE7cbvd58+f//jjj5OTkzMyMtRqtcViqS2/BMsARr958+b9+vV79913o6KifDiUXq/v2rWrTqcjQ4ixeEiyhPS3xsbGnj59unanalJQLqGoKkpKSr766quNGzempKTwPC8IQsOQzKotj0TcCYhBhA8++ODRo0d9UN8Crl27Nm3atCNHjsD4in8j0inp8ellO1HKKqOIn4QAF1QgcWSxCie0v+x2u1arHT169BtvvOHzPKuTJ0++/fbb58+fl8vlcHS8u7aTJ0/+/PPP6bqiXEJRp2G325cuXXrx4kUMzWVEw/ho5Mo3eAwflJQiIiLi999/r1ahsBiCIPz555+rV68+ePBgeno6wzAYFw9br1QqrVZr2eQKtvzi8yGzTBBZKiuyUm49Rfv27Y1G4/Tp00eOHHk3o9oPHjy4ZMmSQ4cOQVMZ8yU9rpgHHnjggX379jVt2pQuLcolFHURLpdr27Ztc+fOJf0i4h5mCt9vof91CIjtVigUrVu3Xrt2bfv27e/Sidy5c2dCQgLDMNnZ2aS+DoIuTGnUsbq/I6qQOY4zm81qtRrpCpPJpNVqe/Xq9dhjj1Wrmb9cbN68maw3MigezpD3wN0//vGPxYsX06VFuYSibsFisSxbtuzHH39MS0szmUx+fn5Wq5UMVyfaTTT/cS/QsWPH2bNnP/PMM3d/qLy8vMTExE2bNmVmZmZkZKhUKmzzIRSGFBfP85CjJ6Jb4oAYGdAr7jrEsEitVvvII49MnDixc+fOVZzL4gVut3vy5MnHjh27ffu2TCYzGo1iiTCIgFXkl6D386uvvurZsyddP5RLKOqKL5KYmLhixYrTp0+TgLuYNmB0xOF+ipoCqVDq2LHjsGHDZs6c6UNxV0Wkcvbs2cTExJs3b2ZlZf3111/iCBtTGq70+E1lMpk4tCWXy0Ebjz/+ePfu3ePi4pRKZY2cXkFBwZNPPnnlyhXx/C5wHsbbMKUTIct9O0J5LVu2PH/+fE1dMQrKJRQ+QhCElStXfv311ykpKUQmXTzUD/tWWuN7T6FSqZRKZXFxscvliouL27lzZ42nAZxOZ2Fh4Y0bN86ePXvx4sWcnJyioqIrV66INdNkMllsbCzP80FBQa1aterYsWNcXFyrVq38/Pxq3FgnJibOmDFDp9OpVCpBEMjCIwLSVYnFgYZXrVo1fvx4uoool1DUDpxO56FDh/75z39C0xexdcgFop+u7FvEPQQUNQWxmha25K1bt3799dfHjh17T7fbxCnBA3wWyeLcO5hMpg8++GDv3r1ZWVlM6eQuBFTFImOMKHfiBUFBQf7+/mfOnIFkCwXlEor7B7fbvWvXLqjmQX0Wsw5lMhkCC0jSiqdZIMaFZ+gF9PEWKpN7Z0q1yxBWYllWqVQajUaGYZRKZdu2bXfv3t2kSZOG5ATv27dv2rRpSLNj18JxnEKhwLfGJVKpVDabDR2dXnLvZGfDsuzs2bPfe+89usYol1DcJ9jt9l27dn322Wfnzp3DXKNK930U9xqk84MkqIinotVqn3nmmU8++aQB6IVcuXJl5syZBw8erFl/DiILzZs33759+10WwlHcH1Dpm3q/Jfzxxx937dq1detWiURCUiNqtRpFPhS1BblcDncQg+IZhnE4HCqVCj9QA2gONZvNixcv3rZtW05OTg0eFrFWl8slk8ny8vLeeeedvXv30uVEuYTiHuKXX36ZNm0aVFeZ0kmu+BMlkrpgagMDA4uLi0mYEf+2atVq//79ERER9ferWSyWTz75ZNu2bbm5uQzD2Gw2kpmrke0RtkRYzNevXz948GDfvn3piqrjoDGueumLHD16NCEhISMj49atW3a7Xa1WC4JAkiISiYRqotQFv0Qsy6hQKDp06DB+/PiJEyfWaxbZvHnzkiVLbt68GR4enp2dzVQtl14tEKFMl8sVEhKi0WjOnz9fUyXLFJRLKBiGYS5cuDBjxoxTp06VeweSLHodGcnXyBEUFFRSUqJQKKKiotRq9dq1a9u1a1dPvwsm6a5bty4zM9NjIj1qOmpqvZG6YbKGeZ5/7733Zs6cSVcU5RKKu4Xb7T5w4MDq1auvXLmCQVVoIbZYLCRHIpfLMYydofNF6gbgI0ZERCxZsmTQoEH18Svo9fpdu3atWbMmJydHrL7DlKZ8PFogawSkPR5lCyqVKiws7NixYz7rS1JQLqFgGIZJTU19++23f/31V9zDqEDF3g2q3R73YaVSrBT3AQEBAYGBgbGxsatXr653FcB2u/3cuXO//PLLli1bdDodx3GoHSedIhKJRCaTIYiHyvIa3LugvA0rHAE0juMmTpy4dOlSuq4ol1D4gqSkpLfffjsvLy8zMxOuBulBE+8NcTOTmAMdLlIXoNVqV69e3bt37/pywoIg6HS6xMTEvXv3Hjp0SFzK7KEBSnYwcrnc5XJhzElNLTmQB5m3iI+zWCzR0dF79+5t1aoVXVqUSyiqcVdfunRp/vz558+fx7hD+jPVBZBQPtk4lzsjJD4+vl27ditWrFCpVHX2u6D3paCg4MaNG9evXz9+/Pi5c+cuXbqEDnkvmvC1ePG7dOly6NAhug7r6N1BL0Fdw9WrV5ctW7Z+/XqWZcPCwiQSicViqcVZrRSAv78/BpUTgXepVApdXlTE+vv7G43G5s2bz549u85mRw4fPnzp0qUzZ87cunULFRykHZ0pnb7OMEwdjJG63e5bt27t379/wIABdDVSv4TCG06fPv3hhx8WFRVdvnyZaJzQtEfdgUQikcvldrtdrJrOcZzL5eI4LiIiYujQofPmzfN5nOJ9wP79+4cOHUqCVIQgke4WSlE3L77b7dZqtZcuXarLV5hyCUVtIjU1ddmyZWfOnPnzzz/RJi2VSjGRgikVEqcpkNqFn5+fwWBgRAEujONF4ZxWq924cWPnzp3r+Ldwu90DBgw4ceIEeYaotImT53Vzng0o8KuvvhozZgxdkJRLKDxZZPbs2ZcuXSIFl+JwFp1VVXeA2geVSsVxHPbyyGNptdpJkya9+eab9WWznJ6ePnDgwFu3bhHRz/8zB+Wlf+oOFAqF0+mMjIw8cuQIHeJb5xxHeglqkUWmTZs2ZMiQ3bt363Q6mUym0WgweFWtVkNqWxAEMq6KXrHahcvlUqvVZrNZr9cHBATI5XKLxdKpU6eNGzf+61//qkdRl5iYmGeffdbhcKBKSi6XY1gvwlx1+czRXa/T6RYsWEAXJPVLKJjbt2+/9dZbZ8+ezc7OdrlcPM8rFAq9Xl92P4iNGJ0sUkdAwlxKpTIsLGz06NHvvfdefYzdZ2Zmjhw58s8//yRD4z08sHKfr+Vtb+mOSqFQNG3adOvWrXFxcXRNUi5ppLh+/frHH3988uRJRLQ8hlBBNALheHH8usZ7wSh8APl1nE5nbGzshg0b6rUW+g8//DB27FiE6Uj5FknR1c2iD9Qr45bRarXJycmkrYqCckljQXZ29sqVK3fs2IF+EavVSgu06izEklBigRCpVBoVFfXKK69MnTpVLpfX6+/ocrnat28PcS1MKOB5XhAEBL7qoAaP+JTUarXD4Vi8ePErr7xCl2tdcRzpJbjXyMnJmTdvXt++fT/77LOSkhKGYSwWC91P1d1bQiJxOp0ajUYqlTocDkEQeJ5H+ioqKuqnn356++236zuRwDQvWbLE7XZrNBqTyQRtaSKjUAedYNIBwzCMw+Gw2+2//fbbnTt36IqlXNLwkZGRMWnSpCeeeCIhISErK4vjOHAJuSUo6iaX+Pn5GY1GjJWFfEhwcPDatWuvXr1af4V+y2LgwIEvvvgiEtriCY91dqPDsiykg+Apbt++ffny5XTF1pVfh8a47gX0ev3MmTMPHz5cUFCAuetY/RKJRKFQkDZjirppsARBwM8kCEJsbGz37t3ffPPNNm3aNLwv+9dffz3zzDP5+fmIcaFXpm5WBiPwiKwVSTS2b98+MDCwRYsWf/vb39q0aaPVaps1a+bv7w/KoaBcUo9RUFCQkJCwd+/e7OxsjuMgcQrmEOfPy+r7UtQRiKuYYmJiPvzww1GjRjXg7/vBBx98+umnjEjDsW7WenhUxoPyy9YISCQSnuc7duzYtWvXLl26PPbYY+Hh4TQMQLmknrHIxo0bV61apdPpNBqN0+kkw+bQIO1wOKRSKUQ46KCqugyO42JiYuLi4pYsWRIWFtawv6zBYOjSpUtubq7NZkN+m5Qe1EF/UawfDIZAdA4lXgzDuN1ucbkEz/PDhg3r1atXr169WrRoIZVK6fKmXFKnkZaW9uyzz2ZkZCiVSkEQ0IWAvV7Z7mKmzABXiroD9I7MnTu3YbsjYmzYsGHatGnEFNTZoZwgDHCJIAhli80wZAWeilqttlqt4hf06tWrZcuWS5YsoeN+KZfUaVit1o0bNy5atEin0ykUCpRXir1yDEN0Op00WVJnodVqn3jiiY8//jg4OLjxfGuHwxEfH6/T6ZxOp3gOVV2DOMxFSEU8mpopbcZCWRqewc2IrZtMJouIiOjRo8drr73WuXNnWk7Z2LnE4XBYrdb8/Hyj0Zibm5uenn79+vWsrKz8/Hy73S6TyViW9fPzCw0NjYmJadGiRWRkpEajadq0qVqtVqvV93QBXb9+fcaMGSkpKTk5OaRan0ROMBabqv/efwOELS2xOPALlUolRH8xf6lTp07Tp08fMWJEI7xK165di4+PJ/00DXiJohjMbrd369Zt2bJlHTp0oPdIY+ESt9tdWFh4+fLlpKSkCxcu/PXXX0ajEQJWZQdNlytdBTvC87zNZouOjg4PD2/fvn23bt26du0aHh6O1oGaxYEDB6ZPn56WloYYLjwSpE8QQKC59/sPnuexBkDwaNAje9Vnn3129uzZGo2mcV4cQRCeeuqpI0eOIHBUZ8NcNcIlSGdClxPlFd26daM3SMPkEkEQjEbjhQsX9u/ff+7cuePHj6NaUWwXvMgdws8tm4sjAycwxZZl2Y4dOz7wwAM9evTo06dPTExMDZYSZmRkfPDBB7///rtOpyNVMTzP42SoX3I/odFoXC4XljqJjWAJCYLQrl27zz77rGfPno38Kt28eXPQoEF37twxmUyNwXWWSqUymcxqtcbGxvbv3/+dd95pVIHNhs8ld+7c2bJly5dffpmWlsaI1CzQmYEYkbiKg/gulR653OoUBFsBrVbbuXPnF1988Yknnqip7NzSpUtXrVplNBoLCgqYUpVyuuzu8z6U6PaT+eRYM1qt9tlnn507d24D6GOvEcybNy8hIaEOCqjULCDBIt6eyuXyZs2a/ec//2mcEc4GxSV37tz5/vvvDx8+fPny5czMTH9/f7vdjihQubEsL44IwuIV7f05joPz4XA4xNTC8zw6ClmW7dWrV2Rk5PDhwwcOHHj3yZXs7Oy+ffuiUNhoNEokEplMRou47hvwc6NzQrwMBgwYMGvWrLo/vep+oqioqHv37rdu3YI33yC/IwmDS6VSjUbjcDhgZ+RyeXh4uFarXbt2bUREBF0M9YxLBEFITk5eu3btl19+yZRWj4i3RSSvIJVKPcYLViVSJB7JUO7r0UhItFE90rOtW7eePHny6NGj7zKnYrFYJkyYcOHChby8PIvFQiL1FPfTO+E4Dg0K3bt3j4yMXLp06b1IldV3bN26dfz48Q34CxLzIs6tYp8XGBio1+ubN29OBe3rE5c4HI7vvvtuyZIlN27c4HkehIFREPA9FQoFwzBWq7Xc0C3svvh54pSIicFDuZ0QEviDpE9ImlEikaDayu1240mVStWuXTuNRrNw4cK7XF5ff/31okWLrFbr7du36cq7/0CQs3v37itWrIiNjaUXpFy4XK6///3vmzdvbsDfETOwEb3AqiCWhOd5mUwWGhr6yiuvzJgx5ctUpwAAIABJREFUgxYNV4OkZ8+efZ8/0m6379mz58UXX/zmm28wAMputyNv4XK5iOkXz4BCCIsRdbcyZfSCSNoDFCIOc+Ht5ElCJGAXoi4OCsE5INgFCdWcnJzc3Nxffvnl/PnzLVu29Hk4aKdOndq1a7d//35Eumj6/b4BIdPmzZt/8MEHS5YsadasGb0mXuxsYGDg8ePHi4uLG6pfIjYObrcbE+9xS7pcLolEYjQaf/31V6vV2rNnT9oqX0f9kg0bNnzyySdktrkHGdS1qEjZJ7VabVhY2LfffhsdHe3bYZOTk59//vn09HRBEDiOgxOGdgesaTpFseq/i4djqlAosJ5J+ILjOKiidevWbf369Vqtll7AqmDKlCnr169nSvOIUAC6n4XC2BHCgRD7DR6vwQ/t8VePYPXd+C5t2rQ5evSoWq2mS6IOcUlSUtKkSZOCg4PPnDlT7gvqBZfg+ebNm/fr1y8hIcHf39+HIxcWFg4fPvz06dMI3QYFBRUVFTF1WLuiXnAJIJPJ4FyKnc49e/Y8/vjjdINZddy5c6dnz55ZWVkkTnA/RbrEmQzYdFI6gZ8V/oS41535X0kuH4yJR8wczfMsy8bHx+/Zs4em1ir/1e7DZxgMhpdffvnll19OS0tLSkqq75fM7XZnZ2evX7++a9euvoWVg4ODN2/e3KVLF+hVgEikUimVCaoKBBFYESB95nA4XC4Xz/MwK4MGDUpNTe3bty8lkmqhSZMmU6ZMASUjvHw/VdyhtUWIASWXSHaCVMgQB/GSIAFq33al4vg5jgm6SkpKevrppxtqxK8++SWfffbZ2rVrdTqdw+HAiCEvC6he+CWCIAQEBBgMBrVaHRwcLJfLt27d6sOIJIvF0qlTp9u3b9tsNrfbjTAX1Xy8ex9FpVJZLJbo6OjZs2e/9NJLVG/cNyAwiGCs3W4nUjT35z4tO0MFGy9CFfBXyE/vQSHl6l9U6gyRehzxOQQGBhYVFcXFxe3bty8gIIAujFrgktu3b7/xxht6vf7o0aPER4bier3mEuhwkHiuXC5/8MEHR4wYMW3atOqaLYPB0L9//7S0NNJpTKW6fP6NECKXSCTNmzfv1q3bggULfK6SoAB27tw5evRoRhR9vQ/r0yOYRsovxXajokwJgBEPFdmZStdS2YEooKWuXbseOHCATtm631yydevWZcuWnTt3jmEYpVLpdrttNlvTpk1v377tZb9fX/wSPz8/g8FA1DiUSqXNZouLiztw4IBKparu7u+hhx5CMQLHcR73DEVVfiMSDOE4LjIy8t///vcLL7xAL87dw+12jxgx4ueff64Vd9nDt5DL5dAiIsMfsXtQKBRIbOBPd5lyLxdEHeOpp57avn07XRjl/173Yv09/PDDS5YsOXfunFKphHHEpqawsLABhK1lMhnGk4D8pFKpxWKRyWQXL17s1KnTnj17qnU0hUJx/vz5Bx54gGEYp9NJieRu8Nprr506dYoSSQ1a84SEhNatW9//Hnhkv5Cq4TjOz8/PZrNZLBaSgZfL5XK5HEV6ZrPZZDJZrVYQiUwmq+6WzjtCQkLgA+n1+nfffZcujPvhl2RkZEyZMuXkyZNWq9WjTR17ee/7/fril8jlcswmIa1MCCXLZLLmzZv/61//GjduXLXiXVlZWc8///z58+dpvqS6vxGuc4sWLZYsWdKvXz/aXFbjGDly5M8//0zqHe4Di5C8N6IaMTEx0dHR3bp1a9asWWRkZEhICCa6WywWg8FQXFxcWFh448aNK1euXL16NTMzk0yiq6nzwVY4NDQ0Pz8/JiZm3bp1VFf43nLJxYsXR40alZmZGRAQgNqkRgXoNmISRq9evXbt2lUtxcDr168PHjz4zp07NpsN20AsYqg7NMKlSRJsmB4m3prwPG+323meFwQhIiKiW7duK1asaLRy8fcamZmZ/fv3v3Pnjtls5nm+orL1imimbBZdzBnwM8gWSqPR2O12NC936dJlzJgxQ4cOjYyMRFmKl+Ojv1gmk+Xn5//444/ff//98ePHYdxkMhnHcaTxSKyGh8LfqtQ6477GPa7Vavft20d7le4Vl2zevHnu3Ln5+fmNWWkKQlshISF6vb5///7Lly+vlkjcyZMnJ06cWFhYaDAYIERGtIMaob8izsESeXCPFpyYmJjPP//8ySefpHfyPcXmzZsnTpyI1XiXcQWPFDemMLhcLpIwb9u27bPPPjt27Ni//e1vVTk+mijxABpIDMNYrdacnJxt27bt2LHj4sWLNpuN53mFQqHX6xmGUalUVquVuFlisqnILyE7G47jTCbTqFGj1q5dS53gmueSRYsWff3118XFxSUlJUypUFrjvKD47qgziYqKOnXqVFBQUNXfvnr16mnTppHuRUIh2Ik3whCWRqOxWq1i/kBVT0RERK9evVauXEnrau4D7HZ7p06d0tPT74ZLSEASrxQEITAwEH0beBAaGjpr1qzXX38dLoggCGazGVPsoMtZ7mGx4YCMHv4LOgHHmM3mzZs3L1y4MDU1FRNr0KqCLZparXa5XBhSVxHwYnIDkgerV68eN24cXRs1xiWCIHzwwQcHDx68cOGCIAg8z2OAYCNs4SYd13CHGYZp0qSJSqXavHlzfHx81a/n9OnTV69eLd6bN04iEe8KcUvjX4fDER0dnZiY2LJlS3oD3zccPHjw9ddfz83N9bmm3yPYhbWtVqudTmdgYOCMGTNef/11lDLCY0A8Ci+G4+LlrsFwbgSsEBHFe81mM5bQV199tWjRoqysLOzPSJEY7tZKa53RzoKlCKX6Zs2aHTlyhNad1xiXzJw5c9myZSSvLg71NOYwF3EpWJaNjo7ev39/1fW77HZ7x44d8/PzLRYLKh3vp3xF3QFhULRAoxktNjb2scce+/zzz2kH4v3H6NGjd+7cWeO1M7169Zo9e3b//v3JcchHoMJFKpXC1ajoc8VzJcRxJ71eD5Ujk8mkVqsvXbr0/vvv79mzB+wSHBxcWFjIMExYWFheXp53IsFpINBKeGj8+PGrVq2iC+P/X6W7efOUKVN27txJiESpVGIvgOhkY7uUWO5ELwh7H7lcnpGRMWDAgPT09Krb0K1bt2q1Wng5VcwNNsi4SmhoKAbMqFQqQRDi4+O//fbbpUuXUiKpFfznP/9p27Zttber/6tNQhASEiKTyebMmXPkyJH+/fsjlou2LbSjwdVAisLL8cXbVjJRAltkf39/m80G70cQhFatWm3btu0///kPvBaDwSCVSv38/PLy8rx/BCqMSV6HVB4fPnz4yJEjdGHcLZfMnDkzKSkpNzcXRBIYGGixWBwOh7+/f+Psk3A6nUql0mg0ulyuwMBA7JKsVivHcbm5uQMHDkxNTa3ioeLi4t58800UioCZGqH1VKlU+fn5HMep1eqgoKCVK1ceOXKEzh2pRbRu3XrUqFE+cInHHp/jOJ7nTSbTt99++9FHHyEfJpfL3W43JBSxCavifhT1e06nkxRAQtqOVIiRO0itViuVyvfff3/9+vWIU4G9AgMDvd9fKBqEn4TtnUKhcDgckPa4F92RjYhLli5devDgwatXr9psNlRBFBcXYxOh1+sh9N0IbR9mJkqlUmQUUZricDhsNltmZuaQIUNQm1AVjBs3LiIigpRgNkJhFbPZHBYWZrVaQ0NDd+3aNXHiRJpmr3XcJZejJgVzsvft2zds2DCmtE6XKR2CB3dcbKC9DwxGFyHHcWiMdzgciIyRGXcsy5KtLfa7o0eP3rRpU1RUFFS6i4uLvSR3UV1G6AQBLuwRrVZrVlYWdU3+/4/rQ77kp59+mjdvXnJyMlOauaqxsylP0I0M7mVKWwLL9kyJp12JvV0PDQb40WI1cvHbGV/VqiuFUqm02+0ul6t9+/a//fZbFTsh8vPze/bsmZubKw7R1uOlVkGfAVM6QJfcz2SerlarnTp1KmWROgJk8sodPuQduIv9/PwsFovb7Q4KCjp58mTr1q3LjYChVIw8T8q0yO0pnpcKZgLZkKmpBKRc2G63o5VYfLSrV6927tyZJOdJcRceeKToywVSelqt9urVqzTuWm2/5Pz58ytWrEhOToZBrEEigaHBJgVVgFhJarUaQXMyDxGLBssIHCOWDsWfCKMQkP4M0iHFlE4FRmoXxycbnJr6UjzPWywWl8vl7++fkpIyceLEKr4xNDT03XfftdvtuFvq+1IrK8JKtOIFQXA4HCqVChEJPz+/iIiIHj167Nq1a/LkyZRI6giOHTvmA5EwpRryBoPB6XSGhITs2rULNXjl2l/xPs/pdOI2h7dBNPCRjUdEBL4+irgg14RllpeXR4gEk3fFi7C4uPiBBx44dOgQdJ7AYeJND3Y2XuwAiESlUul0ut9++40uj+r5JYWFhU888QTi/gi/1OAu3kPzWSaTYYNApqr5+fm53W5xlRQWkHiyL1ateOQ7EaOGO4KiQyxN8kHiqtMalx7CNgoVCjKZLCIiYujQoQsWLKjiTThw4MA//vijIdXFle0zUCgUUOXDz6rVaj/99NNnnnmG3p91CoMHDz506JAPbyQbf5ZlN2/ePGLECBJj8L6dh5AEy7KYOmo0GrOzs5OTk1NSUvR6fUhISHh4ePfu3Zs0aRIQEEA2mgzDkD55m82GHSdGnmDvCIpC98L+/fuHDh2KMyS1l8QKeakVRg98QEBASUlJ9+7dfbsyjZRLEGdMTEzUaDRmsxmKBd5Dmb5ZmbJ7cAyJwqli62qz2RQKRVhYWHR0dFRUVLNmzcLCwgIDA9FGa7fbTSaTwWAoLCy8fft2bm5uUVHRlStXxMuCDNshmyBxWKxmtbXFKxWi6GvWrHn00Uer8t6srKx+/frl5uY2mL73ssEuVGfK5fLWrVvHxcUlJCTQsv26htOnT48fPz47O7u6VYW4lbCLX7x48YwZMywWiyAIuKk9uAQhLJfLZTabOY5TKpVms/nEiRMnTpzYu3dvdnZ2Tk4OU6rt6HK5sAv08/Nr27Ztr169nnrqqW7dumHTCTuA8bq47+CakFaVoqIijUYjk8kWLlw4c+ZMqVQql8vNZjNMAWyRly9LvpfT6WzevPnevXtbtWpFuaRK+OKLL9566y30deMKgk7uRU8istbEsuMXlUgkGo0mKiqqa9eu8fHxY8eOxVIQR1qhc+CxOi0Wi9VqvXLlyoULFw4cOHD27Nnbt2/DX8ZGBjUkiNfVuHci7orC6g8MDAwICKj64vvggw8+/fTTBhtmLR2yFB0d/dZbb/3973+nhrsO4rnnnjt8+DAx39WlE6lUOmjQoB07djClEu7lEgnDMEajEdVcDofj1KlTS5Ys2blzp3i1YAsrzq5hjCby4Y8++uibb76JrD7ufZSNMaXdJ4RLLBaLUqm0Wq0KhaJPnz6HDx/2OO1KhYuQB8LRxo8fv2LFCsolVQqVvvrqqxkZGXK5HG8h17GmzG5FaXyWZf39/R977LFx48b179+fSJKA0pBLIONa8QAio4jFl+1jMpvNN27c2L9//3fffffHH3+QzxXL8tT4zB9svZVKJcdxqKJ++umnN27cWBX9R5vN1rVr16qXFNcXd4Q4bQzDjBgxYtGiRcHBwdRq10FYrdZHHnnkxo0bPrQ6wVBotdpDhw6Fh4fDHfFoKiRcIgiCwWAICAj47bffZs2adfr0adh0jUbjdrtLSkpIbwdyqOJhvUQGVKFQNGnS5Ntvv+3duzfudzSIFBYWYoGZTCaiV69QKBiGOXPmzMiRI3U6nXiGEFpJvNgBfDXYirZt2548eRJuUOOEdPbs2ZW+yGQyPf300zk5OZi07Ofnh+g2iqxr6lRIvRb27wzDBAYGtm3b9vXXX1+4cOH06dPbt28PQRGWZY1Go0ajQZwKoU+SdSePieUiyTQiJxcWFvbII48888wzY8eOvX37ttPpLCkpIVOjsS5r0DWRyWQmkwkCpejAEgQhNTXVz8+ve/fuVbkbmzdv/v3339d3/8Pjv0hfPfjggx9//PH7779fszMnKGoQZ8+e/eKLL3xrGlOpVHa7feHChf369UOprtvthuRwWaeEYRilUjl//vw33njj+vXrSJbY7XaEFlAag9AT0UqBphYqu8h+xWq1fvvtt8HBwfHx8Yg6sCwLGkNgCnc3x3E4k8jISLPZfOzYMaRSYATEyddyQWiMZdni4uI2bdpEREQ02mVcJb9kzJgxe/bskUqlkFojFlm8KaiRuBaJO0kkkr/97W+vv/76q6++ypQWmIMh8Il4QDIcxCkhWbWyk8DJOgP/kUUpk8lSUlK+/PLLtWvXFhcXq9VqiURSgyMQWJZVKBQWi4UoocIT4nk+PDz8p59+qsqseLfbHRsb61sVTd3hElJbgaBHbGwsx3H79u2jcvF1HMuXL3/nnXcq3adXhI4dO/7xxx9IfZNqyXKdEoZhxo4du3fv3pKSEiIRq1Ao8Llk5woTLzY+ZQMJqHZ5+eWXly5dGhAQYLVaMXYI5yCeFQ85yOLi4vj4eDLhlBFlUiu6r0mBMjnV+Pj4wsLC4cOHjxkzpk2bNo2qza5yLtmwYUNCQoIPOTcvNgWLANJVEonE39+/uLgYexCLxRIfHz9nzpynn34a+3ePIEnZJciUZkrQIyleYWQvXFYbjhwZglcMw1y/fv2bb75Zs2bNrVu3YO4h/M6U1haTqvYapJk2bdqcO3euKuMmjx07NmDAACKtytR0c08Nfikxx6NTBHrgJEDhcDjat2+/dOnSKhYgUNQizGZzp06dcnJyMFakolvAYy8ormE5ffp0p06dOI6z2+0IksNFKC4uhkJEfn5+aGhocXHxCy+8sG/fvnKP71vMWS6XP/nkk1u2bEFYDPGMshs16Afv2bNn5MiR4u/oQ18XebtWq33ggQeefvrpxx9/PCIiosGHvyrhEovF0r17d51OV4M2C9caBoUYayLV/sknn8ycOdPhcBgMhuDgYC9cAnVPMsiz3MVH8ijeTwn7HQTuL1y4sHjx4o0bNxJL7SEpWoOBLxR3vfXWW3PmzKn09YIgjBo1KjExEUW0uG51U4+5bL040pgqlUomkwUGBg4ePHju3LnUHakXSE9Pf/DBB1GIVZU8ItYk5gUYDIb+/ft/88034eHhTGmaBC2EuDdJxsJqtb7yyis//PCDzzrE5RIJCj5ffPHF1atX22w2yBLDrSET58jrSc+D2+1GX5dvG2iyhSJvb9WqVdu2bV955ZUePXqAPhseKunI+9e//pWSkoICiZr6SJfL5efnBwsIg6hWq41G48iRI69fvz5z5ky9Xi+TyYKDg/HXiqBQKJC4FjcokdGe4g1yVVY/y7Lo4XjooYcWLVr066+/hoaGItqLDYVcLoeWfk1dB2zVXS7Xpk2bsrOzq7JAp06dCnkJs9ksFsGuayDxCoVC4e/vz/M8yvzNZnNgYOD69esXL15MiaS+4MSJE7izvCcPmNIaSI+b7qWXXgKRMKJoM1TisULw4NNPP920aVMNFr6jKwVNJOvWrVuwYAEyNwiA419xQ5vT6QwODn7uueewSSWOtQ9xFzjipNFSJpPpdLqff/75xRdfjIiI6NChA1RxSYCh4fsl6enpAwcOzMrKwjKqqRgX2eDAxEgkkoCAgLfffnvWrFnYRMAfwm/g3RaXfQHSccS/JjFNL2uC7IyY/+2fSklJmT59+uHDh5Hog25PzRZ34VIEBAQ888wzX375ZVX8p0GDBiUlJeH2q8va/h4RbSSHJkyY8NZbbzVCrbZ6jTFjxmzfvr0qTjBCDuIYUWRk5NGjR1u2bIm7Ff8SlRQSXt62bduECRPMZrOfn19FY/Sqe+sRoXg0qUil0qNHjz788MNkapbHkdETffP/sfflcVGV7ftn9pUdXIFRUVFIERVDM/e9UHNLc8nUerPNXMrCUstCbbF6336ZLV8rRa3EfcMNlVTEBTcwFhcUN2Qfhtlnfn9cL/d7YhlwHIYBz/1Hnwln5px5zvPc+31d16+Hhobij+gUeFi9hwazKu+WVBOWSKVS+fv7jx49um/fvsHBwQ0dW92WLRk2bFhSUhLUlsNRqpDdcnd39/Dw+PnnnwcNGoRKOAUTeN5sRV9ZsdIsCLsnGAaGivC1j5bwbdhS1An23nvvrVy50tfXFyndvLw8x64A5fcOHTrUq1evGj+VkJAwZswYxOBYK4cP6j+isLvy4TEIBIIWLVps2LChU6dOnGpucNKxY8dbt26xvbQazQkCfYPBMHfu3JUrV4pEIgCZsLlGmHIUdx6P16dPn6SkJPIyHWJLKB1HxPJPPfXUX3/9RSERshrUy0Pu6ejRo3fs2AHglkfBwQNyB90GjeYQMhhaYVEkhl2ZOnXq8OHD/fz8GiK6V7WqNjEx8caNG2g6QjHNsf44mr7btWv3119/wZDApNPEKWBOKhsSa7mgUkL4Xait4SFBl+GeTSZTaWlpSUkJ0l+VcSE1Gg38F3IrsPny8/MZhlmxYsXu3btBwJ6Xl1edYbNDaKgFjtjKlStrYxX69OnTtGlTvNM1wYORlcZrHx+fZs2avfrqqxcuXOAMSUMUZI8p51MbDc6wYHKeeeYZjBYS8Du7gUUgEIjF4p9//jkpKcmBJ6uCbUO6yc3N7fjx43/++Sf8G0ppsA8RtMeLL76IJJV9OHiEJWg0GnU6HbqZgauPOgp6EPDNeINQKHzw4EFSUtKrr76qUqkGDhw4ceLE9evXX716tQEBhFcdl5hMJpR5K9efHZLHREt4r1694uPjAYiCoASt2VUmryq7J8iHYjSJYZjCwkJgR8MgKRQKd3d3+EfsUfYKe53tIul0OszA0z8hg6RQKBITE0eMGMHn80tKShy4+kAKIi8+Li5uxIgRNX5q2bJlMTExKO65WlBCmTfsHJVK9fvvv4eFhXFKuYHK/fv3W7VqRXkbG3qgQscwn8/38vJKTU318/OjD+I9aMTH/5aUlPTo0SM9PR0OnFAorK5kYp9WJXZOHOrQ0NBjx44RYQmCLUw3I0iyWCxFRUUhISHFxcWP0tiCo41EWZUuLPNP8GP2b+Tz+WKxWCKRqNXqbt26RUVFjRgxok2bNmh+a2C25MKFC5GRkZSEcWyzEHTNSy+9tGbNGlh+dq83zRXChleej6V1T0lJSU5OPnHixNWrV+/fv5+bm4seAWwLoVDo5ubm7e2tUqnCwsI6dOgwbdo0thWhF9hAlEUlLFKk1zD3JJPJzp8/P2HChOzsbEfRfGFVaVDGYrEEBwcnJyfXmDbNzc197rnnzp07ZwPFvR4FR6h169bvvvvulClTHBvRcuJkSUtL69atG1K+cNSqqx9QModwV8PDw0+dOkWHGl37zD+xTOLi4saNG0ekAyhcO8qWsHv6xWIxRkwOHToUHBzs6+sLIBbq3xGLxehR1mq13bp1S09PJxCNh93/VXp4hNhEY5JYE9KuyLIQXhQtFOIYlUrVvn37iIiIfv36devWzQUnIquwJWazefLkybt27aLfTDgBdoQglNAHoKa7u3tJScmsWbO+/vprhUIBfU2j4Bhrx2fZVoSKHxqN5tKlSzt37ty/f//58+fZKS92vFLlzfj5+fXq1WvkyJEDBgwAZSH6sjA/iOsSvCh7x+O1SCQ6ceLE9OnTMzMzqTADm4dRRDtWn0oL8OLR4zR06NAaP/juu++uWbPGOeSV7BlDFE7ZJDHskRFyFEaPHv3pp58CV5yTBi0bN26cMWMGMHFrTE6QloB3+Morr3z33Xfowa1wKul0T548ecOGDQ6EYqox+TZr1iz0B+Okk4WDbUPu/aWXXvrll1/wq+tNNVdfNwoKCurSpcvo0aOfeuqppk2buoi7VsVNXLx4kQwJU84pYp8hgQ6CCS0uLnZzcyspKXn66ad//PFHhUKhVqulUqlGowEsCoFuajQa9LwCcQREjSaTKTY2dsCAAT179oyJiTl//nwFE1Kj5Obm7t27d8aMGa1atZo+fXpGRoZUKkWPFvEcYHuhgEEOAtXhe/XqtXHjxoCAAHaICvw4u3U0HS2GYYqKitatW1ebXzRhwgSDwUDUC3UqsKPEUYrpZUJCY8qnSRiG8fb29vX1XbFixfr16zlD0jgE3eoVuD1s5J/xBnh+LVu2tPEp4Pimp6fDY6NcdF1Leno68hB0itm4GDhQLVq0YGpXH6oXuXnz5r59+1566aU2bdqEhITMmzfPxlxOfdqSb7/9ll1aoL69hxVKktKUu1qtHjp06L59+7RaLaphTDkbFbwePFqFQgHzA85nd3f3NWvWREZGzpw5Mzk5GaifbENSS3MilUoRBCiVyl9//TU4OHjs2LGXLl1C1EX2wGQyYfSBtCcWAc3gXbp0wWyEt7e3VqtFcQURuh3rQ+kCQpWIi4s7efJkjZ8NCwtTqVRUwatr/8hgMGCVcNhMJhP+wpQzmCoUCpVK1a1btxMnTsyZM8c5SoETJ8jly5dxKJC6rH1/kcViIebE6vYVyEjgyTltz5w/f/7WrVtIYtORp/vEbYSEhCAEd8EnAghLlHIFAkF2dvbq1aunTp0aERHRt2/fd955JyEhwYEQUPbbkoKCghMnTlBjrt2ZSrYgkVVWVtaqVauYmBi5XI64srS0FFmmoqIimUxGATJQ2woLC0tKSq5du9azZ8+5c+empKTAIEGRIdNSIbVV4xyJRCJBJIR37ty5c9CgQUuXLgV5BuF0MeXdivTzxWIxplX1ev1zzz23YsWKgoIC/C/uwY7hG9Tl2CRuoGZZsWJFjZ8ViUTjx48Hk2hdbxEC/5dKpaidkgFDBZXP5/v6+n7yySc7duzggH4bmVy7do2pnhu7upwMjk+rVq2q83XgaF65ckWr1ZKP4hzdXVxcfOnSJWLNwpGnk0i2RC6Xu2ZcAp3DsEgnoc0yMjKSk5O///77ESNGREREjB07dvPmzTdv3nRavFLRlnz//fc3btyQyWTsmU/ySR9KxGIxzQx3/AgdAAAgAElEQVRilPSnn37q2rXrvXv3EJGYTCa0YCEKwa4qKipCRsvLy+uHH34ICgoCKhyiClhjmUyGoKFysaTGx0Boo2gWLC4u/uGHHzp06HDkyBGFQlFWVma1WouLi+Fus38FRC6X83i81157beTIkfhX3Lx987FMOR8DVgPeX1FRUW26xYB66QRbQvEHuuZw9sAcY7VaAwMDhw4devLkSZDlcdLIBGeB0ly1tCU4Ys2aNbN9MOEgouhILUxO+FGXLl3CEAxFJGwALoZhAgMDgS7smnGJRCLBRATana1WK/6IJyWRSHJycvbs2TN16tQnnniic+fOU6ZMWbNmzc2bN51nS4xG42+//UZuMlNOPvhQZQn2t0HvwNOfP3/+wIEDTSZTs2bNNBrNgwcP4OkD85ng3jw9PQsKCkpLS/v06fPOO+8olUqj0QgbwE65VDa2NRoVoVDo4eFBbcdUDiksLCwoKIiKilq+fDlGhzw8PJhyMkd0DcIOwdKgTvjrr7926tQJaNgYPrLP36+QTjQYDJcvX968eXONHw8ICGjbtq1je5RtbF8quSPELi0tNRqN7du3j4mJ2bJlC5HKcNKYBE3naLKvcciMEs5QGnK53N3dvXLVnR27XL16FafJvsjePhEKhTk5OZSII3+XnZ0Dn4VrPhS9Xq/X66lyCW9Sp9PB1cN0HbIFYrFYKpXevn17586d8+bNGzJkyMiRI5cuXbpnz57i4uK6tSUpKSmAXGaba9yrHX43UkNw/5999tklS5aAtBlq2s/Pj2EYg8Egl8vRmQdYLbPZfP/+/YiIiJSUFJlMVlpaSoNvMpkMTbr2xcIgKUFVn6rWVqsVCJImkyk6OnrWrFk4EqisIJzEb5dIJEjEod/D3d192bJlYJl2d3e3I5CkwwMXiZqStVrtL7/8UhufyPmM6AqFAusTGRk5fPjww4cPjxkzhtO5jTvHRbwgtXSYUFnBUbWhHKxWK9QfvhaNkU4IBQhcErcKPcCGGquxI7R+hQYeoT8BQwWSPbBawPYDGkOtVqMoIJfLs7OzDx06tHLlyrFjx/7yyy91a0t+++03KDVaYnKf7bPSKGwwDDN37lyFQkH9WjRGi6sgXhOJRCKRaNeuXYMGDbp+/XppaSm0LVWZMEHKlFOP2HE/uAGLxUKVdqvVWlBQgPkpHx+ftWvXDhs2LDc3FxEuupWsViv47fFZpL/4fP7gwYPnzJkjk8mKi4vtGCMiYh88dcSq6GY5d+5campqjd8wdOjQOpoWrtLlBCabwWDo0aPH4sWLt2zZggCOk8YdmpDTY9uWVKiwIrNdpduH7QQ6d4ZhaA87ZzNTEzAohZhKOXx4qy47cI4nQplnlDDRzYQyFV4w5SVktupGsUChUHTv3r0ObUlJSUlSUhKSP8CKwQ1BlduIQHnVCLVvL1mypFevXsQbAzeHADtRQsfjPH369NSpU+/cuePu7s78k3Sd/Rpq17bLU1lg2yq04VLYa7FY8vPzhULhwYMH58+fX1paSoELHAH0KNMf0Sk7d+5cmUwmEomI2Zf95Gps7qr8Q/DNVqt148aNNT68iIgIjGfikKM2/ihnkk1pTOlXKh3xeLxmzZrNnj1769at/fv35/Ts4yAhISHU0oKYvrp3UsMnnCS1Wo08RJWjadhaPj4+lANgv3BsFIJTScBLFoulZcuWBCMLtYDtDS0HJxLgMfWIQ2pDj7HX3EaShohiJRIJsYrpdLpmzZp169atDm1JSkpKamqqA7OEIAAICQl59dVXyfJT+yy5ujSmfv78+WHDhmk0Gg8Pj5KSEvyTc7Azqe6Hi27fvn369OlMeVWQYOkkEgmmScRiMQIppVK5bNkyCpnx5ATlYl/ADvt64cKFGt8plUqHDx9OPhQ1eNjdD4PzIxKJMERJmK/gN+3evfuaNWtWrVrFNWs9JgKPkFQYu4WvOnPClBcj9Xo9eh2rE61W27t3bwx1w3d0bMcRzBg8M7PZjNIC7r9ly5ZoG0NNl4wKWY5bt27VkqylQUSWIDGDihAIBHWUz/ifLVm/fr1jU4SINqZMmdKsWTOa+CfwGWSrYG+EQuH169dfffXVgoIChUKBuhDAop3Q0EYwCXRU1Gp1XFzcsmXLCDcCWx8xChJleL/JZHr11VcjIyOp7Y0CLxSr7ehLQfUSwDA1+lyjR4+m7kY2E4N9Zw87DFUrpVIJPSKXy9u0afP888/v3Lmzb9++nIZ9rATUI7VRCxTU0um4deuW7fdHRkZir1JE4kDfsYJHBU0C/r0nn3wSyXw6R+Tgo5fy0qVL6AlyzRET+3xlNF5aLJann366Lq7Cp4slJyc7tsWbx+MFBga+8MILNIeIhmhYew8PDzgLQNNcvnz5qVOnfHx8MGWjVCoxiOeEGJMdOQKZGJX5xYsX//nnn8QTLJPJsDjEQIXl4vP5c+bMQXBACWXS5vbZEqlUmp2dvW/fvhrfHBkZybBYv9hbx46zx8bxLC0t1ev1YrHYz89v48aNq1ev5tirHs8cF5u7wcZ+puAeI8ZWqzUzM9PGNwuFQnd3d29vb09PT7Iljo0D8G3o4yfr0r59+w4dOlQIRMiPRCx++fLlxmFFmH/2i2JNunTpUoe2JC8vLyMjAzvAgbZk3rx5KpVKKBSi6MKmtYA3XVZWJhKJvvzyy59//lkmkyEoFolE1EblzE5BbCydTodykUAgWLhw4fXr18FjiOwcvBu6Kwzzjx49OigoiLwtOnV2gyvjKiAgsi2BgYGtWrWi4hM9PjtyleR7UqDWt2/fDz/88PLlyxxc/GMrnTp1Yk9+2LAlODVQWzggGRkZNX7/kCFD4GuyYSYco9r4fCrzUNVTKBR27dqVSFTZHCfsJqOrV68yrsrpYIePSCkTgUDQvn17f3//OrQlR48epbjBUV8tl8snTZqE54TkCXX3kubCWM0333yDfBGpM4SizunJI8BO0vvY0AKB4NatW4sWLeLz+RiCRSDFlI+eUFQulUrnzJkDzhXEyEx5Hd4OW0JxT3Z2do3VSKlU2rx5c6weG+DLjqWjj6CG/9RTT33yySfz5s3jaBAfZwkODmb3NdVGvWL0gWGY69ev23g/4O/GjBkDUGGHs00j7UyHEUiyJpNp2LBhld/JlOPjYVA6KyvL7ryCCwrqu3iOTz75ZB2d6P+u1MaNG9Hx6UD1PWLECD8/P2wsEBXQYyssLMR/BQLBggULgN4IxGn8cpFIBG/CmdDKtKUA+WUwGHx9fTdu3Hjo0CGGYTQaDXu7o1GYApFJkyYBzZCqF+QO2GfbhELhtWvXMO5jWyIiItixCLpu7IjnLBYLpkd9fX2//vrr/fv310XjICcNS+DDUpnThm2g7UebMDMzk6YCq3t/ZGSkSqWithE7Zn5tb2maI0GsHxoaihZE8mvZqPK4hxs3bqSnpyNkcVl4x4cSNo795MmT6+gqfGi91NRULLoD1+7ll1+Gqw6T6O7uTnQdXl5e+fn5Xl5ee/fu/f333/FrMVAN0HLw70okEujrul5otF0x5aUCTFGIxWIw8q5atQpcgUAVo95tRCcIHby8vDp16oTwiw1Baoc5wRfCPzp79myN7w8JCcEV6SfYZ8OkUmlRUdGoUaP27ds3a9YsjneEE+hcEDSwta0NV4zAtaxW682bN8nBry7+DggIeOWVVxA3ODbHRbgVuDeEQdOnT/f19cURwzGne6a6aU5ODtpeGochQSsmzCoAWOvQluTm5t68eROQWfbVilGgpg5uq9UaERExcOBACiyIgpceGFA3vvzyS6a8eQMPGHlMbIK66DevLqVIe67C2fDw8IiPj1+7di3wcWnqgn6UVCpFNP3CCy8APpKoEezDniFwSYZhEhISanx/x44dAZuPGRdKxJGBZMqLN+T3kbXz9PTEaCqPx2vatGlsbGxsbGyrVq04HcoJeRg+Pj6Ukba9nyvQkPj4+OzevZuKEzhQSH4QkKJOp3vnnXf8/f2pgIFdyg5QavSN2FudBDDehJoqEolatGjx1ltvMeUodkg/sCMq+O87d+5kWPj5DV0oQVJWVubv7193HTR8hmHYvaePUium+Qwej9erV6/q3kwka3v37r106RLDMPWCkFybeEUkEiE1FxcXh5atKmva+EVdunTx9/en6VMKq+2wzfTfe/fu1fj+Vq1aoXeZXAFcF6cauC/UpmI0GtHpCHiboqIi3PDEiRPPnTs3ZswYDi6ekwrSrl07qina3rdUVpFKpXw+Pz8/Py4uDgwoFQQdg2AwYhhm8eLFRDMBCD5sVPKubOe+qhvZQzrBzc1Nq9UajcY1a9bY0G9oYMnKytq1axdTzv3eOJ4g4Zj07t277q7CZxgGBIV2YziyVSqKLnw+v3KB63+XLG8IWbt2bW5ubi1dj/p6BoC0O3To0NmzZ6sM2ujO27VrN2DAAOpSB/+BHb+LmmF4PB6wZGy/39fXF3ErZbeI69BsNmMsBv+rUChEIpHBYACXJTwUlUq1adOmn376yQVZPzlxBenTpw9wR2y3ybJPB1mCGzduxMfHK5VKApKg/xqNRmDwmM3mWbNmzZgxAzamtLQU+W0kuqVSKQ0V1kqjsXK8CInUarVQKIyOju7Zs6cNXG2c2f3792dkZNjH/ueyQsMVNtSyY2zJqVOnHKLKyTvw8PCw0cIMi1VUVHTgwAH8QprhcCkBQbRQKARK3bp162zAbmMBMcoHV4tmNeyzymgpycrKslG9pMMDGjimvDu+womSSqVobUAhSiKRaLVad3d3T0/PPn36nD17dtSoUVx1hJPq5Omnn2b3RNmOpykyBhiEUCgEjCDBF+EQUX8NU14jWblyJZIZEolEoVCgGo+jVPs5M2x72vnosWQYpnv37kuWLFEqlTbQxBGvb9myhUyLc0A3nGNL8FxCQ0Pr1pb8/fffZIftMyqELI2N0qlTJ8AAV/fDeDzekSNHQFXCuGqNi3JNeLF9+/YHDx6ghFNhL1LtjhqfCHzUjp9WYUYEZES1SXPhWgRRg0wXQisCfpbJZHq9XiaTeXl5rVy5Mj4+nt2ozQknlaV169ZBQUHkptRoS6joDUlMTNy3b5+3tzeUA5EXMAwjl8vVajXYjMxm886dO3v06KHX60tLS7GNNRoNfDIbl64Ay0jpXLlcjgG1iIiIv/76S6fT6XS6KgMOnHGhULh+/fpTp04RXLHdbSwuJVhJHo8XGRmJpa5DW8LmwLBv7Sr4AgMHDrTh50LDxsXFEUeWa46YogJBW//OnTvp6enEDl3lCrRu3drT0xNblmFRST+K2AaigAQFBbGvRQDa4B3R6/VgWAGYWHh4eK9evc6cOTNq1ChOUXJSG2U0ZswYagu2ca6ZclJU7H+aBPzkk08YVl2dz+cToombmxsQTt3c3Ly9vX/88UeEQSaTiVCoiV3btu/F9vwwB80wTFhY2MGDB0ESATyuCiqOABBNJtP333+PiArOMXjzGvrjI4CliRMn1umF+EAFJm1uX4gAX4C6ivv27Wv7Gdy9ezcxMZFA1xknsj3bYdLJSUlMTKT7rPIHymQyRJGIyh+xDw3BRG3Y0DCuyP5UhZtUKBTIJHTt2nXJkiW7du3iAFE4qb1ADdVYLyFSDXIrRSKRWCw+fvz4xo0bKVDGyQI/t9VqhdPGMExBQUHnzp23b9+Oy5WVlSFoxjtrk+Ai7SmTyTC7duTIEbFYXFpair4sdhNwBfW1adMmqok2pg4UQjwbPnx43doSvV5/7dq1R2mAo2EfavYICgqy0cJksViysrLu3LkDHYdcnguGJjR/jsypyWQ6ffq0DUMCYN2QkBB2gtJuDl20IOOA1fhmDw8PtFqiQErGjx1jqVSquXPn7t69e+jQoZxy5OShJCgoSKVS2a5bUL2d2h3h42N+KyYmBl0kRqMRHVOINgg4nGEYLy8vwIRv3Ljxhx9+8PHx0Wg0xDlUo9tH3UpisVgmk61bt27p0qVKpZLP5yuVSh6Pp9VqQZxaOS6xWq1ff/01sAHpj8Sf3aAFKOyBgYFUVa0rWwLwHMK+tbsGy+Px4IYHBgZ6eHjgCyvbJzyhy5cvg3WxpKSkNhulvp4BuSfoqvr7778rJPQq2EiJROLr64s0K6ypfaEJ21bVpl7i4+MjkUgw3sgwDMbXcZgVCgWPxwsODo6NjY2JiaF/4oST2otEIsG4OEW9FY4ATTDgIMAJo5ktsVh8+fLlOXPm4J1U05ZIJBqNBtEJMN7xT1ar9eWXX758+XJMTAyoPGlMDZhaxEoCtjpcCxAbLVu2/Pjjj+/fvz9x4kS5XA49Q2kDOpK4N5DdCoXCadOmseeCcf/0Q6rTeFVKfT0jXvViNpu7d+9e12BI/Aotp3bkBylJhRfgT7SdEMPYBLrRXTkjSUV1RMGFhYU2QE3wqJo1a8YvF/tsc4XtSET3NRpyENWBwR7emUAg8PX1ff/99w8fPlx3866cPA7yr3/9iynHaoOGYsO22z7F6BvcuHFjbGwsPlJSUoJdiiwWrAhav2AnTCaTt7f3+++/f+3atXXr1g0fPrxly5ZIDxBsoNlsBpq4SCQKDAycNm3ajh07UlNTFyxYQMSplQUXEggEarVaIpFIJJL/+7//27ZtW2N9cKieDhgwoK4vJMSEByHP2KHZUc6iOpunp6dYLK5c42KbK/ja7LyW3ZC6zpSioqIrV64EBgZWl5ViGKZNmzaPODFLgz5YE7C52BaQTIARGczPZWVlRqPR39//t99+69GjB6cKOXlE6dKly4ABA44ePUr7E1uUvWmrOxcWiwXsdjNmzAgLC+vQoQPIr/Lz8z08PDD9jn3LlOeHgcmN4vyUKVMAKpGcnHzixImbN2+WlpYC/tXDw8PHx6dfv36RkZGYLEaeAxFJdecLmSs3NzeDwZCSkvL66687cCzRht6rx8fnDFty69Ytal21W6FTLwTDMESvW51LzuPxbt26VeFartl7R3eI32I0Gm10VeEnALzoUWwzLSmeS3p6eo2cWjRsrNFoELb7+/tPmzbtvffe4wZHOHGUTJo06fDhw+z2E8Kms1HyxO6lozRkyJC0tDRPT0+NRgOOXp1ORyNZGJhHJ6RYLIZXitq7XC7v169fnz59iAyJOHdpk0P51KjT0aMlFArz8/MnT57Mpu5+dHG1RIvVag0PD6/OA3Zkjis/P/8Rh0sqSI3zCnw+v7i4mHJirvkAKp8HHCEblXAsY5MmTYgT3gGPp3ZfZbFY3N3dNRqNTCYLCAho06bN1q1bo6OjOUPCiQMlKiqqa9euZrMZbFdslW27dwYlE7QCFxYWDh06NCsrC4oCvOv4EplMhoyuVCrF5KBOp7NYLEisIZ3FlM/GE6w4Ruh1Oh1BTsCdspFdwCUuX778/PPPX716tXHjBlmtVttDGg6zJaD4fpT8ErsVj8fjwcWw/XjQq04T2q5pSyrPQDE1VS/w86mRwT7zTM/CRmxXQWQyWUlJiVgsbtKkybRp0y5cuNCxY0dO93HiWPHw8ED9nEjqUACv8fAim4Q3GwyG5OTkOXPmULM7vgraXyaTofULmx+QDQzDgDEXZUipVKpUKtH1q9frwacHe8MwjFAoBJJjlbkTq9Xq5eVlNBqvXr06b968xMRENEzWBf+56/jBQ4YMccKF+IgiHyU4IGOAnCmb87k6QQ2N3TnmgraEAnP2Hdr+XYj6aWzQblQfumItbYnZbG7fvn2/fv127twZHR3NaT1O6i406dmzJ/VeVgAGrlKkUinAW9FQBKTtPXv2DB8+PC0tTSKRYFZaJBKhGo+SPuUtEGTI5XI0E+t0Ova8gVAoJBw5vV5P04U24hKTyXTixIlBgwbBkLi7u6Ng40Af1KX6uxiG6dy5s5NsCek7+xQfwezgBSZIbfMc0Fg/46qVEnZ8gIFKbG4bLWqIXdAy/4jmmR3W1MacmM3m/v37b9++vV27dpy+46TuRCaTDRo0yNvbmzYndriNcwE1DXI5hmG0Wq2bmxuPx0tLS+vZs+eWLVu8vb2Li4uNRqOXlxfZCZPJxIaLR7MW4g9cC7ELwGTRDSyRSACdhzpKdfezbdu2YcOG3bp1C45vUVER/D8H+qBVSn09suDgYHYZqQ5tSYsWLTB/jljVjtQhAMzBZMXn8zUaTZUcUNT+iyiVlDX+6IJEsLgxuVyO/Y28nI+PT3UBCnb2rVu3HpEkjsqYCOFrQ6jl6en59ddfc5qOEyfI+++/3759ewQcpPpr3KLs+nZRURHUfUlJydSpU996662SkhLQ9MJOYP+zdQKBsqA7H5qKGNoJlwVFe1Dw0dCuXq/XaDQ8Hu/GjRtTp04dP348iitspHrbfVy4EB1nqC+wNB0/fnzHjh2ffvrpyJEjO3fuTO2X+HJyr6lJAQYYN49ZGfw6YASwlxF/ZMobpnF1G+tcIT9ktVplMpnVah05cqSTyM6BpUE8MPb50WxkAnARVtkXS42DGGakgSDGhSnMaJPhzkFZakNyc3NhUxGfPUo8hBetW7fm9BcnriM8Hu+bb74ZP358dnY2GnnVarUdM7lGo9Hd3b2kpOQ///nPtWvXXn/99V69enl4eCBRTDkuGCEgy1WI1KGvkS1H0xd9OTSvyWQqKytTKpUikeinn3766quv0tLS7PjJIHjFVCN6wNzd3dVq9W+//Ya+zUGDBpHSw2qo1er8/Py7d+/euXPn5s2bBQUFFy9eROriypUrsC6kbEH7SFkQXAUkLoi0aHlt9MvR3zGzTL77mDFjnLMxhN7e3uzecPtmFfEptGFUR9/EvopKpULcR76Dy9oSGDw4FO7u7rZr2uAlBa47pj1s9N3XMjAiZAhOOHER6dSpU69evbKzs41Go1artXuTYxxELBbv3r179+7dY8eOXbx4cXBwMJCHAEqEcggaKal+zp6PhgmheAWmBT6+Xq9XKpXJycmvvfba2bNn7U71EFO4WCwGSlhJScnMmTPZ7MXkTLu5ubm5ufn6+lbpBZrNZrVafe/evRs3bmRnZ+fn51+/fr2goODevXsXL17EqWcXb9hAsRj4t0FbXsGF1Wq17du3f+KJJ5xkS4BU8yi2hOZU8Uvy8vIA1lZlxQl/CQkJwXQSxlNrU8Gr30wX8sItWrRQqVQ2lojH4xGLHCyl3fUSuq5zcp2ccPJQ8s0335w9ezYjIwPas7S01A53UKlU6vV6ON1isXjXrl179ux59tlnn3vuuREjRiBGIZdOIpFApVClBG6WXq/HWUM7FuyQVqvNz88/ceLEt99+m5iYiKNUUlKiUCiIBbz2QQnukICRNBpNaGjoZ599Zse6CQQCT09PT0/PDh06VNAz4J/XarUlJSVqtTovLy87O/v1118nb9t2gwAsK0HuQ9N26tTJaeUDIejKK2BEP5RQ5QorrtVq7969i1xQhUwXfT+8e6rN1EjZVo/hPBKgsArt2rWrcYnu3r1LmbFHmf2kpGfLli05zcWJq4mbm9uXX375xhtvaLVaYkd9WAGFIvJRlOT5888/d+7cGRERERUV1a9fv9atW3t4eEgkkoKCAjc3N3R5sfUjCg9UzLh9+3ZKSkpqauoff/xx8eJFk8kEYCFo6oc1JDBjqHCgWdnb29vNzW3t2rWO5SFFLAXyU19fX1KtCxcu5PF4ZWVlyPoQXH+VepgSGIhgDAaDc7qB/3tR8IGTF2yfTmdTlAsEgtTU1MDAwCphVNAXGBQU5OfnRzTvrpngYgPD4L9du3YFko+NAPP69esMq3ho90/Dt1mt1uDgYE5zceKCMmjQoJkzZy5evNg+t4ldo2bKgX5x0HQ6XWJiYmJiIkamOnfu3KlTp/79+7do0cLf39/NzY0gyaFYz5w5k5ycfOXKlYyMjPT0dDbDvFAoJGwuAKvYgOqqUpBeQ+qMx+O5ubl9/PHHnTp1csIKm81mwkvEC9tBBnxQaF24s85E4RMKhcLOnTtfvnzZ7siAMlR4YbVa//rrL8LKr1yEt1qtzZs3f+aZZ3755ReUiVwzKKkQf4jF4j59+tgISvh8/r179zIyMmhB7CaphIuBcL5CTpYTTlxH5s+fv3Xr1szMzAoQsbURkUhE2S24/DT/SPUSg8GQk5OTk5OzZ8+elStXAqtUqVQCFRuD8RqNJj8/H3VNOnpyubysrIxsgIeHR1FRkY1KQ406HQdcIpF07959woQJzlnewsJCjF6CM5CWqEbjBz8+JCSkbdu2zrMlyFoSIK59HjSBS2MHnD17tqysDB0IVYYmAoGgf//+sCUwoa6J7cimsFYqlWFhYezRzspSUFBw584dNniqHWlDrCf6VUwmk5eXF6ezOHFN4fP5u3bt6tWrlx22BIaEmo5EIhFmBom9AvgReC2Xy5HhefDgwf3795ly0lLyYsGZiDqKxWIh9HsolqKiIiSR7OiuxGA1clwBAQHfffed05b3+vXrPB4PeTmkrWwoH7aq4fF4CoWiS5cudvMn2bMZGIZ58sknsb72VWmAFM2UJxYZhjly5IhGo0GnFvkCRAaAhz1w4EAvLy8grDGuSmRGTJEWi2Xq1KlKpZJAkfG7KKLCtNTFixcr0MDYYZ5pZBcPpU2bNpzO4sRlxdvbm4rbdgx4m0wm6EfioSJ1aTAYqBe2rKwM1WlK46AFlNDAMB5fodeWjQ4FihTbhoTun84vZmiA7NK2bduEhARn9sKcPHkS90/2rEbHF+8BleSMGTOc6lgwDOPv749ylsFgsE+nsx8YvOnU1FT0JADBDfqRimx8Pt/HxycyMhLuBmMT86C+hDYWKHQmTJggkUhod6LyBjQzrJvZbD5w4AB2fIVlsUPwnSqVygkAn5xw8igil8trRHR1faGeY7QjoTSCdlONRqNSqTZt2oSBf6fJvXv3aNqxNvqkQhOTk1Ew+AzDPPHEE9RNYd+oNnu8Dr/n4MGDhJrABoUmHhupVDp79mymHH3BBeMSGFf4RD169IiIiEAVjv1EEU8DBxEAACAASURBVIbDgubm5u7evZtth2rEirdhxvAClUZOW3HiylJYWGhHf5RrChDv4RZrtVrMLahUqvXr14eGhjr5ZrKysmDV2EWEGpUG3hkSEuLn5+dsWxIcHIwebaYm7Ggb4RX9EnzPwYMHyXknsluTyUQBkMlkioqKCg8PNxgMFcADXERo6Mlqtc6ZM4caQgD2wP6x8B1Onjx5//599LwTRv2j7GmDwRAWFlbjOy9duoQkAyec1Iuw2W0brmC2gfL8AIUyGAzBwcFbt27t3r27828JLK7krdpOmFNGBL0MgOB0ti3x9fVVqVSwInbnmipMO168eDE+Pl4kEpWVlVEXBJkrsViMTOi7774Lk+NAXjMHCkgU+vbtGxUVhXIWBZsUewJZwWq1xsXFkYNgH7IZW5BYe/LJJ2t858WLF1977bXY2FhOqXFSL0LheEMXkUhkMBjAMq7X6318fPz9/WNjY+uFwcFisZSWlrJLULUpRxFxclRUlLNDOmj54OBgG5MTD+vOMwyj1Wp/+eUX2AnKm8G0QgsrFAqDwTBs2LApU6bUhobW+aJQKPR6vcViiY6ORqKpAngDU07uJhQK79+/f/DgQblcTqU/h9CL1aY9/Nq1a1lZWcuWLUPOkBNOnCmlpaXHjh2zgRPcgASYKxqNBi6jUqk8efKk81NbdDPZ2dlszC7boQm0N4C8VCqV85m5/5vNnzVrVu2Zl6pMyFQIFRmGSUxMBJIa/hWPB2ku6rUViUTR0dFNmza1r05T134BwzDjxo0bMmQImkbQsMhGqBYKhThFcXFxeXl5bCsC8h/72qwFAoFGowkODq4RSpJhmPPnzwuFwuzs7ISEhClTprgsGg0njVJOnTqVnZ3dCCDjMFlcWlrq7+9vMplGjBhx/vz5euzIV6vV5NyzaQNtK2FgyYSHhzv/zv97cxERERRG2fEtFWgEEWfduXPn+PHjJpMJZQboOEJO1mq1gMNs3br122+/7YJ9XGVlZUFBQZ988gk5BTKZjGo/iD/w/B48eLBmzRrqhScoU7sJK/FxPz+/GtvDrVZramqqyWSSSCTZ2dlxcXGhoaE2SOk54cSxsm/fPuqyadACN1ehUAgEgmXLlm3evLl+yRbVajUxPBE0ve37JzZC0uf1YEuaNm2qUqmAd28HLxj5wnDDtVotkj9fffXVvXv3kPpnyqeT2OoVoMpvv/321KlTkThir1ctmaAcJXK5HHaCmEFjYmKCgoLgF6C7AyNL9OQwtH/gwIFLly6R5SB4NbtFIBDI5fKhQ4fW+M6SkpLs7GypVIruCViUl156iavGc+IcOXDgAMOC6a07glRrNVKbZAkpE5o7xh+plRnj5SaTqW3btuvXr1+wYEG9dwPduHHDbDaLRCLqfQWbkY31wYOQyWS1UR11ZUt4PN6TTz4JTkAHxozp6enbt2+HpdHr9RKJhOZjobWtVism5D/44AOFQuHt7Y21YMor2M4ZhscVMQ/FMIxOpzOZTJ988km/fv3II6DhGEzPAthAKBTqdLrY2FgH9jSLRCKtVuvn5zdlypQa33z69GkKB9GQLZFIjh8//sknn+zatYvTdJzUte+ckZHhmmlVqA42/TsMnkgkQk1bKpWilVmhUJhMpmbNms2cOfPgwYP10rJVWQoLC8lS0grb0IfoOAXMTL0Mpf3PdD///PNECOgoP8JiscTExFit1oKCAgyNA0qSVocYbNq3b3/o0CFoQ61WS1UmJ8xAicVirVYLVwV36OXlNW7cuLfeeqtJkyZkz8jNQb6LaGp+++23PXv2ONAG40IikahZs2Y1vhkNDhQ4Upv/sWPHFixY8OGHH3L6jpO6E6LccMF6CcAiTSYTRuKJv5XgOQDKAirYHj16/Pnnn99++y2FLPUuN2/eJDeR8P1s2BI2a229DKX9bwc8/fTTju1YwAO7c+fO559/7uXlhRCEoEBpSkMoFJaWlmq12u7du2/evBlZSwQKQqHQCTNQeDy4kEQi0Wq1oaGhq1evxvPAlD69jcJkeAF6vX7JkiWO7WnW6/Uymaw2+HE6ne78+fOYrgJcDz4uEonc3Nzy8vK++OKLMWPGuCzPGCcNXbZv386wWuRdSgg0FojxwKXn8/mosfP5fKVSKZVKAwICli1blpCQ4Bzo39pLZmYmvaYfYvv34lm89NJL9XLD/7s5Nze3Z5991oFfDVMhk8liYmJSUlKIIg2jfPAaULKTyWTI+Pfu3Ts5ORltee7u7s5JWZpMJrFYbLVa3dzc9Hr9oEGDdu/e7evrC1ROhE3s6RlK2RmNxhUrVjx48MDhXoDRaHz++edrfNvly5evX7+OnBvIgpBqMxqNIApVKBQHDhzo2bNnUVERp/g4cfjB2b9/P9sprheprr5LhKQA6TKZTEaj0WAwYI4YME5vvvlmamrqggULXDCuunbtGvMwOEwgBzObzRMnTqxnW8IwjMOJUxQKhVar1Wg0H3zwAeX0mXLeGySygFkGoGmBQBAREbFz505/f/+SkhJCjazzVeDzGYZRq9WzZ8/esWMH4NuIeJkIqBkW1gvKEh999JFcLgdwqQPPRvfu3VHzty179+5FOzluDJymFDmZTCaNRiMWi1NTUyMjI0GBxwknjpKcnJz09HSXnSxBHz8qnRKJRCqVAjfMYrF07do1Njb28uXLS5cudU1UWbPZnJeXV8GW2DbYMCTt27dv2rRp/duS8PDwzp07O9ZzwYtDhw59+eWXxcXFVBCDBmS70lar1Wg05uXl9e7d++DBgz169PD09HRCrzAwtRiG+eijj2JiYnDPBG8Ma0duC+Jls9lcVFS0bNkyeqcDTxSfz589e3Zttvjx48dRzgFeN3WRYepFJpMJhULgDuTm5o4cOfLo0aOcBuTEUfLXX3+RH+aCGlkgEIjFYvRB6fV6nU7XvHnz4ODgPXv2JCQkREVFOY281g4pLi7++++/kcKpJeg4jn+/fv3q657/YUtkMlmfPn0c+O1oVEUu64MPPkhPT0dpHblLaG2qiaGzwtfXV61Wt2/fPikp6bXXXnPCHjWZTB4eHnv37l28eLFQKETCSiaTIQsMSC48ToJ6FAgE8+fPT0hIoNKOA+sl/v7+xCRmQ9Rq9d27d2EFEbzDpGG1AdJMR12n092+fXvOnDlz5szhlCAnDpGEhAQKi12wlQsOq16vDwwMHDVq1NatW8+cOXP8+PH+/fu7ZizClvz8fOpooFR/bRKJTz/9tEvYEoZh3n///cDAQHbvNnKLduRDyWHBZ41G45w5czIzMwl9hKgCMCJO0ZxUKkXG8+233z558mRYWBh1c9HsHmxPlbMv+Ce6hwocyHghl8vxWiwWv/zyy4cPHx42bJjRaEQXB3qj4RRQYATcLYPBIJfLv/vuuw0bNjDlPWCE0/Wwgp/D/lF8Pj88PLw2BZg1a9bcunWrwhk2GAzsvxA5BKKr9PT0+Pj4hQsXYlaGE07sFovFkpycbLuzqO6EDggBxRObH6Rdu3ZPPfXUBx98kJiYePbs2U2bNg0bNqx+Zw8fSm7cuAELXeMKQwGSoqvHhuaKUZ63t3eXLl3y8/PRGkTsMRKJhHhpHnbPIetitVqTk5NffvnlI0eOqNVqQrgqKSnx8PAg88s2Wn5+fmKx+Pz582vWrFm1alVGRoZer5fL5Xq9HlWWCg0kxGvLvjoNPBIIPDF0TZ48+cMPP2zVqhW0uU6nq1CeQTkLQYBSqdRqtXK5fOPGjR988AH6zcrKykBvAGzqh7W1er2eYC6B1W+1Wt98883arGp8fPzDXpFhmOzs7H//+9/nzp3bsGGDkyGpOWlMcunSpaysLIbFF+ecUEOpVBYVFanVaiQPtFptq1atxGKxh4dHmzZtevToERkZ2a5dO4VC0aBhXVAseSgxGAx9+/YNCAhwFVvCMMzrr7+OVj+TyYQeIftiWHxQJBKhiQKYu0ePHh0/fjycepTWPTw8YLHQ5UUBAbYC/nXWrFkjR46Mj4//v//7P0x0u7u7azQailVRNmC37eKfQMlJhQQ0Ikul0mnTpr3yyiudOnUCMiPopqm1HPYJtTuEZaAxFolEqampixcvLiwsZPv+sEN2rA+BT8AECoXCyMjI2mADZ2VlIVsNitOHvfSpU6eGDx/+008/denShVOLnNgha9euxQv4zs65qMlkArKIVCo9ePAg7d5GgAZW2eez41P1m76r4hk89dRTvXv3psQOSrh21wMo62c0Gnk8noeHx7Zt2yhrbzQaAUEPQ0LRAHQrgFjEYjGfz2/evPn06dMPHDiQkJAwY8YMKHekbqiRHA0bsB96vZ5mlAQCAeZ3wsLCPvroo9OnT//444/h4eGYTNTr9QKBAEOUuB/EwuhJx/QGfv7Vq1fHjBmTlZXVvHlz7GCQd7q5udnXE4mvxagKCkgLFy6szW7YvHkzAjs7ThHaBFJTUydOnMhV4zmxT06ePImDiY5bJ1wRyQOz2ezp6dm6deuwsDB+uTS+5b169aod53rgwIH1eM+8KvMkycnJ06ZNu3v3LrxmdC7Z8ewpe8M2RVKpVKfTvfDCC6DcePDggY+PD4FcVsbgMhgM6LhA6YKoDJOSkq5du5acnHzq1Km///6bgOslEonBYEDAERAQEB4eHhER0aZNm4iIiNatW5MzhUwrYi/6I6IWhmGQfQIGJWDKsrOzhw4dmpGRgcgaVXfE2iCfeVhzgiBJJpPpdDqYzObNm6elpdV4NoqLi3v37n3v3j0CpLFPFAqFv7//Sy+99OabbzbKA8lJHYlGo4mMjMzKyiLNYJ+KeDhVVQ50yDDMr7/+Om7cuEa8wsOGDTt27BjbI69xWQICAlJSUgj80CVyXAzD9OjRg51wxNTCw6ZEYUgAY0A/22q16nQ6gUCwYcMGmUz2/fff+/r68ni8goICb29vXKUCtS2121KNGtjDPXv27Nmz5+TJk81ms1qtLiwsLCgoKCsrKysrk8vlnp6enp6e7u7uRKCCMSWDwQAN/t/fX14TEolE6Kyl2Eiv10ulUgQ6mZmZkZGROp1OKpXSPAcMiVwuLysrY5Mt1lIQqMGWK5XK0tLSzz//vDY6fc+ePUhV24dp7+bmBjhro9GYkZHx3nvv3b59e/ny5a7f3MKJi0h6enpOTg7Dwjl3Qr0ESWYej9e0adORI0c24uW1Wq12DBdLJJJ6NCTV2hKGYZYuXbp8+XLgmdsNfFuhg1sikaCwAY7Cn3/++datW3/88YdSqfT29sZ2QUWdyFTQSUXzE8iYoXMXuhvKVKlUenh4UNjBsBgrwTjC4/FgkyQSiUQioTo/n88nTDAKTcRiMQYV8/PzfXx8Dhw4MGTIELlcTkURPz+/Bw8esGMv+3KA7u7uCKeEQmHv3r2feeaZGj9isVhiY2NhupAMfFgbplarYf/Ikfzxxx937Nhx4sQJPAVOOLEtR44cYXM0MU6Zeye18P777zcO6i0bXualS5ce9lO1QcqoU6nWC46KigoMDDQajTQK99Bfzeej6s7j8WAwdTodahgGg6GkpESpVO7fvz8iIiIpKclisVC2DZVzAkKQSqXIR9Hf8bWIJGAJ0CcGmAT8F7cNJhXcPFW52fYGmFq0WXE5vLm4uNjHxycmJmbIkCGenp54G+BeYEhQayGQyoddH4FAUFxcjLJHUVFRLYEcrl27dujQISop2XGG0X7GsHgRdDrdnTt3evXqBTg5TjipMTLG6Bi5d04IatFU2bx580mTJjXu5UUG5WE/VRtPtH5sCcMwK1asCAwMRCttlclQ6HobfgTxDFauyggEAq1WK5FIMjMzJ06cuHr1aplMRuMRFDVXcH/IPakQ8aDBnA3fRpj2FFRB3VNbF1Ne5EevGpsSkc7GlClTlixZIhaLi4qKcFGdTkfRCftH2dEwbTabqeIyYsSI2gDYWK3W+fPn4zZwh3bEQ/QRCt3gCuXm5g4ZMoQjPuHEtty4cePBgwdw73BaHYvtSC5OZdHr9VFRUY07KGHKWbBsjCjC6YTX6+7ubrVaO3XqFBYW5rq2pFWrVv379/f29gYlC/XaQjDAaEfBDf1R5nJhGCYnJ+f9998fMmRIZmYmWKfw/agooJDOnpckNUrk6pUnFmnWkgZ5sONhZnDniGAQP+FtCGjy8vISEhLCwsJiY2MxyELXdeCZQYcYwzAqleo///lPbRor09PT9+/fDxZFmvtx1P1otdr8/Py3334b2DCccFKlnD9/Hthu5Hg59vvZ2Wm0isERFAqFKpVq7ty5jX6Fi4uLbesZuM5IbsOL7dChQ73fdg37YNWqVUTsASEDYHdTOb4BrgePx8P3q9XqlJSU4cOHf/bZZwgm1Go1ZlOocQs7jBCxYBXYt4FqByYW2W4O+wGwIyrEMQBpNxqNQELMyspasmTJs88+ixZvkUgEjV/hax9d0Aosk8kmT57cokWL2nzkt99+Y1jEXIxDsSukUmlZWVlaWtrevXsnTpzIIdVzUqVs3ry5QhhBU2gODE1oe9M3m0ymQYMG1fKkNGgBQrCNxaEBOKacmrZeiBQfzpbIZDLwKVG9mm0PbESjNgS1DXzcaDSWlpby+Xx3d/e8vLwHDx4sXLhwwIABiYmJGNqgGXV2ThYhReUAkB2dsE0IhLJeVFahSKW0tFQkEikUipiYmD59+nz33XcgEYH7j+EPoul1lOj1ejc3tyZNmixatKiW/uDu3bvRygK2FXaP3KMLsrQikSglJSU+Pn7kyJEEcMkJJxCLxXLmzBl2koByAw40JHRU2XyCZrP5jTfeeBwWGQxjNoIS0m/IuOh0OsfiKNaJLWEYZvLkydOnT0fbK5W72eg3D3tJYgQh22CxWEpKSsRiMZR1UlLSwIEDe/fuHRsbq9PpMMZoMBhKS0uhOoEASrUQ8lxQKaHvZFjcBkz5DDwCGtTkeTweBhXv3bsXHR3dvHnzRYsW5ebmisVid3d3rVZLRJPAMHZsTkkkEnl7e2/YsKGWWYKFCxcit4DTiw40x6oJ6mwWiUSHDx/u2rUrcIE44QSSl5eXnZ1NdFIOD44r60qJRIKU+IABA4KDgx+HRb5w4UIt4zb0xKpUKkxPu7otYRhm+fLlKpUKkxmkzdkq+6GE7e0CHR1pLvRZwVyZzebjx4+/8cYbXbp02bRp05UrV0Qikbu7O6Y6tFotIZqhsgKLQqEfxRyVtynZP5PJVFhYeP/+/ejo6IEDBy5fvjw/Px8xk9FoLCkpEQgEcrmcXeKuAPb1iGI0Grt37961a9favDkpKSk7O5s9xWJHN3CNGxTaQS6Xq9Vqq9V6//79YcOG7dy5k9OhnEBOnTqFRkrmnzjzjq2asEl/Cf8iOjraaWAt9Rv51dhOyR4sMxqNnTp1coVZY14t8QHj4+MXL15MwReNudo3LodZDbJDBJMFCBOGYTw9PdVqNabTzWZz06ZNu3fvPmrUqFGjRjVp0gQrCD+axlDQfIyqBiW1iC0ZJXRELQaD4dKlS7t27dqyZQs7nERpHXfl4eFBg/RMOS+WY3NcgwcPjouLqw3Zl9FojIqKOnnyJGUXxWIxuyHNIYJ5fhQ5Ye8VCgUW/5VXXpk3bx6nSR9zsVqtkyZN2rVrFw4phquAauHYuffKk9F9+vTZs2fP4zBOazAYfHx8wJnEbi6tvDiEJ7J///56hJp/aFvCMMwbb7yxdevWgoICtgmxz5ZAbaFPA1kmIjSGlqQ4ANqfSnAtW7YMDQ19+umnIyMjQ0JCFAqFUqmk7GqF2RFKben1eoPBkJ6enpmZefLkyVOnTmVmZpaUlDDl05R4cgTqhdIIO+FDEYAd8+1Vikql2rRpUy2hFVevXj1v3jysEg4wgULagUdgw9mRyWQUNWIrg7rY29t7zJgxH3/8sSvTB3FS12I0Gt3d3bHlkGfWarWARHLgVWj+l3agl5fX3Llz33nnncdhkUtLS5s2bYoUYpW2hEwIFkqlUp07d46NZ9gAbIlerx88ePDp06dhCaBVHwX2sfY6rsq/i0QiT0/PwMDA0NDQkJCQgIAApVJJvb8Gg6GgoOD69etpaWl///333bt3q0OvquuRXeo6I6MVEBDw+eefR0VF1ebjGo2mW7duN2/erEdKbcCudO7c+dixYw6sGHHSsCQlJaV3795OaPBju0o8Hs/f3//MmTME49245fbt223btrWtV4FbAVsSGRmZkJDgCnf+EG6mRCKJjY197rnnUlNTHxE7xCFiMplyc3Nzc3PPnj3LrmoAqQXCrszXV7LVbDZDFzPl7bxPP/10LQ2J1Wr917/+VWO/eV2LWq328fG5ePFinz59vv/++/DwcE6xPoZy6dIlJxgSEIPiNWrLs2fPfkwMCcMwyJfYrn9A96KqNGDAABe584er2AQEBCxZsqRt27YIqTw9Pevx1km9os0X3b2YF6E2AQTjwKKv37iVYqnIyMjVq1fX8oMHDhyIi4uzg/PKkVuEz5dIJPn5+QzDpKamzpkzx0X8IE6cLHv37nXOfmPKO4P5fH5gYOCLL774+CwyQDNtO76AzEDNuH5x5u23JQzDREVFLVu2zM/Pj8fjFRUV1WM1jICACKwUgyNMeXMwysgYYLSPFNJRZwPFG09Pz2bNmm3btq2WVYf8/Pz58+f7+vqCM7i+7p+6P1FQOX369GuvvfbTTz9xuvWxktLS0pSUFCcUzNiYrQzDhIaG1q/P6mTBiHSN8R/yLiqV6oknnmiotoRhmNGjRz///PPt27dnKiEB15HNqFKY8gkmpnxmpwKdIhEMo4PLxvfUtS1BasvDw+PYsWO1J51+/fXXs7KywNZZvz1/ON48Hq+0tFQqlebk5HzxxRcffvhh/WbeOHGmHDt2DF3pTrgWm5Nj6dKlj9U6oyG4xqY4g8EgEAhCQ0Pd3d0bsC1hGCY6Onr06NEDBw6sR39fLBZj5JA9tIg24gp4J4T7Ui+CVFvz5s23bNmChubayJYtW86fP0/tGfWIaEIoZMA+QPyXl5f3xRdfdOzYsX7zb5w4TeLi4hin1EcRx6OhPzg4uFOnTo/VOufk5NhuzoRjikrSqFGjXOfO7fd2ly5dSoWTehEqikDToUlRIpGggZiYTrAp69GDlkgkoaGhW7duDQkJqf1+io6OLikpAdwA4xR+iOqEbYkBayGVSjUajUgkun37dnh4ODcb3+jFbDZjGNsJtoSGDcxm87vvvvu4LfX169drPOxwlE0mU79+/RqDLWEY5quvvpowYYJKpaqfWy8XDBKiDxjTKhVAU+o3FdOsWbPvv/++Y8eOtT+306ZNu3XrVmFhIcMw4Oaqx/tH2YlhGK1WC0YyANug0Tk7OzsqKurcuXOcwm3EUlJScuXKFecU7axWK8hMAwICnnzyycdtqe/du1dhVK6CgBzWdaBTHGNLeDze6tWrJ0yYwM6HADcUUQL+IpVK6yLdT3ktzDZSVOhM40H0XPhfxBCwbQzDSKVSlUq1c+fO7t271/47J0yYcPHiRcITY8rRZeox/iNvlAKUsrIyTHTy+fzbt2+/8MILGzdu5HRuY5Xk5GSAGzmWp6RKYcpbBxcsWPC4zcaaTKYbN26woTOr1DlItAQFBTmnfOUMWwL5+OOPP/zwQ5VKhXwX0iBmsxka0Gw2Ay4FjVWN7NmjQkPlBNSoYduEQmFgYODBgwfbtWtX+y/87bff7t692yCKEOBOhpeUm5v70UcfLV68uB7rUpzUnSQkJBgMBoPB4ITeeolEotVq27Vr91i1AkNw8G3TW6BSwjDM2LFjXermHRMuREdHv/vuu35+fkR2gtBELpdLJBJkotBY5QoYZI5yqSo4C+BBQXQiFotbtmyZkJDg7+9f+69NTEyMiYlJSUlpKNwh2NZIdj148ODzzz9/5ZVXqsMX4KThKrhdu3YhRHDC+UUr5vjx413K6XaO3L17t0r1Ulnatm1b76S8dWJLGIaZMWPGxo0bPT09eTyem5sbUBrLyspQwKCIpBGEJoQdSY8cL4RCodFohDV9+umnL1y44O3tXfuvTUtLe+WVVwgilFB7XVaUSiXFZGq1GgB/GzZsGDhwII4EJ41DMjIyrl69KpPJmH/yUteR6PX6sLCwxzAogRJgyrP3tn24pk2bNm3atHHaEoZhwsPD//zzz/79+wMvhMyG0WgE2y5T36l/xywZS8VTkxiax+RyuY+PzxtvvLFz586HygbcuXNn0qRJN27cwBcSBTKlTV3Qrmi1WviqaJYzGAxo8bp48WL//v0vXbrEaeHGIceOHUPY7ZzBZIvF0r17dz8/v8dwqS9dulTjScdTqCVXRUO1JQzDdOrUKS4urnfv3j179kRGS6lUisViOLAO5/KsX1uCuRZS9xaLpVWrVv/+979jYmIequOluLh45MiR4LlCizO7DOOahoRhGFgO3DNmfSQSiU6nUyqVd+/eHT9+PBiFOWnokpiYCNY4h9NUVynt2rX74IMPHs+lTk9Ph6mwsc7QBoMGDWrktoRhGKlUeuDAgSlTpkRERFgsltLSUloXUBk29OfNpnHEaz6f7+bmNnz48J07dw4ZMuShvq2srOz1119PTU1FDqGyUH+zq60DuI2Z8mIp+g6USmVpaanZbFar1TExMdHR0ZwubtCi0+muXr1K1OJOaKxq1qxZs2bNHs/Vvn79OsOqrlenf3g83kO1hjZUWwKZMWPG6tWrMZYJdEVyuhv68ybUFnreXbp0GTJkyObNm1u0aPGwZmnMmDFxcXE8Hg9UEEx5pYRiEdsNgvUoaBQGAw3DMHK5XK/Xl5aWymQys9lcUFBQUFDw1VdfTZo0qR7BETh5RLl9+zaS+CgEOqFPr02bNo0ge2Gf5OfnQ0naOPJms7l9+/YuiFFWh8mT0NDQjRs3/vrrr35+fhaLBcCW1JtBPFdM+cg6sSKyXfJ6Z1IjnU7FcBpEx/0PHDhw7dq169evf9hMlFqtHj58+NGjR8FdjwQRu/pCW8eVatInlQAAIABJREFUDTAVwIhEC+SMDMNoNBqxWLxt27aZM2dmZmZyerkhyp49ewDaUVpa6kDiNaZ6nL1169aFhIS8/fbbcNIfHykrK8vJyYFirDCuSLoFOmfhwoUumPeu2xvi8XgTJkzYv3//uHHjmjRpQly8TDlQvFAolMvlfD7fYDCwyw9wzKFV63oJ2ENSbJFKpTweD5MxhPqFFlh3d3er1dqsWbP/9//+344dOwBz+VBSWFg4Y8aMY8eO8Xg8qGP88MYxnEXEyXgRFxc3a9asK1eucKq5YYnFYtmxYwelXCwWixP6MM1m8/3799euXTt8+PApU6ZcuHDhMYEQRfcKO4VOqok9uSwUCrt16+aC989z2ljc8ePHZ86cef/+fahOgUBAKS+xWIzx9crKyBlLUE1qknYwG84LA4kBAQH9+/dfvny5fZFmTk7O6NGjQSkmFovVajWGism1b+jCphEViUQajcZqtYaEhLz55pvTp0/ndHRDkeLiYpQuiJraCTyqIFUUiUQKhUKtVpvN5oiIiMGDBy9atKhxTKdVJ9nZ2R06dGDKmVgrq0HYlY4dO544ccIFhyuc92yeeuqpy5cvf/PNNwEBAehTouUASge7Mk8d1k7YPdXF2kKhEKoQ8SYwiZs1azZu3Ljdu3evXr3aPkNy7ty5Z599Ni0tTSKRCIVC9E/DsjaOIyESifBb0PyD+rxcLk9LS1uxYsXjBiHeoAVtRTAkOIlO2KVQAkajsaioCErg7NmzX331VUhIyKpVq+7fv99YV/vBgweV40LyYjEngMkS15zSc6qdFwqF06ZNO3fu3Ndffx0QEKDX62UyGfYosAKhtdk1knr0RNBTbzQaQfrbokWLUaNGff7557/++mtQUJB933n06NEXXnghIyMDJWuNRoNdAi5ImKuGfiRoowP7ANa6rKzMzc0tJydn06ZNkyZNgpPLiYvL5s2bgebJlFPPOeGier0egN/4X3d3dzQK3r59e9GiRX379p09e3ZWVlbjW+27d+8KBAKieCCzinoVudquQ6RYbzmuCmIymeLi4mJiYjIyMiiCJmVEKS/HlvseyjOyWq0KhcJgMLRo0SIyMnLRokUPhaxVWWJiYn7//ffc3NyioiKGxZHFlI8Ty2SyxkQHIhKJ4BlYrVadTkcWmsfjRURExMXFPRQuACfOlyeeeOLq1avsY+hM+gaxWEyYrWKxGPPOsGctW7ZUKpXR0dHPPPNM/dJvO1C+/fbb6OhoYmNiZ7pQMsHKnzhxIjw8nLMlVfggSUlJmzZtSkhIKCwsLCsrAxQH8LvgCjnNlrAxURAutG7deuTIkS+//HJAQMCjfLNWq120aNGePXtAwOnn5wf6dPZPg1FpHA57db+FjKVEIgkKCvr555+7dOnCqWzXlNzc3D59+gDUB/hAznRByJtEpE7DzujZgR9mNpvbtGnz/vvvjxgxwsvLq6Ev+Pz587///nsyG2S22TqwR48e+/fvd03zyXMRR7isrGz+/PmZmZnHjx9np7YEAkFdb+IKsFoMwyCF9dNPP3Xu3PnRU5NXrlyZOnUqKu0Mw6BjTSKR4AW8D4rMGlloIpVKCTW5cqq9a9eu06dPf/nllznF7YLyzTfffPjhh9RnyJRXxevxliqERzweTyqVWq3Wpk2bhoaGfvrpp6hdN1CZMmUKRs2QFKG4RCqVAt5QoVCMGjXq559/5nJcNYvFYrl+/fr+/fsPHDgQHx/PbmAgiCp221yVuSkIOxKnvxNlG5GOoMwOR0ClUg0dOnT06NHdu3d3c3N79J9jtVrXrl372WefIRx5zKXKfjmVSjVz5sz58+c3AkCERiYjR448duwYSK/h9xDgN9tTFgqFVOnEfxExMM5KUJPObdu2bYcOHZ5//vkRI0bUI9+r3dKxY0dQlIIcVigUIjMMZjDoky1btgwePJizJQ+nhW/fvn348OEjR45cvHjxypUr7E0pFAqJlofarpBkZJuQCpOPMEUVMDiDgoLMZvP48eNHjx4dEhKC2ReHiFqtfvHFF/fu3ctpJRu2BE9w5syZq1atanz0Ng1XLBbL0KFD//rrryqfo1AohFExm83k5yHmZrexkpmp62AFd4XjLxAIxo0bFxYW9tZbb9X7pPNDLXjv3r1TUlIkEgkbJ4IyXWKxuHnz5sePH/fx8eFsif2rrNFoMjMzExMTjx07lpWVBRjEKncVn88HlCQ2epVvi4iI6Nq1a79+/cLDw/38/OrChfn111+XL1+enZ1d72mBBmFL+Hx+hw4d9uzZ42ow2o+tWK3W2NjYffv2nTlz5s6dO5gmRmd8jYg4FCjQCycIOqCMRiOZLpVK1b9//wULFtjddelk2bNnz9ixY9kA4exBRYlE0rx5c1ce+OU1uOy8wWAoLS1Vq9U3b97UaDR5eXm5ubm5ubnFxcWIxKm6q1QqfX19mzdv7uPjI5fLW7Vq5eHh4enpSY3IdSEZGRkffPDBxYsXs7OzRSIRGos53WTDlshksrKyMh6PFxISsm7duo4dO3Jr5VLHLTs7++DBgwcPHoQbp1Qq2aU+1PlIlSMUcGYTJtt0QREjVJLJZIWFhSqVqkuXLu+++254eLiL51FNJtOAAQNOnz4tlUrBfk2rJxKJzGbzCy+88OOPP3K2pPGLyWSKjo7esWPHrVu3FAoFqMC4ZalNXMKU54hbtmz5888/P/XUU9xyuaCg6/LXX3/NysrKzc3Nzs6maTAej1cZuRUcE3UdmlAWqMp+ZTC2abValUr13nvvPf/889UBcruCJCcnT5s27fbt2+x2FWQUDQbDnj17+vfvz9mSxiw6nW7Xrl0//vjjsWPH0KyFWMTT0xOjJJwwNikZgGvJMIxcLvfz85s9e/abb77ZuAEzGrqUlZVdvnx527Zt8fHxaWlpaORFRyJi8QrFS+dssAqpIbTYoFkAJqR58+bDhg17+eWX7cDQc47Mnz//u+++Y+fG8VqlUp09e1ahUHC2pHEKwO8+++yzlJQUhmHc3NyAiYJtLZfLudCkRlsCQyKRSKRSaVlZGXIm06dP/89//tM4kC4bvVy/fv3gwYMbNmwoLCzMyspCIMLj8VCJBLhD3YlQKKyS1Jba6/l8vlAohGrm8Xje3t5KpbJ9+/bLly8PDQ11tcXMyMgYO3bstWvXgCpLAcro0aM3btzo0gecsyX2idls3r59+9dff33mzBmpVAqMT+xsNC7DkDgBC6+h2xKr1UoBHCCZjUajxWIJDw/ftWtXI5hBe6xcq+zs7P3792/evPnWrVtOboUn0gpqHqMmZryBz+ejqAOWhxYtWiiVyldffXXixIlgZ3ERWbFixaeffmoymRQKhUajwe9asWLFG2+8wdmSxhbdHzly5Isvvjh58iQcZ5PJ5ExsicdE3NzcvL299+zZ06ZNG241GpwUFxefP38+KSlpy5YtZWVlQNAigEKKXahPiaTKNjDwG1EbC5vS9GHL+/gIj8dD7shqtQ4YMKBLly5z58719fV1haUzmUxPPPHE3bt3gdHHMIzRaExMTHRBLkXOltgp9+/f/+yzz44fP37hwgU6GNTH4rT2x8dHvL293dzcPv/886ioKG41Gq6UlJTs27cvNjY2PT09OztbKBRS0xfbCauAcIHcFAbv6T34o9lstvu4wZawE1/kuHTu3HnJkiWukPjatWvX+PHjoVVkMlmTJk1Onz7tkAFqzpbUp2g0mvj4+D/++OPKlSsYbUH7CsXOgC98bIlF60iIOa1p06b/+te/5s6dy61JQxer1ZqbmxsfH799+/YbN25cuXKFzQwEc2KxWCo0gEH7EyUdu8n+UXLIlY+tSCQKDAz08/ObN2/esGHDiATW+WKxWMaNG3fgwAGUgly/WMLZkhoeZ0pKypo1a5KTk9PT02m3ITDHOCTYHQwGA2dIHC7klAkEAh8fn8jIyF9++YVblkYjhYWFOTk5hw8f3rlzZ05ODjqMEaZAy5vNZkQPVqu1QsiC2fvKXci11XqsYAhpatgq9oXatm07d+7cSZMm1VcP8blz51544YXi4uKioqLY2NgxY8ZwtqSB+U05OTl79uzZvXt3RkZGdnY26LAsFgtV19nhNntClauXOFzc3d1LSkqQgigtLQ0PD9+3b5+LR/qc2CEGgyE9PT02Nnbbtm08Hu/mzZsYWyHNTuwdBMdHeHp2GBKCU6psWqRSqVAoBLm9RCJp0qRJ//79X3311bCwMOcvy8SJE/fu3cvj8VJTU1u2bMnZElcXo9FYUFBw/vz5w4cPnz17NikpCTYD84ZEvEERsVKpBEcW+0saGb6vKwhKo2izRpYDSPVxcXGtWrXi1qexyu3bt8+dO7d169bU1FTkAyzlwvb58KICetVDmZMKEzBomqI30Htw3SFDhrz11lt9+/Z1Zp/6vXv3+vXrxzBMWlqa649bPb625ObNm3Pnzs3LyysoKLh+/TqFF7RZqZsQLhJg7KRSKa0YmKxsAH9x8oiC400IfeB1bt68+bZt2xo0ujgntUwSXLt2bcuWLTt37szNzcU0OJwMkUik0+ke8dyh8k/9YCaTiSYE6YWHh4dGo4FRMZlMnTt3njp16osvvui04DgmJiYlJeXPP/90/ef1+NoSk8k0ePDgpKQkprzxHDQ7tM8IAxWp2wp+DfPPZBfzT2IrTh5d4HKyE4l4LhKJxM/Pb8mSJZMmTeJW6TERs9kMdNc//viDPbliR09wdXCrOPIAqwbgMbvRi920GRYWFhoaGh0d3apVq7qGIr5///7x48ddv1jCPOY5rqKiokGDBqWnp1Mky40Wur4IhUKJROLr6ztz5sx58+Y1IFxxThwiDx48SEpKOnToUEpKSnJyMlkI2ABCr2IYRiQSgXyF7A3b9lC+wZZ+rB74h8/nz5kz59NPP+WeCGdL/mv2+/bte//+fWw+tHNUqLFz4oKC9NfYsWNXr17NVeMfT7FYLCUlJZcuXdqwYUNCQgKb4qECRLdAIAB7vNForEDeVV18UyOosFgsbtWq1XfffderVy/uWXC2hGEYJikpafr06Tk5ORKJpKysDLuK4x1xZQEoN/7btWvX2NhYrhr/mIter79169aRI0cOHTp0/fr1ixcvongukUgEAoFer7ddoqdZ48rcrNUZFdRaBg8evH37do4VlLMl/5Vvv/32p59+Sk9P59qxXF8ww4jXAPJSqVQbNmzo2rUrtzicMAyj1WqBjf/3338XFRWhuILaJ/mLKLxjSqzKcIRCFhs4chKJhMfjbdy4cdiwYdyyc7bkv7J06dKVK1cyDOPt7V1QUMAtiCsLtW8iiHR3d/fy8nr99dfffPNNbnE4YYtarc7IyIiPj9+1axfAvCt0czA19c7Y5t3h8/kdO3b866+/HEjvzdmShi0guD516hTBBHFFeNcUxI7u7u5msxkoqghWmjdvHhUV9fnnn3NLxEllMZlMmZmZZ8+e3bhxY1lZ2dmzZxHdkiGpbGNqY0sgq1atmj17NmdLOFvyPxfmueeeO3PmjF6v9/DwKC4u5tbEBYUNo4R8F/7bpEkTmUzm4+Nz5MiRekRS4qRBOI6pqalxcXFHjx7Ny8u7ceMGUz79Tnj1TPnEYnU9OFarFeNlAoHA398/MTHRRWCGOVviEpKdnT106FCtVpubm8uthotuWR4Px5gNXQ5CLVTjQ0JCNm/e3Lp1a26tOKmNB3nx4sUTJ05s3rzZZDKlp6fTpqpAf1JdaAKkn6ioqD/++IOzJZz8T0C5XFBQoFarkU6hgrxcLtdqtVyvcN1ZiMp/JDxmojnCa8wTEMIN6MgsFkvnzp2Li4u9vb3XrVsXFBTELSwntZfi4uL4+Pjff/89LS3txo0bqMYhDsbmZG9RNs2ESCRq0aLFvn37Hud+Qs6WVCHbt29fuHAhEDqZ8mYhrsWrjkQul+v1eqI/ImJKtNxUOLcSicRoNNLZFovFo0ePjoiIUKlUXbt2lclkHh4e3PQiJ48oFoslNzf36NGjhw4dOnbsGI3Zg3mF3f1FbSASiSQkJOTYsWOPLbE0Z0uqllWrVi1atEgqlZpMJjauHDcY70zB0TUYDMhimUymFi1aeHt7R0ZG9u7dOyQkpGXLlkqlkuvu56TuRK1W3759+/Dhw7t377569SrsCqJkqVSK7g+r1Qqjsm7dunHjxnG2hJN/OCbTpk2Li4sDbTux8VTG5uLEIQK4C7PZjO4aUKjq9XowVbRo0cLT03PBggVDhw7lptw5qS/R6/VpaWnr16/fvXt3dnY2BSVIWoAG9MKFC+D14mwJJ/8VrVY7dOjQ06dPw5BwOa662oL/hLIguG+TydSmTZvBgwe/+OKLoaGhj23qgBPXlDt37pw+fTolJWXTpk0or+Lv06dPX716NWdLOPmH3L1799lnn01LS6OJE47X3eEC+4HufuQPw8PDAwMDZ8+e3bNnT9TYOeHEZcVkMp08efLChQsJCQmFhYUajeaHH36oF+4szpa4tKSkpMybN+/MmTNQc/Zx73BiQ9gB3/Tp0ydOnBgZGfl4Zgk4aehSXFx89+7dnJycQYMGcbaEk4qycuXKtWvXFhYWgi+WE4dLSEhIVFTUlClTgoKCuEI6J5xwtqTRyurVqxcsWEDldzQXEfqCSCQiGmpOUP8QCAQymay0tJT5Zyc+BL2/JpPJ39//3XffnTp1KjepzgknnC1p/GK1Wvv27ZuZmVlSUgJEeqvVio4j9HJwvcJsYSP2y/9/e2ceF1W5//FnZs7sM4Cg4IKMikrqVcvU65ILqWlmpmV5y7TcNcuWX3YrW6zMFs12zZuZa2ZZuZS5lOWa4q6pSWiOCygIArMv55zfH5/L07mDIuAwAn7ff/gCnDkz88w5z+d8d5MpGAz6/X4UpTPGLBaL0+m02WyvvvrqPffcQ+UgBFENUNMSlPJe+6effmrWrBkSuvx+fyAQgF0CCSEh+fuUUqthtFksFp1O53a7/X6/Tqfzer1Wq1WlUsXFxX3yySdHjhy57777SEgIguyS646TJ08OGDDgzz//VA6CZkWjmWh9lNLLe58IgqDVanGa2Wy2J5988qGHHrq2DbpRNo9bAYIgSEuuAYcOHbr33nvtdntcXFxubi7PQaJc4eLKyscNybJss9mGDBkyfvz4iu6lGggEnE5nfn7++fPnMzMzc3NzMzIyfD6fw+FwOBwul8vtdns8nkAgoNfrtVqt1WqtWbNmQkJCrVq1YmNjjUZjcnJyfHx8XFyc2WwmvSEI0pKKYv369RMnTrxw4QJKXklFisPnicXHx2dnZ7dr127BggUV1Lg3GAwePnx4+/btGzduzM3NzcnJycjIQPOVQCAgSVJI10jUsqABBgaAh3x9RqMRHYgbNGhQq1atdu3adezYsUGDBq1bt6YcM4IgLQknc+bMeffdd8+ePUthkhKsE1mWa9euPW3atIEDB4Z3F/Z4PPv27Vu7du3evXtzcnIOHToky7LBYODCgG7hGHPCu9OX0OAZTjkYUjCqQhRIEISWLVs2atSoW7duXbp0adSoERVREgRpSRjo1avX1q1bo6KinE4nMruUEZTrnISEBIPBULdu3S+++KJ27drhOmxhYeG+fftefPFFtEVCEja3M7D+8EpBBtCORWl2KKexQt7wr3KgHrSHPwbAAEJzMDR36d69+6hRo1q0aEHZzARBWnJVt8YDBw7ctGkThvpZrVan04mILqQFrdGrcRcvfHC+F/P7d5VKVbdu3alTp4arYarT6Vy5cuWcOXOys7OzsrKQil2cip4rc0nTymazNW/efOTIkT169KBafYK0hCgPWVlZt95667lz5+AVCSkx0ev1kiRdbuOrHtSuXfvcuXPKj+zz+W666aalS5fabLarPLgkSenp6TNnzsQACZPJxBhzu92lmb8dMS3hr9u+fft+/frdd999V//BCYK05Lpj//79//rXv/Lz8/lweFR0o2cX+tVX7xWAHRYVFYWJ6z179vzggw+uMv1JkqQPP/xw9uzZdrsdkQ/lCJnKpiU8+xlmitlsnjFjRvfu3SlQT5CWEGVg5cqVkydPPnXqFKoXJUnC7D9JkvBrdf3gCBGp1WqtVqtWq+Pj4+fNm9epU6erOabT6Zw6deqKFSvsdjuPfqtUKq1Wi8gHghaVSksEQRBFURAEnU4niiIuqObNmw8fPvzBBx+MiYmha4QgLSFKxYwZM+bOnXv+/HlBENCBCvtLtZ8MD7eeTqerU6fOihUrbrjhhnIfyuFwPPPMM7/88supU6c0Go3VanW5XLyzgNJ5eK20pORFUEos76/ToEGDCRMmjBgxAg46giAtIa7AU089hQE4PKGr2md2aTQaSZI6d+4sy/L69evL7dfKzs4ePXr0sWPHCgsLL168yFN4Q2wCQRDw98qmJRxMEcY7N5vNbrfbbDaj89iECRPGjRtHGV8EaQlxBTwez/jx45ctW2axWAKBgM/nQw1jNa5k1Ov1tWvX7tSp07x588p3BK/Xu2DBgiVLlhw4cECSpJBiHeiHcnAvYwxVI5VNS0wmkyAIGElgMBjwhrm9YrVaHQ5HgwYNPvjgg169etHFQpCWECWRmZnZt2/fY8eOwSJBUhMSZ6vl57XZbC+88MKDDz5Yvqdv27bt+eefT0tL4zYcgiJoBOn3+5XVgijyUNaFVB4tuWSLaHzvSByAt1MQhOTkZFmWf/jhh8TERLpeCNIS4rKcPn26V69edrsdRdTYFq9VPUTYThGVSpZltNZXqVR6vd7r9SYnJ7/66qt33313OQ54/vz5xx9/fP/+/XBqXW8nSYsWLbp16zZlyhSr1UqXDFFt0Lzwwgu0CuEiOjo6Kirq9OnThYWFXq/XYDBUm5BJIBAwGo3IT2vSpMm0adMGDBhQjuOsX79+8ODBO3fudLvdLpcLuU/X1UmSn5+/a9euDRs2tG/fPiEhga4aguwS4tIsXbr0lVdeycnJQXFJpY0Vl56YmJj8/HzGmNVqjY2N/frrr1u2bFnWg2RnZw8ePDgrK8vn8+Xk5IiieH02noH7C8lvqampM2fONBqNdNUQpCXEJXjooYe++eab4k1qq6iWQBGjoqJiYmI+/fTTLl26lPXp27ZtGzly5Pnz5xGX1mg08JVdn4ONUcSK/jrt2rX77LPPmjRpQlcNQVpChCJJ0i233LJv375qEC9BxaVKpWrevPkbb7xR1kwkSZImTZq0b9++vXv3iqII8eAScj20BiiOTqfTaDQej4f3C3j55Zfvv/9+unAI0hIiFIfD0b59+5MnT1Z1Hxc2vvLtd+fPn3/wwQcPHjyIfFlWlOkbDAbR4L169yu7JHq93u/3y7LM22KazeaaNWveeeedb775Jg0tJkhLiFBOnjzZr1+/EydOVGktYYw1btx44sSJo0ePLtOzDhw4MGbMmIMHDzLGLBaLz+dD1YVGo0G/smqcMF0ygiBYrVbksPEMcpVK1axZszVr1lDbFaIqQnlcFUhMTEzt2rX37NnDOz9WRZo3bz5+/PgxY8aU6Vlr1qwZPXq03W7XarUYX4gZIbymHZGkEmoPqytwe6K3NM8+QKux8+fPb9u2rW3btvHx8XT5EFULGmddsdx9993PPvtsUlKSLMtarRaejcq5gfImKJgYiIYfarW6V69eY8eOLdOhFixY8NRTT+Xm5jLGsGlCRULMsuK9Uq4HlKlryp9hmuzfv/+ee+7ZtGkTXTsEaQnxPzz00EOtWrXS6/UGg4EVtX2shBNeJUmyWCzY4HiH48GDB0+dOrVMx3nxxRdnzJhht9t9Ph98WTqdjlpRXRGfzydJksfjycnJGTt27OLFi2lNiCoExUsigSzLgwcPXr16NWOMl45XulNB0aeEFZWS7Nq1q/Tl2bIsT548+dtvv7Xb7RgyCC2pxk3JwoggCAaDwel0qlQqk8lUs2bN559/ftiwYbQyRJWA4iUR2qa7d+++Zs0av9/v8/mCwaDBYCjexOmav0n+M/ayFStW1KtXr/RHeOyxx2bNmoUkpUAggNaWSn0iSroUNRqv1xsbG+vxeDD8eNeuXXFxceUoCyWIyEM+rghRq1atdevWxcbG4tfKJiSwKtCCsEaNGrVq1Zo6dWrp55HIsnzfffft2LFDr9d7PB5uhXBfWSX06VU2kNLmcDjwq8PhOH/+/CuvvLJ06VJaHILsEuJvLBZLSkrKb7/9VlhYWAl9Prw1lsfjGTJkyJNPPlkmi+TLL7+8ePEiNkSDwQBzRJZljUYjyzL5uEpDjRo1XC4XfnC73cFgUBCEHTt2qNXqdu3a0foQpCXEf0lOTjaZTL///rtKpapsIRNJknQ6XTAYvOmmm7788svSjyt/7bXXNm3adOHCBTi1ZFkOBoPcryUIAtIN6Nu/Il6v12w2I2PYZDIFAgGPx5Ofn5+Tk9O0aVObzUZLRFRayMcVaUaMGDFgwAC0SqxUwMdls9lmz55d+iGJixcvxjArFGxLkoQfNBoN8tYCgYDf7xcEgb76kkG2gsfjgT8QSTEIyO/bt2/06NHbt2+nVSJIS4i/eeONN/r164efdTodLACTyRSxoAJ2duQLhZgmjz/+eOvWrUt5nOXLl7/33nt2u50pWmzBBBFFUWl4hTE+hD33v6dvkeahakf5M+DCxnuT4I8qlUqj0ajV6hDzC8ls/DHKF8KDiz8+XJ8LOW+SJKHoBBVIwWAQv2ZmZo4YMeLUqVN0+RCVE8oJvjYUFBR07tz53Llzfr8ffXOxBWMaY4W+dEind7PZjHNAo9HYbLb9+/eXsiXU/v37X3311R9//JFXsEuSFLG2KOjFgnkqoee0SiUIAlxtlzjjL9+5+ZJrhSaMXDZCnlumo5Xzdk+thsloMBiSk5O3bdumVFOCIC253snOzu7atStu6lUqlcFgiNh3wVv/ajQaPpM8Li5u5cqVTZs2LaUW9u/fPy0tDTfswWAQx+SJWxWHRqNBVF8pKjzzWDk3XqcfRN4IAAAgAElEQVTTGQwGmEeiKIqiqFarIQ+85J53dlG+bZ1Op1aruV0V8muEtYQxZrFYnE4nvrg777xz6dKlYbSHCCI8uwotwbUiPj5+yZIlNpstPj5elmWPxyMIQukDFVd7E6FSybKMQne9Xu9wOB566KFSCoksy88+++yuXbtY0bRzmAJM4emqOERRVHq0gsGgz+fzer1+vx/2llarhWnl9/sLCwv9fj9XF0mSvF6vy+XyeDx4fCAQCAaDsKu4T8zv9yuVI+TXSN/uqVROpxPeSL1ev3LlyrfffpsuH4LsEuJ/+P77759++un8/Hz0f4zAfS5eAhrAGDMYDFqtNjY2dt++faUc8Ddt2rTXXnsN5ZY4CLQEbYAjUDqjUqm0Wi1MDVbUowWhBayeRqMxmUyI2UiSVKNGjQYNGtSqVctisej1eq1WC8dRYWFhdnb2uXPncnNzXS6XKIpomAZFNJvNsixjvMrlfI8R+L64aQVHKPoRzJ49OzU1lS4fgrSE+Jsnnnhi7dq1OTk5EZszqPRuxcTEREdHL168uG3btqV57uHDh++5555z584p91Ye74mAlhiNRq/Xe8kdXBAEnU4nCEKtWrX+8Y9/tGnTxmaztWjRombNmgkJCUajEZUu8GthUK5Wq/V6vVlZWenp6ceOHcvKyjpy5MixY8cyMjJC8phhCeG5ET5DuJLxgYzx8fEbN26sW7cuXT4EaQnxN/369fv555+jo6Mj052et95CqLxbt25r164tzRPz8/N79ux54sQJv9+PrVatVkM/ItYohW+scAnCr6XT6YxG4+233/7AAw907NgxLi4OEQVJkqAZ+DXEP8ZVQRl+8Pl8KpXqzJkz69at+/rrr3fu3OnxeKxWKwwU3vA4wopitVodDodKpTIajW6322Aw9OzZ8+uvv6ZrhyAtIf7G7XbffffdmzZtikAbRARyEd4IBoM2m23t2rUNGjQozXMnTZr00UcfhTh8uJ8nJEOsQuER+Dp16vTt27dv37633Xab2WyGRqJiXKVSId4O8UC6ARcVnq4GeeD/wgPGX+j06dPff//9jz/+uG7dOh6oj6R1wleb58hhUHyLFi369es3ZcoUunwI0hLibzIzM3v37p2RkaG8U5ZlGRt02LdpvjG9+OKLzz//fGmekpaWNmzYsOzsbI/HE8Z8rRJmGIe4ziAPKpUKS9G4cePhw4ePHDkyISHB7/dfrq19+VKeuFTwHzIyMt5+++2VK1deuHCBKzHf6PEFIbahVqvRl6yi7wni4uK2bdsWFxdHlw9BWkL8TXp6ev/+/fPy8hwOBzZrs9nscrlwHxrGF8LGp9FoEhMTt2/fzjtOlsD58+fvvfde5G7B3xK2U/Ayez2P6ISIH2Osd+/ejz76aJ8+fRDw93q9qA8Po5YohQT/qtXqnJwctVr9zTffPPfcc3l5eTExMfn5+SFZ0SaTyefzRaZnjEql6tmz54oVKyKW/kcQl4NOwUpE06ZNZ86cGRsbazKZ0IzE5XJZLBaPx3O5jfJqtm9JksaOHVsaIWGM/ec//4GQRMyRFQwGTSYTMrKioqJQ0dmtW7dly5Z9/vnn/fr1EwQhNzdXlmWr1Wo0GlWX4SoXCvEVHKdWrVo1atQYOXLkoUOHXnjhBYvFglmZPHmMMYZm+6XMiLsa9Hq9yWTasGHDqlWr6NohyC4hQpk5c+bkyZN5eRrcO+E1BXBwVLmXRqXS0tJGjBhx7tw5l8sFv1MY4zqX2+4RZOYWSZ06dV577bUBAwbExcUhG5h3RpEkye12o1am4oCxaDQa1Wo1Xj0zM3Py5Mnz589H8hhC4hGuRImKiqpRo0Ypv0eCILvkOuKJJ564//77nU4nOrfDKR9GIeF30AMGDCjlBjR+/Pjjx4+7XC7e8TcCPhwIicFgCAQCQ4cO3blz5+DBg+Pi4tA3BeXuEBK1Wl3RQsIYs1qtZrMZCWyYW1W3bt3PP/98w4YNN9xwA94tiFhfNY1G43a77XZ7KSNeBEFacj19JWr1e++917lzZ1RRhL3DrlqtLigosNlsTz/9dGkev2nTpiNHjmB/RAA8MrfABoMhOjra6/W+9dZbCxcuNJvNiK4jzI5iQ7fbzXO0ynp8+fJc7vGsqJ8KlhEV9T179ty6devo0aMZY16vNyYmBrkSEVgf9ByLjY1ds2bN0aNH6dohSEuIUMfFokWL2rdvj4Ei4W2+ZDabGWPDhw+vWbPmFR/scDjGjh1rMBiQpAQ5iYwbx+v1JiYmHj169JlnnikoKIiNjdXr9X6/H/kIBQUF6HOMVlq8AWIphaFkjblk1q8sy8jRQg60TqdD2YrX6zUajR9//PHatWsbNmyIaQIRCCn5fD4oaH5+fl5e3uuvv04XDkFaQoRSp06d6dOn16lTx2QyhXfvdjgczZs3Hzp0aGke/N1339ntduRTBQIBbpGUspfw1TB06NDvv//+hhtuCAQCZrOZJwcjvS06OpqbWdjlw/vqPIOLKwoyfSFyUHeHw6HRaPBHrVbbvXv3uXPntm/fnjEWgdg7amv4d3ro0KFNmzbRhUNcKyj2XqlZvnz5Cy+8gJIObKO4FUUvjdI0qMcjeUItgsO33XbbypUrr/jqfr+/VatW6GRccSgTw9AAX5KkKVOmvPTSS/89R//XLIMVgp+dTiciJXzH52YKfFAej+fPP//Mysr6448/jhw5curUqfz8fJh6oigmJCQ0b968ZcuWDRo0qF27dlJSUkxMTMhBcHBe84gWLCGOR7fbbTKZcnNz4+Lizp07179//3379ul0OgRReJBJ2QYtjEvHyzZvueWWDRs20FVDkJYQl+Cll1764Ycfjh8/7vP54FRBkw+9Xu/1ekuYF8Iby2P0hfLO/fvvv+/Ro8cVX/q1116bNm1aBD6jXq+XZRnjF7Va7YcffnjffffxcHpxLeHD5LE1IxiOGcOSJJ09e3b//v1bt27dvn17enp6fn4+7yqvdFuFJDdrtdo6derUrl27e/fuqamp3bp1MxqN6CVsNBo1Gg3iNMiGQEMzr9cL7x+Pjpw7dy4uLk6r1d5///1ffvklVw6kvcXHx2dnZ4dr0fhXz4d0NWjQYMGCBW3atKGrhiAtIS7B3Xff/eOPP/KKRQgDtqcStESZtstvYEVR7NChw4YNG64Y0g8Gg//4xz8q2ijh7jJJkqKiogoKCt5+++1JkyYpN/3i4SJs3/h02Ovx961bty5atGjVqlXnzp3jz+WVhnw2IkwEtJpHYjEECTYErJCUlJThw4cPGjSoQYMG2KnR18vhcOh0Oj6Nyuv1Ihp/8eLF6OhoONxUKpXL5Xruuec+/PDDqKgo9MOPjY3Ny8sLo13CrVJeSSOKYteuXX/88UcqXSRIS4hLb+u9evXauXMndj1uZFyx4XlIFQhutN94443HHnvsii/61VdfjRw5MmRIVAXBh6DMmTMHCVE+n6+E6YFwQHGDIDMz86uvvnrnnXcKCgqQPG2xWHQ6ncfjwfh0TL4K0SflNC1sxFixQCCAhDHEh3r37j18+PAePXpYLBYYIjyUcvHiRfQvwftxOBxWqxXvp27duoWFhf/3f/+3YMGCQCCg1+vRZTLscydxl4CPA3XZvXt3ixYt6KohSEuIS5CXl9epU6fTp0/rdDokDgWDQeVw35LdIPzuPikp6eeff65Xr17JLydJUqtWrU6fPh2BBsB4kyaT6cknn5w6dSpTREFKEJLCwkKTyeT3+3/88cfp06fv27cPLqyQ1VBqBk/B4iNv/X5/8U9Xo0YN5GLxSZdxcXEdO3YcNWpUnz59QhSuoKAAbxXWlcfjgZHEf+jfv//q1av52OAQSbt60wS6C0XBvcIjjzxCw7II0hLisuzZs2fIkCHnz5+HUYKgesk9FpUeHq1W6/P52rVrt3nz5iu+1oYNG/r37x+ZdinQkueff/711193uVzYH4u74JT94REgSU9PHzx48P79+0M0Q6PR8M7wvI0Kd22FLBfGamEZLymcMGvQ0GXs2LHPPvtsfHw83oDSeOLWjFLzYFN26NDhwIEDkiSVJleirEsniiKagLndbrR7SUxMpIaPROQhv2qV4eabb546deqNN96IfdbtdiOzqwQHl/IWGD+PHz++NK/1xhtvYN5iBD5XIBC49957n376aZ/PZzabrzioWJKk/Pz8Z599tkWLFvv370esGwUfeICyvQo+NXxc2HZZ0cwVuLYQ80dIg+fIIbJiMBgEQUBBIjbrd999t23btp9//jnCLayo/t/j8WBb5+NnfD6fz+eDJfT999/Xr18fPR/DeRuoUnGjE0eG3WO327/44gu6XgiyS4iSeOaZZ1atWlVYWHjx4kVWLCLyP7cJarUkSehBgsd06NDhm2++uWIzx4sXL3bs2PHMmTORaXbbsmXLH374oX79+tiaMaFLmfgbYpecOHFi3LhxP/30E2MMnXphPQQCAW6EcYnlphU3UEKKEIsH9jH7nRsWPBUbY+QRMhk7duzkyZNr1aqFnDqdTsdtFB53wdHw+FWrVt11110wgMKlKAgyGQwGURQDgQAfk8wYs9lshw8fjkANEEGQXVJVefvtt3v27AkhUe6D2Dj4/otgL6qyYccg+6g0XYHfeuuts2fPVlwXEGXIQa1WL1myRBkdgTGEfZznMSMyHwgEvvzyyxYtWmzevFmj0ahUKggJ/ktZYsKPxn10l0wLZpfqpMKK6kv4S3NRQZWiXq9///3377zzzqNHj2Kd8aGQQMxb5cNKwF7fv3//OXPmBAIBPheZ/W+9ZzlaG+BQXq8X+oGpw3ifmZmZ27dvp4uFIC0hSuLdd99t0aIFPDB8PiBuh1ETzt0pyvEbjLGBAweWZofavn27KIoYeBXe9i2QNJ/Pp9VqoR/vv/9+cnJyjRo1LvdgvHlRFL1e7/z588ePHx/5yYYAnf9lWS4oKKhTp87OnTu7deu2fft2hOiRHIyeN1zIIe1Ql6FDh/bu3Rvt6PPz8+ET44Iaxs+CpIxff/2VrhSCtIQoCa1Wu2HDhoSEBIPBgEps3I3CknC5XLhj5XsZblf9fv+tt956xYPv379/165d2NpQkRfGd46MW3wEp9PZpUuXcePGmUwmpfHBH4nMApVK5XA4JEmaN2/eE088UVBQAD9Y8VBQRQMHF37Oysoym80XLly46667vvvuO/S7RBAFIRa1Wg2/UzAYRGTLaDS++uqrjRs3hldZubAVUQ6yYsUKl8tFFwtBWkKURI0aNVavXh0bG8sbZPH6algncAHxrValUnXo0KFhw4ZXPPLy5cuxuZtMpvAmsLKiSkBM9xIE4bnnnkM0gnuH+K6Kvo3wUFmt1g8++GDChAm83X1xV1UEQBsVVuSFc7lcUVFRFy5cGDdu3J49e5BG5XK5kAWgHJDFm3e1b9/+8ccfZ4yhVIV/2LDHpQwGw5EjR9atW0dXCkFaQlyBJk2aTJ06tVatWkajEf6ikCYf3OmvVqt1Ol3fvn2vWOsuSdKvv/4a4jQL43vmJd+yLE+cOPH2228PBALIV0Z7GP42+Cbr8XjWrFnz7LPPshIbSkZGWqAiWGTGWGFhodFozM7O7tev3+nTp0VRjI6OVqlUeXl5CMijitBoNBYUFKCMcdSoUT169MCUs4oYKMCKUg80Gs38+fPpMiFIS4grM2jQoIkTJ3o8Hkz0Y4whD1W5a8NNFAwGS+PgOnbs2KFDh5xOJ9KNkLkUrneLrieCIDidzoSEhMmTJ6MHDPvfyDPP4EKX+507d95xxx1GoxEtZLhDLPIgCqXX691utyzLZrMZpfWMMa/XO2DAgMzMTDySpxJwMxFdjZF2hZ6VMNHwScOuKOgIkJ6eHoGeBQRBWlIdGDdu3NixYyVJQocuXmZhtVqxT2GbTkxMTElJueLRli1bFnIbHsbNiEdxGGOPPfZYbGwssrCQKIV6QGXIRKVSZWVljRw5UqvVohsKKxq2yB8Q9tSAEsBLw1zDW/L5fFFRUQitHz9+/MEHHwwGgwUFBehN4PP5EGLBB3c4HIIgXLx4sWvXrgMHDoTM8IyvML5PHM3v92dmZqKQkyBIS4grOzRmzJjRt29fpijtxs6lLBRX3iyXwIoVK1BEDSeJ2+0Oo5ag8FuSpObNm0+ePLmwsDAuLo63dg+pH8RMyWHDhtntdnRY4ZnEvJWh8tNFzDTB7g/xMxqNhYWFoij6fL5AILB58+bZs2dHR0ejkRfUAjkR+fn5VqtVFEVkrE2YMAFmH6+ND6+WIElMp9MtWLCArhGCtIQoFYIgzJs3r1WrVtiSkErEikLuarUac2SveJz8/HxU3rlcLl4CWY4UI9VlQNMRURTHjRsXDAajoqLg5AlJNkPSrcFgeOutt3bu3ImkZ7fbrezje5WTE6/SNGGKcne+RFjzxx9/fPXq1XDc8bfKGDMajZBnfEcdOnQYOXJkBXXzRbWNWq12uVwbN24kNxdBWkKUlujo6Pnz58OLpbzJhZwwxjp27HjFg5w+ffrkyZPK7lXhdb9gt01ISLjjjjtQs80PzgMnCGvHxMRs27Zt8eLFTqeTt1TB08N7Cx9GeysYDCKCgr6KHo9HFEU0+2KKcD2fCzlo0CBJkvChSmMyluNdMcZOnjyZm5tLFwhBWkKUlmbNmk2dOrV9+/aCIMC7olSFW2655YpH2LJli/LelhXr6HWVoHzyvvvua9SoEarxUYSBZuwwTRBmYIy9+eab6enpjDGDwaDsfFUJJ3MIggB7LhAI+P3+rVu3fv7558reNsFgEBkQKE/Bh73ttttSUlLwX+FtoMm/MqPRqFKpdu3aRVcHQVpClIF+/foh/MtHJOH+NDk5OTEx8YpPX7t2LS/AxnPDvnHr9XpeJgJQU4IkNLVabTQa9Xr9hg0b1q5di57tCJxwi6TiOruUG3wc9HvHW506dWpmZiZvBcaXka8tnHtDhw7Fr0jmDudVrXjFn3/+mS4NgrSEKBujRo164IEHsOdCD4LBoM1mu2Jqr8fjSU9Ph4ufVUy5hlarbd26NW7GMTvE4XDwLopoOsIYc7lcn3zyCRqBcAnBLTZT9NeqPCA/GKEUzFg8ceLEkiVLWFFzFGWTNFaUGy3L8r/+9a/69evzGqAwviV83T6fT5KkgwcP0nVBkJYQZUOlUn366afdunXDPTL2statW1/xiSdOnFCO48UGF9567EAgcM899/CDq9VqlO8hcMJF4tdff125ciVSBnjRuMfjqTiRu0oEQeDdSniwff78+WfOnOHajJIULhj4ISkpKTU1FVIUxnb0KFPFOsuynJOTUwmDTARpCVHpv1G1etGiRZ07d0abdMZYabRk9+7dfMYUK+oXwm2FsIDae1SToGgRAoMAD3qLBQKBBQsWKEPx3KJSTiipVOAdoogSky4ZYxkZGSH5uMqVhJbIsnz77bezcDcXQIs2Xl107Nix06dP03VBkJYQZaZWrVrz5s2z2WzYr+vWrXvFp2RkZCBczKdIKXe9sJCamtqwYUN0OURUH7MIeTd4SZJyc3O/++47g8GA+3QU+kFs+HjdyrbaPp/PaDTCx4WsX0jgF198wTvhw7sF24vXlEiSdPPNN2s0Go/HE8b+Ajxvgrd5Pnr0KF0UBGkJUR6SkpI+/PDD2rVrY2jrFR+flpYGK4QPziq3mwuONY5arYZy3HrrrVAmfsus0WjworiPVqvVq1at4jX8/IDBYBABBj5GsLLBB8phubCGR44c2b9/PzdBmCJ8gk5cfr+/SZMmsBrx97BU8iu7sWGACjV5JEhLiPLTq1evCRMmNGzYsGbNmld8sMPhCO99sdKggb++SZMmBoMBEsX3VlbUklIURZfLNX/+fPwxMiMdK5o1a9bgg4T0DMYqwWXXq1cvVmLbyvKhnOWVnZ1NlwNBWkKUn/Hjx/P58CUgimJeXl64XhS7J980oQ1ms7l169a4X4ZTi2953EzJzMz87bfflJ3nqzSCICxduhQ9xzBjka8JnF1YhzvvvJMVFZ2EUc6hXlqtNhgMnjp1iq4FgrSEuCoWLlzIZ5xcDrfbrUziukpCEq5wx123bt2kpCRWVIqvrKtHHpRard67dy/uoytnjL0cG/qxY8cyMjKUmztTDADGX5o1a1ZxzY+hyrm5udXDziNIS4hr9wWXYs5uQUFB2F83JDcJUXeeX4QkMW6+YKfbsmWLxWIRRbESFpGUW1P37NmDz8u9WGq1GqF4VP4bDAaobEWAcJTdbq8eS0qQlhCVmosXL1ZErZxykkpycjKC53xL5VUmvM/jwYMHkQ1VPdoRouPy7t274cfDFBmlucB1tGHDhmHMveY6zRQ5yny6MEGQlhAVRV5eXhhzbbk/h0fRNRpNcnIy3z2V0xX5vPrc3NzTp0+jJoY3D67SICnu2LFjmK7IzS8eLkJ+mtlsrlevXthznblmI+AfxtwKgiAtIS5NYWFhGPcyZWgdW6pWq61duzZvmos4M5ccZAZnZWVdvHiRFUXjq4FpgtLLCxcuKLWT/W/sBM3ha9SoEfYpLDyFASaRcoYYQZCWEBXC4cOHwxju5iYFL3QIBAI33ngj/y80bVRudqIoHjhwoKCgQK/Xi6KI7rlVfVXhXzp9+nRhYSGEhI/zAoIgGAwGURQbN27MpwOETDArB4iRcEX3eDxarRbpZARBWkJUrF0SxtgsNykwiYsxZrFYYmJiSpafkPh/JaxvLx+iKEJLUG6pLFrkHzPs80uUDQIg55THRZCWEBVOBTlAeN27yWS6opacP39eKSHVQ0vgrEPtDrc8mKL9IrZ4DO4NLzxNDq9FeVwEaQlR4VScTwm1FBqNJsS9E4JKpbpw4UJIG91qAJrHoIswn1XMm/hCS1QqFfolhws+t0apJZW2/QxBWkJUH+B+Ce/9uNLdz51dlzNfGGM+ny9kElc1AEGLEP9SyGcseXGuXleUsROCqDgEWgICE0TCvoPzIcGlOTIaBle/hWWMoQtZyKfjJSYqlYq3hqxQRaHznCC7hKhYSnZAle9+XCknGORe8oNR8R7y9Gpg8DHGoqKieG4VVxHllJGCgoIwmiZKuwchK7RkpvOcIC0hKhaLxRLe+1Zlz3lJknw+3xXD+8qeVBVhJF2DS6tIHiwWC28pzxT1JVxL3G53BRmFpCUEaQkROerVq8d3uquvbwCYk4g91OVy5eTkMEXFOx9Ji1nCeA/KHbAa7H34CFarVRCEEA8eSuIxHF4URafTyZ1gyq6XVyMkKPlE60xU19N5TpCWEBVLdHR0GO+LsYdibiD2RJ/Phz7E/FW4VPC/NG7cmDGG9vjK1lVVFwxYjImJSUhIYIoUA6WnCx8TBf/htUhCbgtISwjSEqLCwWYX9p2UKZKU0tPTldlEvA0XeuWKoti6deuoqCjl4MWqDqyruLg4s9nM+8zzFYCa+v1+jUaTmZkZ3n5oSi2BaUhaQpCWEJHQkjDaAcr0Uz49/uTJk/DdQ0L45Fq48oPBYM2aNZOSkjwezxUnd1UhfD4f7C2uJXq9npeY8HU4c+ZM2GWM527hpUlLCNISosKJi4sL70am/BnleCdPnlSr1TqdTtnSMaTKvWXLlpIk6XS66tHww2QyybLcvn37YDAoCIIgCDARlHJrMBiCweDZs2fDf2ErAmCyLKMHGkGQlhAVSMkNTsoBd7OgUk+W5YyMDJg+Sv8VbxuFx3fs2JFVo4RgpK61bt0aH1wQBF58rvyM2dnZWVlZYX91njPGGEtOTr7ibE2CIC0hrpaw37SGDHtnjJ0+ffrcuXPK2bT8kcg1kiSpU6dOWq2Wp3hVA5KTk2+44QZYJKwos4D9b+D9xIkT2dnZFSTkeC2z2VydPIcEaQlRWU8CtRqzqsIFVwuE1hljBQUFWVlZ6EwliqJyQC8r6j+fkpISFxcnSRJ/VpXGYrG0a9cuKSlJEATYKCGTidFuICsriw/LCte3qfwKKPBOkJYQkdOSevXq8W0O97AwF65SS1A+go1y27ZtKLBH6QPGQPFoPGNMp9M98cQTfM9VXYbKtnoY/cLXCp9Ro9E4nc5x48a53W5ZllGJ6XA4+EYvSRL8TnPmzGGMabValJhcvYsvEAioVCqsKuaM3XTTTXSSE6QlRCRo0qQJNn1ZlkPmAIaLLVu2YNvV6/WQCtybYxd2u906nW7AgAFQoLC3dak4eBE7Y8xgMMBHp9Vq69atm5SUZDKZVCoVWr5brdZgMBgMBmGH+f3+8+fP79u3Dx+5It4bKnVatGhBZzhBWkJEgpYtW7Ki2eDYgzQaTXjzqbZv326320Pah+DlfD4f7twbNGjQuXNntVpdhaImfIo7/1mn03m93gEDBjRo0CDkYVwzUMm4d+/evLy8MA61ZIpBW9yGQ1IDQZCWEBVO69at4UHCSHbuTQqjTyk3N3f16tWortBqtbzDh9/vx2YKh9ioUaOqVj8uvnFrtdpAIIAFtFgsY8aMUalUCBHBFIPhAjvM5XKpVKoff/xRrVaHt2FMSEGozWYLbzCMIEhLiMvSrFmzZs2a8btm3h4qjNucLMvffvstU3Tl4mld8K2JomgwGO64447GjRtXoX5csiyjbgb6J4qi3+8fNGhQ69atQ8wFPnPM5/Pp9frCwsL169dDgcJ8VSuiMomJieG1ewiCtIS4LNHR0XDIhNRAhNE+CAaDBw8ezM/P5+lMiMDze3aj0SjLcq1atV544YWq1Y/LYrFgDi5C6FFRUY8++igWEzlUiJFwi8Hv9xsMhjVr1pw4ccLn84W9NhNKjG/wn//8J53eBGkJETl4qSB2opAK7bCQn58/d+5cppggi1dxOp0QLYxGf/DBBzt06FCFls7pdHK9VKlUY8aMufnmmz0eD/xdKHdHST8+u9Vq9fv9ixYtgmTyevjwagmWtHPnznRuE6QlRORo3ry5wWDQaDRw6GN3C+Mts16vF0Vx9uzZ/CYduiXLclRUFF4L3Vzcbvezzz5bVdbNaM5ar3MAACAASURBVDTCNxgTEyPLclJS0qRJkyRJQgUoZibCwQVLBT/8+eefP//8MysqFK2Ian+NRmM0Ghs2bEjnNkFaQkSOtm3b+nw+nU7n8/l4GutVxi2UQ7F8Pp/ZbD5x4sSGDRsw3b14xSKeYjab+/fvP3LkSBguaGylVqsxVOqaXSpFpgPXWviv+MhIuAefe+65+Ph4PnbXaDQiJw2fDo25GGPLli3z+XwajaYighk+n0+r1apUqvj4eDSXJAjSEiJC1KxZs1GjRpAQWZZRSRdGH5dGo8HBZ8yYYTAY0G69hMe//PLLiYmJFovF5XIZDAZRFB0OxzUs4Yapga7G+BU5WrIs16hRQ6PRuFyuhx56aMyYMU6n02w248PizbOibGBJkgKBwMGDBz/77DMMyCooKIBBE0bNQ+8vv9/fs2dP+NkIgrSEiNx994033sidWiGtOK4eXlOyefPmVatWwQAq4fGJiYnz5s1zOBxMMcGX3+9fE4LBINbHbDZjsDHavVy8eNFoNMbGxr7zzjsej8disXi9XsThIX55eXnc5aXX6z/99FPMLIFUh/dDKa29+++/n05sgrSEiDQjR46EW0alUqGFVHjrPFCTqNFoJk2aBLukeDyG90oJBAK33nrr9OnTsRdj2G14cwHKhNFo5ElugUDA5XJBDOCkMhqNq1atioqKMplMoigKgsD9hKzILRYMBi0WS0ZGxtdff202m1GuKAgCnF1hfKuiKBqNRpvNduONN9JZTZCWEJHmlltusdlsvFQwZEr51e/FjDHoR3p6+vz58zGK/HKP12q1Ho/nqaeemjhxIm7eK0MBI3Z/3mcMJe5Wq/WNN97o3LmzVquF+QXxMBgMbrfb7XZHRUX5/X74xF5//fWcnBzYIoIgBIPB8I5sQV6DJEn169enro4EaQlxbTbKtm3b8mByeF3t2D3hsxIEYdq0aX/88YdOp+PB+eJPMZlMLpfr/fffHzJkSDAYDHtNXznePy8TiY6OVqlUXq9XEIR33nnngQcecDqdPDNNOUESDjpZlqOjo7/77rvFixfD/aXT6XDM8NaXoJWZ1+vt168fndIEaQlxbYCbC5sgErrCeHBEoVElbrfbp0+fDk9aCds37qynT5/+0EMPIURxrVYGbqhAIAAZcLlcKEucNGnS6NGjjUYj/FpMkQHMP3J+fr5er8/Ly5s+fXowGEQXGUiI1WqFTyxc7xO3AjabbfDgwXQ+E6QlxLWhbdu2aCuLvuVh9OObTCav14v+uMjxXbJkya5du0o6O4tqXOrUqfPpp5927979GmoJdny8Ja1WGwwGzWbzq6++Om3aNFEUvV4vn12Irlzw5kmS5PV6MbnylVde2blzJx4WCATgDUOdYxhNEwT8U1JSateuTeczQVpCXBusVmubNm0wkIrnv4YFt9vNh71jDBRj7M477zx79iwi7Ywx3vEeD8CWjdt8rVa7ePHiV199lTEGY0UQBLiPeOUHL6S/5K+l5JJyBU1FWTtjzOVyJSQkfPLJJ48//ji2b6Xoct8g3gB+Xbt27aeffgpp4c463vesfHEpvV4f4oeEfSOK4oQJE+hkJkhLiGvJ008/bbPZcOMc3tmuymFWiCgEAoHJkyc7nU5eIwl7CP4iBLHxF7/fHx0dPXbs2Hnz5iFiIUmS2+02GAySJOn1erVazbWKv0Q58r6URxAEAeEHmGh6vR5Nt1q1arV06dLBgwf7fD6fzycIAt/TMaEE0W/4CTUazdGjRydOnMg7IocFjUbj8/kwUgxmECuaB5OQkEB95gnSEuIa07Rp08TExOKz2cMuJwinL1y4cNq0adi4vV6vRqPhHVZ8Ph+8/xqNBvfyNWvWHD58eHp6empqqk6ni46ORiWH3+/H9q3sVy8IAvc7lQ8IA7/ZR47vuHHjfvnll9TUVK1WG9IhGAYKXGG8c2V+fv6zzz77559/htdnqLR+eOEL3nOHDh2sViudyUQk0bzwwgu0CkRxvv/+e71eX9GpU9CqHTt2JCYm3njjjTqdDjYKK5oWDFNDEAT80e12w+U1atQoQRA2bdpkNptlWUZHXlEUleInSVI5fHTwm/GKP+6n0mq1bdq0mTt37kMPPRQTE+P3+2E/cYNAFEV0LuFTIyEe//d//7d48WIUlIR3PWH64BWhLuhM8/nnnyckJNA5TEQS1bUtJCYqJy6Xq2vXrn/++WdFaEmIJwo1gMFg8KeffurRowdjLC8vLzY2lhsEsDxC7ujhL9qzZ8+UKVN+/vlnfhrDJYWKepVKFRUVVVhYWA55U6vVer3e5/NhmzabzQ8//PA777zDM241Gg1Se5Ut9LG/+/1+vHO/3//ZZ5/9+9//RnEMbxgcNq+CWo2YFmaowOvVp0+fb775hs5hIsKQj4u4BGaz+c477+RTAsNuiyg9XRASlUo1dOhQtM6FkPA4PPZlSZIgGKj4U6lUPp/v5ptvXr169caNGx977DE8DLu/yWTi3a7KsUHr9XoUf0iS1LBhwzfeeCM9Pf2jjz7iMoC8AFaUfwVFYUWxdAxPFATh448/fvLJJ5USFV7Qd4u/GbzhsWPH0glMkF1CVBbOnj171113HTlypCI2QWUEnjGm0+kQr65bt+4PP/yQnJyMUpKQYDXa36rVarfbDU+Uy+VCTpfP5zt8+PDKlSu/+OKLjIwMVpR5JYpiWdOIMdpWEIROnToNHjz49ttvt9ls+CM3ArRa7fnz57kfiYsufz/Z2dm//vrriBEjoHwwj8I+QtFgMCCeBBOKMdatWzf0OqMTmCAtISoLDz/88LJly8J1NB5R53LCRzfi/hqu/5o1a27atCklJQURCL1eHwwGvV4vGs5DGNBtl2dYYXQ8H3+7a9euL7/8cvXq1adOnVJOMywlTZo0GTx48NChQ5s0aaJUI8hJMBjU6/VczOCI48UlGL578eLFVatWPfzww8gxQ8TeaDR6PB6dTsebdF09XEJMJpPb7bZYLO+8886wYcPo1CVIS4hKRE5OTpcuXex2u9lsxv01NsSwO2p4zBz373Xr1v3oo48GDhyIwAOvEUH2LW9SonSUSZIEu4H/0ev1/vXXX3/99dfu3btPnTp14sSJ7Oxst9vt9/thW+j1eqPRGBUVVbNmzfr16zdv3rxly5ZJSUnJyckhxhN+wIui8oYVlcLAk8azlrE+M2fOjEBKC2ohIcmweJo2bbp3797wtokkCNISIgy89NJL7733XiAQMJlM2IUZY1arFW21wgU8V3BhwWWk0+lmz5593333YX4Jtv7iwRsYCjyZihVl8SJWHwwGnU4nas55ijMqQpBzpdVqUZiiVA5lz/bi/rFAIICJYegkxopiJCqVCu/hkUcemT17dmS+HaSN+f1+KMrcuXOHDBlCJy1BWkJUOs6fP9+tW7dz585hKiKsk/D6/eH2QcdcxpjBYMCOzxgbN27cG2+8gVFRaKSIQb8o4+D6gf/lAXDcrXNrxu12I+dKOZGluEjAssE9/iVDLIWFhWazufhdP4ouBUE4cuTI/ffff/DgQYw6xlpVHEgJw3eh0Wh69OixfPlymnxFXCsoj4soiYSEhOHDh/OZgNiOw5vfxYvY+chbURTNZrNOp5s7d26PHj1++eUXCAlkBrUmypp2XszBnT9cVLxer8lkgvEBrxSPf0AD/H4/qsdVKhWvPbzk+4yKioJbCS/Nf8Djv/322z59+vzxxx943YoWElbUwz8QCGDo5L///W8SEoLsEqLyEggEWrZsmZubC19TRbyETqdDbiu/3eY+HFmWo6Kipk6dOn78eMiJ0+mEnPA0XKZoycX3d/4XBOeVCoEK+Uu2hymhNB3ZAfhfuLmgcJIkjRs3btGiRcpalnLUtZRPThDP792799KlSylSQpBdQlRetFrtW2+95XQ6+VaFO+Lw7olcSARBMBqNBoPBZDKh9MTj8TzyyCMdO3Y8cOAAY8xisRgMBtgZeIparea3RCHSAjMlxNTgJX4wU5QCeTmjBL4vhP3RYkulUuXk5KxatSolJeWrr76yWCxwgmFYbwSEBMqn0+nq1KkzY8YMEhKC7BKisiPL8qBBgzZs2MBbkoS3hTB8R5huqxwCj0hJQUEBoilRUVFjxox58skn4+Li9Ho9bAI+Cj4kTMKKGmTB84M+K3BkFd+RlcHzkA/OFJXwXq8X9pDb7T548OB//vOfzz//nDHGI0msaFQiD/9UHHgJrVb72GOPvf7663SWEqQlRBUAQfgzZ87AiRTeXiBKRWFFDiJeiAdPF/ZNlHc88sgjEydOtNlsjDFuJUAJlFMa8RdlwSOvUOEB/Ms1pefGirIgBh6w3bt3v/32299++60kSYhV4GhMkZUQ3jqSS7sU1GpZlpOSkvbt2xd2S5EgynxC0hIQpSEhIWHUqFGQkJDwA/ZZg8FwleXWPHgOBxEfFQxPF37Azj5z5szOnTs/+uijO3bswAB2WZbRKhimidKvhf/l75MH7UOMGMgVfwn0aPF6vXgYRnitW7fugQceuOOOO5YvXw6LB+YOl1We3hZGIcGbVPb9rVmzJmNMkqSmTZvOnj2bhIQgu4SoSkiS1KNHj99//x2jALlHSDkTMAK+HVbUvhezcv/5z3+OGjXq3nvvNRqNfr8fEXJl4hZ2/JAqEA7qFlF7z2WACxI05tChQ7///vukSZMKCgq4L6siLLOSLTYUt3PTR61W/+tf//rss8/ozCRIS4gqxtGjRwcOHJiVlYXb9pCdnSn8VBWtJagCwXvQ6/XR0dHdunXr1q1b3759GzZsyBTNu7gQwhMVUjDPjRhYGOhdD6toz54969ev37Jly+HDh7Ozs5U7O6/Gl2WZ208VBI+LIP0XTVn0en2HDh2++OKL2NhYOi0J0hKi6jF79uwPPvjg3Llz6LsO5dDpdAgbROANKE0fKAov9WCMmc3mFi1adO3atVOnTo0aNbJarYmJicrCRm5LKf8iy3JhYWFubm5BQUFaWtrvv/++devWI0eO+P1+5G4pPXuR+ZhKeN8tKEpcXJzFYlm4cGH79u3phCRIS4hKxKZNm2655ZZS5pX2799/w4YNOp1OEATeWEVZ7REBOcHsEGXSl8ViwfArHqtAp5PExESLxRIXF1erVq3Y2FiLxYJRH06n0+Vy5eXlXbhwITc3Nycn58KFC263G58F6sjjHyEeLVURGJ4YGbsE7VLQwOadd9555JFHSvP03NzcwsJC2GoEQVpCVCCyLDdr1uytt9666667Srk9DRo0aMeOHUyRZIWfEX6I3OmrUgmCAP8V/wuyfnlPYvwX4uesqFCRXT60gwNy5eAeMMwJDvl0IXO9KgIUJMbExOTn5yPek5qaunLlylL20p8+ffqWLVtWrVpF5zlRoVAeF8GOHDlit9tfffXVUt5YxMXFffDBB127dmWMBQIBnkcUgY0VisXTtBDk4H42qIjf74e1xOtL+KxfHmaHYCDyAfMFhy1uXcHWQbcVdLZHU0hld68KxePx1KhRIz8/H7qSmJi4aNGiUgrJ4cOHv/nmm/T0dGW8hyAqApr3fr0jSVK3bt0KCgrg5Onbt29pnpWQkGA0GrOyss6cOcPrFmGXROANK3N8lb1SlEPalX1/+VN433jeNhhduXhYnrdggcxwdeTBEv506Eo55qOUFb1ej7YxGo0mMTHxxx9/LOUsd1EUe/fuffjwYafTaTabu3TpQmc7QXYJUVFs2rTJbrfj5127dm3fvr2UTxw0aFCLFi1sNhvMAmVabcTgyb4hf+TliiX8/XIPY0VtH2Hx8MbyxV8IJkvYTa6/L061GvEY6GXdunWnTJmCCs3S8NFHHx07dgyisnTp0tzcXDrbCdISoqL48MMPUZDBGDt27NiYMWPy8vJKv1ulpqbiubIsO51OalVb/ktRreb+OigKeiejUKZevXpPP/30oEGDSnm0tLQ09HfB+JaMjIz333+fFpkgLSEqhC1bthw5coQxFgwGMY3q+PHjTz75ZOmP8PHHHyckJBgMBpRlRKx8rxqDGS1mszkqKsrhcGg0mqSkpHvvvXfUqFGlPILL5XrsscfS09PxM/oRfPXVVwUFBbS8BGkJEWZkWX755Zezs7N5HR9jLCoqaufOnd9++23p76b37NmTkJDg9Xqjo6OL116ERC+IEr4Oi8XCV9XlcqGdpc/n69q162uvvVb6Q02ePPngwYOwSNDRkjF25syZTz/9lNaZIC0hwszevXvT0tJQHoFQM2OssLAwKyvr+eefR4P30qDT6Xbv3p2SklJQUGA2m0OU43JzDInioLE/r7sURbGwsHDSpElz5swp/UGWL1++du1arVZ78eJFuBzR/lKj0cydOxf5YARBWkKEjU8++QRzotRqNQ8yo4nhqVOnhgwZUvrhgBaL5ddff+3QoYPL5ULKE4lHOewSxpjZbEatZVxcXO3atQcMGDBlypTSL+ahQ4deeeWVs2fPIimAl/fj+7Xb7QiiEARpCREe9uzZk5aWxv53oq3VauVptcePH584cWLp+4VYrdZVq1Y1bdoU4hRimkSygLGKolKpzGYzeiRbrdbc3NwOHTosXbr0cl3xL2nWPPDAAxkZGTBu0AgAs+i5BTlv3jwqTyZIS4iw8fzzz6enp5tMJo/Hg6JuxpjD4fjvaaFWG43GL7744qOPPir9Ma1Wa1paWpMmTYrfR5OWlEZLYAjGx8c7HI6xY8fOmzev9E8PBoN9+/Y9fvw4fhUEgbdzRmJFIBDQarUZGRkvvfQSrTZBWkKEgby8PLvdbjab0X6KB96VGxPuXmfPnl2mHU2v12/btq1///6SJPFIMpKGlZtmCUOorhPZUMotKi55YMlqtU6aNGnmzJllWqLJkyfv2rULT/H5fLzwBZYlelPCA7l69eqK7m1MXIdQ3ft1B9K3NmzYwJsSwgdySdOhoKDg8OHDzZo1a9SoUSmPLwjCwIEDL1y4kJmZifG6xQf6wuuF/iURKJWvbKCDC2PMYrEgOgLTMCoqql69elOmTJkwYUKZAk7PPPPMqlWrAoFACTO4ZFk2Go2BQMDhcNSvX/+mm26ia4EI5x0SOU+vN06dOpWSkoIR5egRUnKLX5PJFB8fv2DBgrJ2OJ81a9aCBQv++OMPTJdiRS3ilYMIr1NvQFHXYd6jBQOJbTbbhx9+2KtXrzIdbc2aNU899ZTdbkdfy8vJCRoTBAIBvV5fu3bt/fv3GwwGuhyIsJ3VtATXG7NmzeItctHrEF0OL/d4j8dz8uTJiRMn7t+/v0wv9Mgjj3zyySd169bVaDRmsxljdH0+H5+adX3mevG5YSaTiS+7LMutWrXaunVrWYVkxYoVzz33XGZmJoShBLsEfY4xQMxut8+dO5euBYLsEqKcnD17tkePHvn5+bwEGuOVdDpdCdsQ7qNTUlJ++OGHevXqlekVL1y4MGTIkM2bN8Odxe/H+ZEjP1rq2hIVFYVkLezver2+Xbt2giB89913Ze1Ak5aWNmzYsIsXLxYWFqKBsXKgyyWJjY3Ny8vTarVNmjTh8RWCILuEKBtTp049c+YMwhhMMdWjBCGJiYmBAJw6dapv376ZmZllesWaNWv+8MMPI0eObNasGY6Dnu3XbaJwYWFhVFQU1FSj0dSqVatr167ff/99WYXk8OHDw4YNczqdhYWFOp0OBgc62VwSfOMulwsGytGjR3/66Se6IgiyS4gyc+HChVtuuaWwsPDixYto+hQMBi83EirEPaLX691ut0qlatu27bJly+rUqVPWV1+4cOH69eu/+eYbphgLX5pXr2bAEDQajV6vt127dosWLUpKSirrQbZv3z5ixIisrCz0KjaZTEjJw8Ev+RSEZBhjCJVpNJqbb7553bp1FDUhyC4hysbXX39tt9svXrxoMBh8Ph9ujZUTdi+3B/FptWq1eteuXampqWfOnCnrqw8bNmzatGkPPvigzWbjc0euNwcXY0yWZa1WGx8f//TTT69bt64cQnLgwIERI0ZkZ2f7/X4M+4LMlzww2Ov1YmoZuj1KkpSWlrZlyxa6LgiyS4gycOLEifvvv//w4cNl3b4vGSG32Wxffvll69aty/FONmzY8OSTTx4/flyv12NkIfvfmYw8zQlun8sNXa9EV5HizWObhkJz8wtvHilzoijabLbvvvuuWbNm5XitZcuWvfzyy1lZWSW4JUv4HpWLrFark5OT9+3bRw1vCLJLiNIyf/78gwcPlpCvVSbsdvuQIUN++eWXcjy3V69eu3btevnll2vXri2KYo0aNbDHWa1WvuvhfQYCAUyC0uv12KMrranB58xjPDCqESEkVqtVq9XCgEhJSfnkk09+//338gnJnDlz3n777czMzKvf/RGvOnHiBLyOBEF2CXFlXC7XzTffzOcnXr1dwhgzGAzx8fHPPPPMiBEjym0qjRkz5syZM2fPnkXdicFgkGUZyUgWi4VPNuR39yXEA64hSvvDarUGAgGv14sUA0gLLLk77rhj3LhxTZo0Kd/W/8QTT+zevXvv3r0hllA5jCdWVGyvUqmSk5P37t1LCV0EaQlxZV566aV33nnHbDbzjltXryWyLBsMhqZNm7Zp02bWrFnlvlPetm3bzJkz16xZw+PwBoMhGAzymDzu8ZWzdSvV2vK3rcyrVv5ss9luvPHGqVOnNm7cuHwvgaaN+/btu3DhgtVqdbvd5YgzFdcS3spl3bp1nTt3psuEIC0hSsLhcLRr1+706dP4tayeohK0BL1AtFrtXXfdNWvWrBISUkvG7/evWrVq+vTpBw8e5JaHXq+XJIlbISECUxmvJZVKrVajRy+a+UuS1KdPn0mTJnXo0KHchz1x4sTw4cPT0tKwMljzsGRU45tVqVR9+/ZdtmwZmSYEaQlREp9++unEiROLe2OuUktiY2Nzc3MZY0hIbdy48c8//xwfH1/u9ymK4sqVK19//fUjR47gvh49V/gNPuIolT+HWBCEli1biqL45ptvpqamXs2htmzZMnr0aLfbnZOTw7++8CZSw175+eefO3XqRBcLQVpCXNY90rlz57/++gt7UFmTf0q2S0L+YrPZpk+ffuedd17NGxZFcceOHZ999tn27dsR4DGZTLIs40QthxZWNEajEe8tNjbW6XTWqVNnwIABQ4YMadmy5dUcNhgMzpgxY/HixWfOnEEACRaPWq0OBoN6vf6KJe6lV75gMNivX7+vvvqKEroI0hLi0sycOXPy5MnKXSOMWsJL5CwWC6ZlMMaGDh367rvvltvfxfnjjz++/fbbhQsX2u12vV6PjpCVM/YOObHZbMOGDXv00UejoqKu8oCnTp165JFHNm7cCMFGGN/tdmPBw54bja9vx44d5UvyJgjSkmqO1+vt3Lnz0aNH0U8wMkXmgiDUq1dv3rx5YfGZSJK0e/fuDz74YPfu3Xa7XavViqKIyEQwGETMBnOFLyeEKOwoHmC44o58yfbJIdlZ0LZ///vfDz/8cFJS0tWHHGRZ/vrrr1966SW73c4tnooGEtWmTZtt27bRVUOQlhChLFmyZOzYsSiHxjYXgS5Y2KNtNtvDDz88ceJEk8kUlsM6HI4tW7YsX778t99+O3nyJNoM86J9XsyBrlOSJF1SJ5TJS5fzlWGmiFKcMLnLaDQ6nU5+2Hbt2vXp06djx45dunThQ3CvkszMzBkzZsyePVutVut0ushMrOIhfZVK9euvv7Zp04YuHIK0hPgbn8934403YtvFvTyirBWtJbjJhUM/OTl5/vz5bdu2DePxJUnat2/fnDlzfvvtN8bYuXPnRFH0eDzKNCpkOrGianNWFGHmf4fqQISU2WJccvR6PUyfQCCAKIUkScnJydHR0d26dRsyZEizZs3Cm/g0b968lStXrl+/njFmNpv9fj+2+Io2JXl/MJ/PN2jQoAULFtC1Q5CWEH8zZ86cJ554Aj/DWxKxwDWERKPRWCyWmJiY1NTU119/PTY2Nuwv5Ha7jx49unfv3vT09C1bthw+fFi580I+uSWhLgJ2CWLXyqoLjUYD/xW3chhjbdq06dWrV6tWrVq2bNmwYcNwmSBKTp48OWnSpEOHDsGJxxiD+y5yu4BKBdFq2rTpkiVLWrRoQZcPQVpCMDhwWrRokZeX53K5MOpKFMWIaQk2XF7BJ8ty3bp1p0+f3rt3b51OV0Ev6vF4XC5Xdnb2qVOn7Hb78ePHMzIyMjMzXS7XiRMniru84LmC2EiS1KRJk+joaKPRmJKS0qhRo1atWtlstpo1a1osloorvHC5XLNmzfrss8/sdnt0dLTb7S5uIUVAVBB7h9Dedttt1FWFIC0h/svChQvHjh3LFDUZWq02Mne7er2e3/Vz0Oe8ffv2U6ZM6d69eyRzT3kXFvSR5KEUSKwgCIIgaLXaCM95lCRp4cKFb775pt1uj42N9Xg8uBK5KxJfnLK8puLATQacXTabbc2aNY0aNaKLiCAtud7x+XydOnX666+/lDUZEdMSxpjRaAwEAhiOgiQr7I94J3fdddeLL754PTtS1q9fP3HiRLvdbrValV1tlN8RxoVFIO+Omz7QEovFMnHixBdffJGuI4K05Hpn7dq1AwcOZIxFR0djFi/mIEXGYcIzWZWeLkiaJEmoFBFFsVevXm+//fYNN9xw/XwvkiRt3Ljx0UcfZYydPXsWuQDwLHHZUOaksYjUZkJCePEjLMhjx46VY7AKQVpCVB9EUUxNTd21a1dle2M8pYoVlX2kpKRoNJoZM2Z06tQpXM3wKydut3v58uWff/75jh07Kuc7VGqY2Wzu06fP4sWL6WoiynAK0RJUM9atW3fw4MFK+MZkBQhaHDt27OjRo7fddlvnzp3XrFlTaceTXA0ej2fu3LldunQZO3ZsWlpaJXyHUHFltrTH4zl9+vT58+fpaiLILrlOkSSJGyWVrTf7JU6+opxdJHfVqVMnNTV1ypQpCQkJ1eC72L1796xZs9BVLCoqyuFwyLKsbDZTE71LSgAACh1JREFUSVC2pVH2Ahg5cuRHH31E1xRBWnI9kpaWlpqait05Avk/4TGN1Wpl00mbzda0adNBgwbdfffdFoulaq2/LMtnzpxZsWLFkiVL8vPzz507p9froSKV9j3zkAwyx5D2hi9ix44dMTExdFkRpCXXnVHywAMPrFu3LjK9N8phhVzOWkKBHoZruVwuzOuNjY1t3Ljxww8/3Ldv33A1Yqk4HA7H119//e6772ZkZCDTQXm/zxOOS2gddg2/F94agBXNG4aB8sorr0yaNImuLIK05Ppi27ZtPXv2ZEVl55VTS5S38PghLi4Oc1A4MKp4+5Dk5OSmTZt26dLl9ttvb9SoUcVVO5YVp9N55MiRX375ZfPmzcePH0c/Y5VK5fP5+KcLe0/fyMg8yjPr16+/cePGunXr0sVFkJZcR9x///0rV66UZblyaklxRQnZvND/ymg06vX6/Px8tVptMBgYY2hrjz4fSUlJgwcPbteuXcuWLRMSEiqio0nJiKJ47ty5zZs3r1q16siRIxkZGcjr1ev1/FIyGo1+vx8tNRljgiDwkfWV+aspbiyiBfKUKVPo4iJIS64XTp06ddttt505c0aj0Shv6iutoiiFxGg0er1eWZZ5mIe3aOQyg70YNfz436SkpMTExDZt2nTq1CklJSUlJaUiCtf9fv/x48d37dp16NChbdu25eXloRu83+9HWxqdToeLSK/Xo7T+kh8Ts3UruY3Cm8rwt22z2fbv3w9RJwjSkupP7969t2/fDv2oQje/V2nZKGnSpEl8fHzjxo0bNWqUlJRUt27duLg4k8kUExPDe6Xwxo4cSZLQDNjtdrtcLo/HY7fb8/Ly/vrrr2PHjp04cQLiwcoyX7LaANPkgw8+GD16NF1iBGlJ9efkyZN9+vSx2+3cHIlMiXul0pKQADLusjUaTSAQQPKxcoJLSO995f14cQMCx7mcnVdd1xmRHrVafcstt3zxxRdxcXF0oRElnTC0BNWA2bNn496Zd7StuNa2lXnvK96lEX4zlOMFg0He3hF/h6UCIUFGLDRDkiRoz+UGnFwPYBCnJElbtmyZNWsWXWUEaUk1Z9++fStXroRH2+/3Y9+sxo6XEva+YDCI6bnKj4+/KO0M6IQoirxtMLoIQ2kwhZcLknIU4/UGWj7rdLply5ZVlXIlgrSEKCfvvfee3W7HPTX/YzXWEvkyQANgaijVRVUM/BcvyuMDGWHWBAIBNDnmSoOHXe51q/Gp5fF41Gq1z+ez2+1z5syha40oAYqXVG3Onz/fvXv3kydPsmKhgmrZ3qpsJ/f/zlUMvY0qcm0Vj44oJee6XUZlKp0gCDabLS0trfIXjRJklxBlRpKk//znPzBKoCIoIMd/XXencpEG8FBHcftMaZ3ANAnxfaExPnd5oQj8+jy7RFHEGhoMhmAw+Ndff61du5YuOoLskmrIhQsX6tevj01Qp9P5fD64aKpQM67IaMzlxLW44QJB4vfjyr9fnwZKVFRUYWEh8gNvuummjRs3Uq0JQXZJdeOtt97CD7Iso6AE6UYkJCHW2+VkoLhmFDdWrmc7jzHGhYQxRlETgrSkGpKdnb19+/bqPUKKuLZaAjlB/gJjLC8v79tvv63oOY8EaQkRUaZNm7Z3797rsI6EiAzBYJCfXWgVwxhLS0tbvXo1LQ5RHIqXVEmcTmfbtm3tdjuFRoiKA0U2cHChjaZarW7QoMGOHTuMRiOtD0F2SZVnxowZ2dnZfEA3QVQQPFCExDa1Wp2enr5ixQpaGYK0pMrjcDi+/PJLj8djNptJS4gKQqvV8rQFnmvu8/kMBsP8+fNpfQjSkirPrFmz0H2LICoO3heAMabRaLiceL3ezZs3HzhwgJaIIC2pwrjd7kWLFqlUKovF4nQ6KfZOVBCSJPEsQa/Xi3RzTCRjjE2cOJFsYoK0pArz4Ycfnjp1SqvVOp1OeCFoTYiKM02KC0wwGIyJiUlLS9u/fz8tEcERaAmqEHl5eT/88AO/Q+Q/0MoQEUOr1ebn55tMpo8//vizzz6j048AlBNclZg3b96ECRPQbwqjYSv5LF6i+mEwGLxeL37+5ZdfOnToQGtCMPJxVSG8Xu+CBQsYYzqdThRF3ATQXSERYXw+H4pLLBbLlClTaEEIQD6uKsOCBQvS0tLUajWf8Ye+hCQnRCThzd/8fv/JkycPHDjQunVrWhaCfFxVg0Ag0K5du2PHjqETsFarFUXRYDC43W5aHCLyGI1GTMoaOHDg4sWLaUEI0pKqwZo1a+655x50RBdFEWESjUYjiiLZJUQkwYgX/MsYkyRp69atbdq0oZUhLSEtqQJehV69eomiiNZbgiAEAgGXy2U0Gq1Wq8PhoCUiIoZOp+M5hIIgFBQUpKamvvfee7QypCWkJQRBEMRVQXlcBEEQBGkJQRAEQVpCEARBkJYQBEEQpCUEQRAEQVpCEARBkJYQBEEQpCUEQRAEaQlBEARBkJYQBEEQ1xLqOf9fTp48OXbsWK/XW7NmTY1GY7Va8/PzaVkIooqi1Woxmn7WrFlRUVG0IBUN9eP6L3a7vUWLFiqVSqPRYDwDQRDVgAsXLpjNZloHsksiRCAQkCTJZDKhAaperxdFkZaFIKoosiwLguDz+dAbnyAtiRAajQYD4zA+HdJCy0IQVRedTqfRaGgdSEsiuxCCwBgLBoOCIPDxDARBVF38fj8NsY4YlMf192nHGNPr9cFgEKYJQRBVGpVKJcsyrQNpCUEQBEFaQhAEQZCWEARBEARpCUEQBEFaQhAEQZCWEARBEKQlBEEQBEFaQhAEQZCWEARBEKQlBEEQBGkJQRAEQZCWEARBEKQlBEEQBGkJQRAEQVpCEARBEKQlBEEQBGkJQRAEQVpCEARBkJYQBEEQBGkJQRAEQVpCEARBkJYQBEEQpCUEQRAEQVpCEARBkJYQBEEQpCUEQRAEaQlBEARBkJYQBEEQpCUEQRAEaQlBEARBWkIQBEEQpCUEQRAEaQlBEARBWkIQBEGQlhAEQRAEaQlBEARBWkIQBEGQlhAEQRCkJQRBEARBWnJZNBoNY0ySJLVarVKpaEEIoqoTDAbpWo4YAi3BfxdCEARBUKlUXFS0Wi0tC0FU3Sva4/HIskxLQVoSUTwejyiKwWCQMabT6XQ6nd/vp2UhiCqKWq1mjLVo0SIQCNBqRACVx+OhVWCMybJ8+vRpg8EgSZIoiqIokl1CEFUXXMiSJDVo0IBWg7SEIAiCqAqGIC0BQRAEQVpCEARBkJYQBEEQpCUEQRAEaQlBEARBkJYQBEEQpCUEQRAEaQlBEARBWkIQBEEQpCUEQRAEaQlBEARBWkIQBEGQlhAEQRAEaQlBEARBWkIQBEGQlhAEQRCkJQRBEARBWkIQBEFcIwRaAoIgCKLcqAJ+1f5tpCUEQRBEec2RbUtVOVmBX5aTlhAEQRBlRu0p8Hz1MdP4/Tt/VAel/we3fzYfM4KjcAAAAABJRU5ErkJggg==;" vertex="1" parent="1">
                    <mxGeometry x="371.5" y="217.85999999999999" width="57" height="62.14" as="geometry"/>
                </mxCell>
                <mxCell id="8" value="行为" style="rounded=0;whiteSpace=wrap;html=1;fontSize=20;" vertex="1" parent="1">
                    <mxGeometry x="500" y="200" width="100" height="40" as="geometry"/>
                </mxCell>
                <mxCell id="9" value="状态" style="rounded=0;whiteSpace=wrap;html=1;fontSize=20;" vertex="1" parent="1">
                    <mxGeometry x="200" y="200" width="100" height="40" as="geometry"/>
                </mxCell>
                <mxCell id="10" value="奖励" style="rounded=0;whiteSpace=wrap;html=1;fontSize=20;" vertex="1" parent="1">
                    <mxGeometry x="60" y="240" width="100" height="40" as="geometry"/>
                </mxCell>
                <mxCell id="11" value="" style="endArrow=none;html=1;fontSize=20;exitX=1;exitY=0.5;exitDx=0;exitDy=0;entryX=0.5;entryY=1;entryDx=0;entryDy=0;edgeStyle=orthogonalEdgeStyle;" edge="1" parent="1" source="3" target="8">
                    <mxGeometry width="50" height="50" relative="1" as="geometry">
                        <mxPoint x="510" y="300" as="sourcePoint"/>
                        <mxPoint x="560" y="250" as="targetPoint"/>
                    </mxGeometry>
                </mxCell>
                <mxCell id="12" value="" style="endArrow=none;html=1;fontSize=20;exitX=0.5;exitY=0;exitDx=0;exitDy=0;entryX=1;entryY=0.5;entryDx=0;entryDy=0;edgeStyle=orthogonalEdgeStyle;" edge="1" parent="1" source="8" target="2">
                    <mxGeometry width="50" height="50" relative="1" as="geometry">
                        <mxPoint x="460" y="310" as="sourcePoint"/>
                        <mxPoint x="560" y="250" as="targetPoint"/>
                    </mxGeometry>
                </mxCell>
                <mxCell id="13" value="" style="endArrow=none;html=1;fontSize=20;exitX=0;exitY=0.25;exitDx=0;exitDy=0;edgeStyle=orthogonalEdgeStyle;exitPerimeter=0;" edge="1" parent="1" source="3" target="9">
                    <mxGeometry width="50" height="50" relative="1" as="geometry">
                        <mxPoint x="470" y="320" as="sourcePoint"/>
                        <mxPoint x="570" y="260" as="targetPoint"/>
                    </mxGeometry>
                </mxCell>
                <mxCell id="14" value="" style="endArrow=none;html=1;fontSize=20;exitX=0.5;exitY=0;exitDx=0;exitDy=0;entryX=0;entryY=0.75;entryDx=0;entryDy=0;edgeStyle=orthogonalEdgeStyle;" edge="1" parent="1" source="9" target="2">
                    <mxGeometry width="50" height="50" relative="1" as="geometry">
                        <mxPoint x="480" y="330" as="sourcePoint"/>
                        <mxPoint x="580" y="270" as="targetPoint"/>
                    </mxGeometry>
                </mxCell>
                <mxCell id="15" value="" style="endArrow=none;html=1;fontSize=20;exitX=0;exitY=0.75;exitDx=0;exitDy=0;entryX=0.5;entryY=1;entryDx=0;entryDy=0;edgeStyle=orthogonalEdgeStyle;" edge="1" parent="1" source="3" target="10">
                    <mxGeometry width="50" height="50" relative="1" as="geometry">
                        <mxPoint x="490" y="340" as="sourcePoint"/>
                        <mxPoint x="590" y="280" as="targetPoint"/>
                    </mxGeometry>
                </mxCell>
                <mxCell id="16" value="" style="endArrow=none;html=1;fontSize=20;exitX=0.5;exitY=0;exitDx=0;exitDy=0;entryX=0;entryY=0.25;entryDx=0;entryDy=0;edgeStyle=orthogonalEdgeStyle;" edge="1" parent="1" source="10" target="2">
                    <mxGeometry width="50" height="50" relative="1" as="geometry">
                        <mxPoint x="500" y="350" as="sourcePoint"/>
                        <mxPoint x="600" y="290" as="targetPoint"/>
                    </mxGeometry>
                </mxCell>
            </root>
        </mxGraphModel>
    </diagram>
</mxfile>